<svg width="47" height="40" viewBox="0 0 47 40" fill="none" xmlns="http://www.w3.org/2000/svg">
<g opacity="0.2" clip-path="url(#clip0_802_3456)">
<path d="M10.1514 39.0781C10.0706 39.078 9.99197 39.0522 9.92687 39.0044C9.86178 38.9566 9.81362 38.8893 9.78941 38.8123C9.76519 38.7352 9.76618 38.6525 9.79223 38.576C9.81828 38.4996 9.86804 38.4335 9.93426 38.3872L13.1986 36.1166L8.71963 38.703C8.63401 38.7543 8.53164 38.7698 8.43468 38.7462C8.33772 38.7225 8.25397 38.6616 8.20157 38.5767C8.14917 38.4917 8.13233 38.3896 8.1547 38.2923C8.17706 38.1951 8.23684 38.1105 8.32108 38.057L9.54102 37.2576L7.67429 38.3341C7.58973 38.3809 7.4905 38.3937 7.39684 38.3699C7.30317 38.3461 7.22212 38.2874 7.17022 38.2059C7.11832 38.1243 7.09947 38.0261 7.11753 37.9311C7.13558 37.8362 7.18918 37.7517 7.26739 37.6949L13.582 33.2918L6.19623 37.5598C6.11092 37.6083 6.01012 37.6219 5.915 37.5977C5.81988 37.5735 5.73783 37.5134 5.68607 37.43C5.63431 37.3466 5.61686 37.2464 5.63738 37.1504C5.65791 37.0545 5.71482 36.9702 5.79616 36.9152L10.8619 33.5515L5.18657 36.8249C5.10126 36.8734 5.00046 36.887 4.90534 36.8628C4.81022 36.8386 4.72817 36.7786 4.67641 36.6952C4.62464 36.6118 4.60719 36.5116 4.62772 36.4156C4.64825 36.3196 4.70516 36.2353 4.7865 36.1804L11.0874 31.9831L4.24599 35.9306C4.16119 35.9767 4.06202 35.9887 3.96866 35.9643C3.87531 35.9399 3.79476 35.8808 3.74341 35.7991C3.69207 35.7174 3.67377 35.6191 3.69225 35.5244C3.71073 35.4297 3.76459 35.3456 3.84288 35.2892L12.3795 29.4832L3.28871 34.7319C3.20366 34.7791 3.10378 34.7917 3.00966 34.7674C2.91554 34.743 2.83436 34.6834 2.78286 34.601C2.73135 34.5185 2.71346 34.4194 2.73286 34.3242C2.75226 34.2289 2.80747 34.1447 2.88712 34.089L11.8192 28.072L2.55158 33.4224C2.50906 33.4484 2.46183 33.4658 2.41259 33.4736C2.36335 33.4814 2.31306 33.4794 2.2646 33.4677C2.16672 33.4441 2.08221 33.3827 2.02967 33.2968C1.97712 33.2109 1.96083 33.1077 1.98439 33.0098C2.00795 32.9119 2.06943 32.8274 2.1553 32.7749L8.11915 28.9207L2.13101 32.3809C2.04549 32.4295 1.94444 32.443 1.84915 32.4186C1.75387 32.3941 1.67178 32.3337 1.6202 32.2499C1.56863 32.1662 1.55158 32.0656 1.57267 31.9696C1.59375 31.8735 1.65131 31.7893 1.73322 31.7348L9.64351 26.5529L1.79395 31.085C1.70858 31.1308 1.60893 31.1423 1.5154 31.117C1.42187 31.0917 1.34155 31.0316 1.29089 30.949C1.24023 30.8665 1.22307 30.7676 1.24293 30.6728C1.26278 30.578 1.31814 30.4943 1.39768 30.439L8.49492 25.8408L1.63757 29.7983C1.55213 29.8453 1.45186 29.8577 1.35755 29.8328C1.26325 29.8079 1.18215 29.7476 1.13107 29.6645C1.08 29.5814 1.06288 29.4819 1.08326 29.3865C1.10365 29.2911 1.15996 29.2072 1.24053 29.1522L8.93675 24.1419L1.61783 28.3673C1.53207 28.4131 1.43198 28.4243 1.33823 28.3985C1.24447 28.3727 1.16418 28.3119 1.11394 28.2286C1.06369 28.1454 1.04732 28.046 1.06819 27.951C1.08906 27.8561 1.14559 27.7727 1.22611 27.7182L4.10555 25.8963L1.61707 27.3348C1.53151 27.3806 1.43165 27.3919 1.33802 27.3664C1.24439 27.3408 1.1641 27.2804 1.11365 27.1975C1.06321 27.1146 1.04644 27.0155 1.06679 26.9206C1.08714 26.8257 1.14307 26.7422 1.22307 26.6873L4.33557 24.6945L1.61707 26.2637C1.53182 26.3131 1.4307 26.3274 1.33508 26.3036C1.23946 26.2798 1.15684 26.2198 1.10469 26.1362C1.05254 26.0526 1.03494 25.952 1.05561 25.8556C1.07629 25.7593 1.13362 25.6748 1.21548 25.6199L6.86504 21.8121L1.61555 24.8426C1.53037 24.8903 1.43007 24.9034 1.33549 24.8791C1.24092 24.8548 1.15934 24.795 1.10773 24.7121C1.05611 24.6292 1.03843 24.5296 1.05836 24.434C1.07829 24.3384 1.13429 24.2542 1.21472 24.1988L4.51852 21.9783L1.61252 23.656C1.5279 23.7022 1.42887 23.7145 1.33553 23.6904C1.24219 23.6662 1.16153 23.6075 1.10994 23.526C1.05835 23.4446 1.03968 23.3465 1.05773 23.2518C1.07578 23.1571 1.1292 23.0728 1.20713 23.0161L4.12528 20.996L1.61479 22.4467C1.53037 22.4949 1.43069 22.5088 1.3363 22.4857C1.2419 22.4625 1.15999 22.404 1.10743 22.3223C1.05487 22.2405 1.03568 22.1417 1.05381 22.0462C1.07193 21.9507 1.12599 21.8658 1.20485 21.809L3.24088 20.3606L1.61403 21.2989C1.53023 21.3455 1.43188 21.3587 1.33874 21.3358C1.2456 21.3129 1.16458 21.2556 1.11198 21.1754C1.05937 21.0952 1.03908 20.9981 1.05519 20.9035C1.07129 20.809 1.12259 20.724 1.19878 20.6658L2.54475 19.6675L1.61403 20.2042C1.5343 20.2501 1.44063 20.2654 1.35042 20.2474C1.26022 20.2294 1.17963 20.1792 1.12363 20.1063C1.06723 20.0332 1.03937 19.9422 1.04523 19.8501C1.0511 19.758 1.0903 19.6713 1.15551 19.606L2.95241 17.8152L1.61252 18.5887C1.54163 18.6295 1.45948 18.6463 1.37828 18.6366C1.29709 18.6269 1.22119 18.5912 1.1619 18.5349C1.1026 18.4786 1.06307 18.4047 1.0492 18.3241C1.03533 18.2435 1.04785 18.1606 1.08491 18.0877L1.67173 16.9361C1.60231 16.9396 1.53327 16.9238 1.47239 16.8902C1.4115 16.8567 1.36117 16.8069 1.32708 16.7463C1.30204 16.7031 1.28577 16.6554 1.2792 16.6059C1.27263 16.5564 1.27589 16.5061 1.28879 16.4578C1.3017 16.4096 1.32399 16.3644 1.3544 16.3248C1.38481 16.2852 1.42273 16.252 1.466 16.227L2.36483 15.7116C2.43575 15.6692 2.51856 15.6511 2.60069 15.6601C2.68282 15.6691 2.75978 15.7046 2.81989 15.7612C2.88001 15.8179 2.91998 15.8927 2.93376 15.9741C2.94754 16.0556 2.93436 16.1393 2.89623 16.2126L2.34585 17.2936L5.08408 15.7116C5.16382 15.6673 5.25685 15.6531 5.34614 15.6718C5.43543 15.6905 5.51502 15.7407 5.57032 15.8132C5.62563 15.8858 5.65296 15.9758 5.64732 16.0668C5.64167 16.1579 5.60342 16.2439 5.53957 16.309L3.74495 18.0968L7.88381 15.7116C7.96765 15.6639 8.06649 15.6499 8.16025 15.6725C8.25401 15.6951 8.33567 15.7525 8.38863 15.8331C8.44159 15.9137 8.46188 16.0114 8.44539 16.1065C8.42889 16.2015 8.37685 16.2867 8.29982 16.3447L6.95462 17.3392L9.78243 15.707C9.86685 15.6589 9.96653 15.6449 10.0609 15.6681C10.1553 15.6912 10.2372 15.7497 10.2898 15.8315C10.3424 15.9132 10.3615 16.012 10.3434 16.1075C10.3253 16.203 10.2712 16.2879 10.1924 16.3447L8.1571 17.7939L11.7722 15.7063C11.8569 15.6584 11.9569 15.6449 12.0513 15.6687C12.1458 15.6924 12.2275 15.7515 12.2795 15.8338C12.3316 15.9161 12.3501 16.0153 12.3311 16.1108C12.3121 16.2063 12.2571 16.2909 12.1775 16.347L9.26166 18.3686L13.8697 15.7078C13.9547 15.6618 14.054 15.65 14.1474 15.6747C14.2408 15.6995 14.3212 15.7589 14.3723 15.8409C14.4234 15.9229 14.4414 16.0212 14.4224 16.116C14.4035 16.2107 14.3492 16.2947 14.2705 16.3508L10.9599 18.5735L15.9262 15.707C16.0112 15.6599 16.1111 15.6472 16.2052 15.6716C16.2994 15.696 16.3805 15.7555 16.432 15.838C16.4835 15.9204 16.5014 16.0195 16.482 16.1148C16.4626 16.2101 16.4074 16.2943 16.3278 16.35L10.6782 20.1594L18.3919 15.704C18.4775 15.6569 18.578 15.6446 18.6725 15.6698C18.7669 15.6949 18.848 15.7555 18.8989 15.839C18.9498 15.9224 18.9665 16.0223 18.9456 16.1178C18.9247 16.2133 18.8678 16.297 18.7867 16.3515L15.678 18.3397L20.2017 15.7275C20.2877 15.6793 20.3891 15.6665 20.4844 15.6917C20.5797 15.7169 20.6614 15.7783 20.7123 15.8627C20.7632 15.9471 20.7793 16.048 20.7571 16.1441C20.7349 16.2401 20.6762 16.3238 20.5934 16.3773L17.7041 18.2031L20.8622 16.3811C20.9477 16.3333 21.0485 16.3205 21.1433 16.3453C21.2382 16.3701 21.3197 16.4306 21.371 16.5142C21.4222 16.5978 21.4391 16.6979 21.4181 16.7937C21.3971 16.8895 21.3399 16.9734 21.2584 17.0279L13.5637 22.0383L20.9274 17.7871C21.0132 17.7383 21.1145 17.7248 21.21 17.7494C21.3056 17.7741 21.3877 17.8349 21.4391 17.9191C21.4906 18.0033 21.5072 18.1042 21.4855 18.2004C21.4638 18.2966 21.4055 18.3806 21.323 18.4346L14.2356 23.0244L20.9312 19.1596C21.0165 19.1132 21.1164 19.1012 21.2102 19.1262C21.3041 19.1512 21.3848 19.2112 21.4358 19.2938C21.4867 19.3765 21.5041 19.4756 21.4842 19.5706C21.4644 19.6657 21.4088 19.7495 21.329 19.8049L13.4172 24.9876L20.9328 20.6498C21.0185 20.601 21.1198 20.5875 21.2154 20.6121C21.3109 20.6368 21.393 20.6976 21.4445 20.7818C21.4959 20.866 21.5125 20.9669 21.4908 21.0631C21.4691 21.1594 21.4108 21.2434 21.3283 21.2974L15.3682 25.1462L20.9312 21.9366C21.0165 21.8872 21.1176 21.8728 21.2132 21.8966C21.3088 21.9204 21.3915 21.9805 21.4436 22.0641C21.4958 22.1477 21.5134 22.2483 21.4927 22.3446C21.472 22.441 21.4147 22.5255 21.3328 22.5803L12.3984 28.5958L20.9312 23.6704C21.0162 23.6227 21.1163 23.6094 21.2108 23.6334C21.3053 23.6575 21.387 23.7169 21.4388 23.7995C21.4906 23.8821 21.5087 23.9814 21.4892 24.077C21.4698 24.1725 21.4143 24.2569 21.3343 24.3127L12.7932 30.1186L20.9312 25.4226C21.0163 25.3761 21.116 25.364 21.2098 25.3886C21.3036 25.4133 21.3843 25.473 21.4355 25.5554C21.4867 25.6377 21.5044 25.7365 21.485 25.8316C21.4657 25.9266 21.4107 26.0106 21.3313 26.0663L15.035 30.2629L20.9312 26.8589C21.0165 26.8118 21.1165 26.7993 21.2107 26.8239C21.3049 26.8486 21.3861 26.9085 21.4373 26.9912C21.4886 27.074 21.5061 27.1733 21.4863 27.2686C21.4664 27.364 21.4106 27.448 21.3305 27.5034L16.2633 30.8709L20.9312 28.1767C21.0158 28.1299 21.115 28.1171 21.2087 28.1409C21.3024 28.1648 21.3834 28.2234 21.4353 28.305C21.4872 28.3865 21.5061 28.4848 21.488 28.5797C21.4699 28.6747 21.4163 28.7591 21.3381 28.8159L15.0236 33.219L20.8485 29.8567C20.9339 29.809 21.0344 29.796 21.1291 29.8206C21.2238 29.8451 21.3053 29.9053 21.3567 29.9885C21.4081 30.0718 21.4254 30.1716 21.405 30.2673C21.3845 30.3629 21.328 30.447 21.247 30.502L20.0271 31.3006L20.6435 30.9453C20.7282 30.898 20.8278 30.8849 20.9218 30.9087C21.0158 30.9325 21.0972 30.9914 21.1492 31.0733C21.2011 31.1552 21.2198 31.2539 21.2013 31.3491C21.1828 31.4443 21.1285 31.5288 21.0497 31.5853L17.7853 33.8559L20.1212 32.5077C20.2039 32.4594 20.3018 32.4441 20.3952 32.4649C20.4887 32.4858 20.5708 32.5411 20.6252 32.62C20.6795 32.6988 20.7021 32.7953 20.6883 32.89C20.6745 32.9848 20.6254 33.0708 20.5509 33.1309L17.2008 35.8441L18.4549 35.1206C18.4981 35.0932 18.5464 35.0747 18.5969 35.0664C18.6474 35.0581 18.6991 35.0601 18.7488 35.0723C18.7986 35.0845 18.8453 35.1066 18.8863 35.1373C18.9272 35.168 18.9615 35.2067 18.9872 35.251C19.0128 35.2953 19.0292 35.3444 19.0353 35.3952C19.0415 35.446 19.0373 35.4975 19.0231 35.5467C19.0088 35.5959 18.9848 35.6417 18.9523 35.6813C18.9199 35.7209 18.8798 35.7536 18.8345 35.7773L13.4278 38.8989C13.3451 38.9475 13.247 38.9629 13.1533 38.9421C13.0596 38.9212 12.9773 38.8656 12.9229 38.7866C12.8685 38.7075 12.8461 38.6107 12.8603 38.5158C12.8744 38.4208 12.9239 38.3347 12.9989 38.2749L16.3468 35.5594L10.3412 39.0272C10.2833 39.0602 10.218 39.0777 10.1514 39.0781Z" fill="#2963BF"/>
<path d="M32.8929 39.135C32.8117 39.1351 32.7326 39.1093 32.6672 39.0612C32.6017 39.0131 32.5535 38.9453 32.5294 38.8678C32.5054 38.7902 32.5069 38.707 32.5336 38.6303C32.5604 38.5537 32.611 38.4876 32.678 38.4419L36.24 36.0126L31.2524 38.8913C31.1676 38.9399 31.0674 38.954 30.9726 38.9306C30.8777 38.9072 30.7955 38.8482 30.7431 38.7657C30.6907 38.6833 30.6721 38.5838 30.6912 38.488C30.7102 38.3922 30.7655 38.3074 30.8455 38.2513L37.6778 33.4953L29.274 38.3424C29.1883 38.3904 29.0872 38.4032 28.9922 38.3781C28.8971 38.3531 28.8155 38.2922 28.7645 38.2082C28.7134 38.1242 28.697 38.0237 28.7185 37.9278C28.7401 37.8319 28.798 37.7482 28.88 37.6941L30.7551 36.4969L28.2856 37.9226C28.2001 37.9684 28.1002 37.9797 28.0066 37.9542C27.913 37.9286 27.8327 37.8682 27.7822 37.7853C27.7318 37.7024 27.715 37.6033 27.7353 37.5084C27.7557 37.4135 27.8116 37.33 27.8916 37.275L31.263 35.116L27.3025 37.4026C27.2174 37.4503 27.1171 37.4634 27.0225 37.4391C26.9279 37.4148 26.8463 37.355 26.7947 37.2721C26.7431 37.1892 26.7254 37.0896 26.7453 36.994C26.7653 36.8984 26.8213 36.8142 26.9017 36.7588L35.6501 30.8944L25.9687 36.484C25.8827 36.5314 25.7816 36.5436 25.6867 36.518C25.5919 36.4924 25.5106 36.431 25.4601 36.3468C25.4096 36.2625 25.3937 36.1619 25.4157 36.0662C25.4378 35.9705 25.4962 35.887 25.5785 35.8334L26.3187 35.3711L25.3318 35.9412C25.2463 35.9908 25.1449 36.0051 25.0491 35.981C24.9533 35.957 24.8706 35.8966 24.8186 35.8126C24.7667 35.7286 24.7495 35.6276 24.7707 35.5312C24.792 35.4347 24.85 35.3503 24.9325 35.296L33.9967 29.3093L24.3123 34.9004C24.2266 34.9503 24.1248 34.9646 24.0287 34.9404C23.9326 34.9162 23.8498 34.8554 23.798 34.7709C23.7461 34.6864 23.7294 34.585 23.7513 34.4884C23.7732 34.3917 23.832 34.3075 23.9152 34.2537L32.111 28.9207L23.5212 33.8794C23.4352 33.9276 23.3339 33.9404 23.2386 33.9152C23.1433 33.89 23.0615 33.8286 23.0106 33.7442C22.9597 33.6598 22.9437 33.5589 22.9659 33.4628C22.9881 33.3668 23.0467 33.2831 23.1295 33.2296L25.4973 31.7485L23.0551 33.1582C22.9696 33.2068 22.8686 33.2203 22.7733 33.1959C22.678 33.1715 22.5959 33.111 22.5443 33.0272C22.4927 32.9435 22.4757 32.843 22.4968 32.7469C22.5179 32.6508 22.5754 32.5667 22.6573 32.5122L31.5856 26.6668L22.4303 31.9519C22.345 31.9983 22.2452 32.0103 22.1513 31.9853C22.0575 31.9604 21.9768 31.9004 21.9258 31.8177C21.8748 31.735 21.8575 31.636 21.8774 31.5409C21.8972 31.4458 21.9528 31.362 22.0326 31.3067L31.1795 25.2866L21.9248 30.6303C21.8823 30.6566 21.8351 30.6743 21.7857 30.6823C21.7364 30.6904 21.686 30.6887 21.6374 30.6772C21.5887 30.6658 21.5428 30.6449 21.5023 30.6158C21.4617 30.5866 21.4273 30.5497 21.4009 30.5073C21.3746 30.4648 21.3569 30.4176 21.3489 30.3683C21.3408 30.319 21.3425 30.2685 21.354 30.2199C21.3654 30.1713 21.3863 30.1253 21.4154 30.0848C21.4446 30.0442 21.4815 30.0098 21.5239 29.9835L31.0778 23.6173L21.5528 29.118C21.5101 29.1438 21.4628 29.1609 21.4135 29.1684C21.3642 29.1759 21.3139 29.1736 21.2655 29.1616C21.2172 29.1497 21.1716 29.1283 21.1315 29.0988C21.0913 29.0692 21.0574 29.032 21.0316 28.9894C21.0059 28.9467 20.9887 28.8994 20.9813 28.8501C20.9738 28.8008 20.9761 28.7505 20.988 28.7021C21 28.6537 21.0213 28.6082 21.0509 28.568C21.0805 28.5279 21.1176 28.494 21.1603 28.4682L23.6548 26.896L21.4237 28.1866C21.3388 28.2331 21.2393 28.2455 21.1456 28.221C21.0519 28.1966 20.971 28.1373 20.9196 28.0552C20.8682 27.9732 20.8501 27.8745 20.869 27.7796C20.8879 27.6846 20.9424 27.6004 21.0214 27.5443L29.8335 21.5858L21.3721 26.4686C21.2866 26.5172 21.1855 26.5308 21.0902 26.5063C20.995 26.4819 20.9129 26.4214 20.8613 26.3377C20.8097 26.2539 20.7927 26.1534 20.8138 26.0573C20.8348 25.9612 20.8924 25.8771 20.9743 25.8226L26.0773 22.4824L21.5019 25.1249C21.416 25.1753 21.3138 25.1898 21.2172 25.1655C21.1207 25.1412 21.0376 25.0799 20.9858 24.9949C20.934 24.9098 20.9177 24.8078 20.9404 24.7109C20.9631 24.614 21.023 24.5298 21.1072 24.4766L22.6254 23.5019L21.719 24.0257C21.6338 24.0751 21.5327 24.0894 21.437 24.0656C21.3414 24.0418 21.2588 23.9818 21.2066 23.8982C21.1545 23.8146 21.1369 23.714 21.1576 23.6176C21.1782 23.5213 21.2356 23.4368 21.3174 23.3819L25.514 20.5632L22.2261 22.4611C22.1412 22.5077 22.0417 22.52 21.948 22.4956C21.8543 22.4712 21.7734 22.4118 21.722 22.3298C21.6706 22.2477 21.6525 22.1491 21.6714 22.0541C21.6903 21.9591 21.7448 21.875 21.8238 21.8189L24.1316 20.2603L22.9655 20.9337C22.8833 20.9808 22.7865 20.9955 22.694 20.9748C22.6015 20.9541 22.5201 20.8996 22.4658 20.822C22.4115 20.7444 22.3882 20.6492 22.4004 20.5553C22.4127 20.4613 22.4596 20.3753 22.5321 20.3142L25.6294 17.7126C25.5405 17.7422 25.4438 17.7378 25.3579 17.7004C25.272 17.6629 25.203 17.595 25.1642 17.5097C25.1253 17.4245 25.1194 17.3278 25.1476 17.2384C25.1757 17.1491 25.2359 17.0733 25.3166 17.0256L28.9689 14.9175C29.051 14.8713 29.1473 14.8573 29.2391 14.8782C29.331 14.8991 29.4118 14.9534 29.4658 15.0305C29.5198 15.1077 29.5433 15.2021 29.5315 15.2956C29.5198 15.389 29.4738 15.4748 29.4023 15.5362L26.3354 18.112L33.1275 14.1932C33.2123 14.1478 33.3113 14.1362 33.4044 14.161C33.4974 14.1857 33.5776 14.2449 33.6286 14.3265C33.6797 14.4082 33.6978 14.5062 33.6793 14.6007C33.6608 14.6952 33.6071 14.7791 33.529 14.8355L31.2243 16.3948L34.8181 14.3208C34.9031 14.2748 35.0024 14.263 35.0958 14.2877C35.1892 14.3125 35.2696 14.3719 35.3207 14.4539C35.3718 14.5359 35.3898 14.6343 35.3708 14.729C35.3519 14.8237 35.2976 14.9077 35.2189 14.9638L31.0223 17.7832L36.4313 14.6609C36.5168 14.6151 36.6167 14.6038 36.7103 14.6293C36.8039 14.6549 36.8842 14.7153 36.9347 14.7982C36.9851 14.8811 37.0019 14.9802 36.9815 15.0751C36.9612 15.17 36.9053 15.2535 36.8253 15.3084L35.3024 16.2809L37.4933 15.0169C37.5786 14.9705 37.6785 14.9585 37.7723 14.9835C37.8662 15.0085 37.9469 15.0685 37.9978 15.1511C38.0488 15.2338 38.0661 15.3329 38.0463 15.4279C38.0264 15.523 37.9709 15.6068 37.8911 15.6622L32.7904 19.0024L38.7208 15.5787C38.806 15.5282 38.9076 15.513 39.0038 15.5364C39.1 15.5597 39.1833 15.6197 39.2359 15.7036C39.2885 15.7875 39.3062 15.8887 39.2853 15.9854C39.2644 16.0822 39.2065 16.167 39.1239 16.2217L30.3095 22.1772L40.1784 16.479C40.2646 16.427 40.3679 16.4113 40.4656 16.4354C40.5634 16.4596 40.6475 16.5215 40.6995 16.6077C40.7516 16.6939 40.7673 16.7972 40.7431 16.8949C40.719 16.9927 40.657 17.0768 40.5709 17.1289L38.0771 18.7011L40.9216 17.059C41.0069 17.0105 41.1077 16.9969 41.2028 17.0211C41.2979 17.0453 41.38 17.1054 41.4318 17.1888C41.4835 17.2722 41.501 17.3724 41.4804 17.4683C41.4599 17.5643 41.403 17.6486 41.3217 17.7035L31.7724 24.0621L42.0444 18.1408C42.1297 18.093 42.2303 18.0801 42.325 18.1047C42.4196 18.1292 42.5012 18.1894 42.5526 18.2726C42.604 18.3558 42.6213 18.4557 42.6009 18.5514C42.5804 18.647 42.5238 18.7311 42.4429 18.7861L33.2907 24.8061L42.9379 19.237C43.0233 19.19 43.1236 19.1776 43.2179 19.2025C43.3122 19.2274 43.3933 19.2877 43.4444 19.3708C43.4954 19.4539 43.5126 19.5534 43.4922 19.6488C43.4718 19.7442 43.4155 19.8281 43.3349 19.883L34.4089 25.7285L43.6705 20.3818C43.7564 20.3353 43.8569 20.3236 43.9512 20.3494C44.0454 20.3751 44.1261 20.4362 44.1765 20.5199C44.2269 20.6036 44.243 20.7035 44.2216 20.7988C44.2001 20.8941 44.1428 20.9775 44.0614 21.0316L41.7081 22.5036L44.0614 21.1447C44.1469 21.0977 44.2471 21.0853 44.3414 21.1102C44.4357 21.1351 44.5168 21.1954 44.5679 21.2785C44.619 21.3616 44.6361 21.4612 44.6157 21.5565C44.5953 21.6519 44.539 21.7358 44.4585 21.7908L36.2597 27.1268L44.5564 22.3358C44.6418 22.2881 44.7423 22.2751 44.837 22.2997C44.9317 22.3243 45.0132 22.3844 45.0646 22.4676C45.116 22.5509 45.1333 22.6507 45.1129 22.7464C45.0924 22.8421 45.0359 22.9261 44.9549 22.9811L35.8862 28.9708L44.9466 23.7403C45.0325 23.6937 45.133 23.6821 45.2273 23.7078C45.3215 23.7335 45.4023 23.7946 45.4526 23.8783C45.503 23.962 45.5191 24.062 45.4977 24.1573C45.4763 24.2526 45.4189 24.336 45.3375 24.3901L44.5981 24.8532L45.0961 24.5654C45.1811 24.5195 45.2804 24.5077 45.3738 24.5324C45.4672 24.5571 45.5477 24.6165 45.5988 24.6985C45.6499 24.7805 45.6678 24.8789 45.6489 24.9737C45.63 25.0684 45.5756 25.1524 45.497 25.2084L36.7493 31.0728L45.2199 26.1824C45.3054 26.1366 45.4053 26.1253 45.4989 26.1509C45.5926 26.1764 45.6728 26.2369 45.7233 26.3198C45.7737 26.4027 45.7905 26.5018 45.7702 26.5967C45.7498 26.6915 45.6939 26.775 45.6139 26.83L42.2486 28.9875L45.1842 27.2923C45.2703 27.24 45.3736 27.2241 45.4714 27.2481C45.5692 27.272 45.6535 27.3338 45.7057 27.4198C45.758 27.5059 45.7739 27.6092 45.75 27.707C45.7261 27.8048 45.6643 27.8891 45.5782 27.9414L43.7039 29.137L45.0551 28.3574C45.1399 28.3087 45.2401 28.2947 45.3349 28.3181C45.4298 28.3414 45.512 28.4005 45.5644 28.4829C45.6168 28.5654 45.6354 28.6648 45.6164 28.7607C45.5973 28.8565 45.542 28.9412 45.462 28.9973L38.6335 33.7526L44.5412 30.3418C44.6263 30.2898 44.7285 30.2734 44.8256 30.2962C44.9227 30.3189 45.007 30.379 45.0602 30.4634C45.1134 30.5478 45.1312 30.6497 45.1098 30.7472C45.0884 30.8446 45.0295 30.9297 44.9458 30.984L41.3862 33.4133L43.795 32.0225C43.8794 31.973 43.9798 31.958 44.0751 31.9807C44.1704 32.0034 44.2532 32.062 44.3062 32.1444C44.3592 32.2267 44.3784 32.3264 44.3596 32.4225C44.3409 32.5186 44.2857 32.6038 44.2057 32.6602L41.8349 34.3531L42.4938 33.9735C42.537 33.9461 42.5853 33.9276 42.6358 33.9193C42.6863 33.911 42.738 33.913 42.7877 33.9252C42.8374 33.9374 42.8842 33.9595 42.9251 33.9902C42.9661 34.0209 43.0004 34.0596 43.026 34.1039C43.0517 34.1482 43.068 34.1973 43.0742 34.2481C43.0804 34.2989 43.0762 34.3504 43.062 34.3996C43.0477 34.4488 43.0236 34.4946 42.9912 34.5342C42.9588 34.5738 42.9187 34.6065 42.8734 34.6302L35.4163 38.9345C35.332 38.9822 35.2326 38.9958 35.1386 38.9726C35.0446 38.9494 34.963 38.8912 34.9105 38.8098C34.858 38.7284 34.8387 38.63 34.8563 38.5348C34.874 38.4396 34.9274 38.3548 35.0056 38.2976L37.3741 36.6055L33.0819 39.0841C33.0244 39.1173 32.9593 39.1348 32.8929 39.135Z" fill="#C0DBF0"/>
<path d="M0.986084 16.8502V29.0094C1.41348 41.2886 19.6611 42.6566 21.3615 30.3471C21.936 32.1906 22.9376 33.8725 24.285 35.2557C24.247 35.4455 24.4087 35.5821 24.6137 35.5882C36.4328 46.6717 53.2175 29.9705 42.3018 18.0094C42.3041 17.9697 42.2982 17.93 42.2846 17.8926C42.271 17.8553 42.2499 17.8211 42.2226 17.7922C42.1953 17.7632 42.1624 17.7402 42.1259 17.7244C42.0894 17.7087 42.05 17.7005 42.0103 17.7005C35.9045 11.1346 24.3002 14.0497 21.5657 22.3965C20.6631 13.97 25.0381 -0.75738 15.3408 -4.83475C7.39858 -8.15525 0.986084 -1.30321 0.986084 6.2556V16.8502ZM45.0924 26.6531C45.3308 36.6965 32.2219 41.9627 25.2924 35.1266L41.7977 18.6251C43.9048 20.7672 45.0884 23.6498 45.0947 26.6546L45.0924 26.6531ZM21.5589 26.2074C21.543 16.4099 34.4135 11.2857 41.2967 18.1423L24.7929 34.6507C23.6896 33.551 22.8314 32.2303 22.2749 30.7754C21.7183 29.3205 21.4758 27.7642 21.5635 26.209L21.5589 26.2074ZM20.7193 26.3858C22.2414 40.8855 3.61273 42.8418 1.82114 28.8295V17.1197H20.7239L20.7193 26.3858ZM5.27146 -2.71521C6.48413 -3.66889 7.90948 -4.3151 9.42593 -4.59871C10.9424 -4.88232 12.5049 -4.79493 13.9803 -4.34398C15.4557 -3.89303 16.8001 -3.09191 17.8988 -2.00896C18.9976 -0.926002 19.8181 0.406653 20.2904 1.87533C21.2773 6.60936 20.4862 11.6106 20.7239 16.4289H1.8257C2.11114 10.3618 -4.51803e-05 1.69314 5.27146 -2.71521Z" fill="#262626"/>
</g>
<defs>
<clipPath id="clip0_802_3456">
<rect width="45.5487" height="45.5487" fill="white" transform="translate(0.647217 -6)"/>
</clipPath>
</defs>
</svg>
