<svg width="66" height="82" viewBox="0 0 66 82" fill="none" xmlns="http://www.w3.org/2000/svg">
<g style="mix-blend-mode:color-burn">
<path d="M21.8249 73.828C18.0147 73.828 14.0003 72.3979 10.5323 69.645C2.18666 63.0155 -0.627563 51.2632 3.00896 38.2085C3.35117 36.9878 4.61271 36.2778 5.8334 36.6149C7.05409 36.9571 7.76914 38.2187 7.42694 39.4394C4.30116 50.6605 6.52802 60.6099 13.3823 66.0544C17.5193 69.3386 22.5451 70.1711 26.1918 68.1792C30.048 66.0698 31.7896 61.1615 31.095 54.3634C29.8488 42.1157 33.6385 31.9416 39.7215 31.201C43.0567 30.7924 49.0631 32.9733 51.7701 52.1008C51.9489 53.3572 51.0755 54.5166 49.819 54.6903C48.5626 54.8691 47.4032 53.9957 47.2295 52.7392C45.207 38.4281 41.4428 35.6036 40.2783 35.7467C38.1127 36.0122 34.517 42.652 35.6611 53.8884C36.5396 62.515 33.8888 69.1853 28.3932 72.1936C26.3961 73.2918 24.1488 73.828 21.8249 73.828Z" fill="#CBF3F0"/>
<path d="M21.8268 74.3388C17.8276 74.3388 13.7059 72.8116 10.2175 70.0434C1.70332 63.2811 -1.1773 51.3296 2.52052 38.0705C2.93423 36.5792 4.4869 35.7058 5.97318 36.1246C6.69333 36.3238 7.29602 36.7937 7.66376 37.4474C8.03149 38.1012 8.12343 38.8571 7.92424 39.5773C4.84953 50.5941 7.0151 60.3443 13.7059 65.6561C17.6795 68.8125 22.4857 69.6297 25.9536 67.7348C29.6157 65.7327 31.2654 61.0031 30.5963 54.4196C29.3246 41.8909 33.3084 31.4717 39.6723 30.7005C43.1965 30.2714 49.5196 32.4727 52.2878 52.0395C52.3951 52.7801 52.201 53.5207 51.7515 54.1183C51.3021 54.7158 50.6432 55.104 49.9026 55.2113C49.162 55.3134 48.4215 55.1244 47.8239 54.675C47.2263 54.2255 46.8381 53.5666 46.736 52.8261C44.7543 38.8111 41.1382 36.1604 40.3516 36.2727C38.5896 36.4872 35.045 42.7286 36.1788 53.8578C37.0777 62.6988 34.335 69.5531 28.6504 72.6635C26.5921 73.7718 24.2988 74.3388 21.8268 74.3388ZM5.22238 37.0439C4.44093 37.0439 3.72589 37.5598 3.50627 38.3464C-0.0740799 51.1968 2.67374 62.7499 10.8559 69.2466C14.1656 71.8719 18.0626 73.3173 21.8268 73.3173C24.1303 73.3173 26.255 72.7912 28.1499 71.7544C33.4565 68.8533 36.0103 62.3617 35.1522 53.9497C34.0439 43.0452 37.4097 35.5883 40.2188 35.2461C41.9452 35.0316 45.7196 38.3974 47.7371 52.6728C47.8035 53.1427 48.0486 53.5615 48.4317 53.8476C48.8147 54.1336 49.2846 54.2562 49.7545 54.1898C50.2244 54.1234 50.6432 53.8782 50.9292 53.4951C51.2153 53.1172 51.3378 52.6473 51.2714 52.1723C48.6258 33.4687 42.9411 31.3236 39.7949 31.7066C33.9928 32.4115 30.3972 42.3404 31.6127 54.3072C32.3278 61.3249 30.4891 66.412 26.444 68.6235C22.6185 70.7125 17.368 69.8595 13.0726 66.4477C6.04979 60.8703 3.75653 50.7218 6.9436 39.2963C7.07129 38.8367 7.01511 38.3566 6.78016 37.9429C6.54522 37.5292 6.16726 37.2278 5.70759 37.1001C5.53904 37.0644 5.38071 37.0439 5.22238 37.0439Z" fill="#3D2D2D"/>
<path d="M49.7234 58.6742C52.2339 58.6742 54.2691 56.639 54.2691 54.1285C54.2691 51.618 52.2339 49.5829 49.7234 49.5829C47.2129 49.5829 45.1777 51.618 45.1777 54.1285C45.1777 56.639 47.2129 58.6742 49.7234 58.6742Z" fill="#CBF3F0"/>
<path d="M49.7224 59.1849C46.9337 59.1849 44.666 56.9172 44.666 54.1285C44.666 51.3398 46.9337 49.0721 49.7224 49.0721C52.5111 49.0721 54.7788 51.3398 54.7788 54.1285C54.7788 56.9172 52.5111 59.1849 49.7224 59.1849ZM49.7224 50.0936C47.4956 50.0936 45.6875 51.9016 45.6875 54.1285C45.6875 56.3554 47.4956 58.1634 49.7224 58.1634C51.9493 58.1634 53.7573 56.3554 53.7573 54.1285C53.7573 51.9016 51.9493 50.0936 49.7224 50.0936Z" fill="#3D2D2D"/>
<path d="M49.7208 56.2072C50.8689 56.2072 51.7996 55.2765 51.7996 54.1285C51.7996 52.9804 50.8689 52.0497 49.7208 52.0497C48.5728 52.0497 47.6421 52.9804 47.6421 54.1285C47.6421 55.2765 48.5728 56.2072 49.7208 56.2072Z" fill="#B99877"/>
<path d="M49.7218 56.718C48.2968 56.718 47.1323 55.5586 47.1323 54.1285C47.1323 52.7035 48.2917 51.539 49.7218 51.539C51.1519 51.539 52.3113 52.6984 52.3113 54.1285C52.3113 55.5586 51.1468 56.718 49.7218 56.718ZM49.7218 52.5605C48.8587 52.5605 48.1538 53.2653 48.1538 54.1285C48.1538 54.9917 48.8587 55.6965 49.7218 55.6965C50.585 55.6965 51.2898 54.9917 51.2898 54.1285C51.2898 53.2653 50.585 52.5605 49.7218 52.5605Z" fill="#3D2D2D"/>
<path d="M5.47041 41.1095C3.51425 41.1095 1.5683 40.3127 0.163738 38.7702C-10.659 26.9107 -0.959907 10.2756 -0.541094 9.57586C-0.132495 8.87613 0.618305 8.45221 1.42529 8.45221H5.51127C6.77793 8.45221 7.80453 9.47881 7.80453 10.7455C7.80453 12.0121 6.77793 13.0387 5.51127 13.0387H2.80941C1.05755 16.5986 -3.57494 27.8658 3.55511 35.6751C4.4387 36.6404 5.89433 36.8038 6.95158 36.0479C11.8752 32.534 22.841 23.6368 22.5243 14.3667L18.8929 13.3963C17.6722 13.0694 16.9418 11.8129 17.2687 10.5871C17.5956 9.36134 18.8571 8.64119 20.0778 8.96296L25.2364 10.342C26.1046 10.5769 26.7584 11.2971 26.9065 12.1858C28.8576 24.0607 16.9061 34.5668 9.61258 39.7764C8.36125 40.6753 6.91072 41.1095 5.47041 41.1095Z" fill="#F0F1F1"/>
<path d="M5.46946 41.6202C3.309 41.6202 1.24047 40.706 -0.215163 39.1125C-11.2882 26.9771 -1.41031 10.0254 -0.986392 9.3103C-0.480752 8.46757 0.443702 7.9415 1.42434 7.9415H5.51032C7.05789 7.9415 8.31433 9.19794 8.31433 10.7455C8.31433 12.2931 7.05789 13.5495 5.51032 13.5495H3.12513C1.41412 17.1248 -2.83019 27.9271 3.927 35.3329C4.63184 36.1093 5.80656 36.2369 6.64929 35.6343C11.3073 32.3093 22.0177 23.6879 22.0177 14.76L18.7591 13.8866C17.2677 13.4882 16.3739 11.9458 16.7774 10.4544C17.1758 8.96299 18.7183 8.07429 20.2097 8.47268L25.3682 9.8517C26.4306 10.1377 27.2324 11.0213 27.4112 12.1041C29.4031 24.2497 17.3035 34.9192 9.91297 40.1952C8.60546 41.1299 7.07321 41.6202 5.46946 41.6202ZM1.42434 8.96299C0.801226 8.96299 0.213865 9.29498 -0.107906 9.83127C-0.516505 10.5208 -10.0317 26.8392 0.535636 38.423C1.79718 39.8071 3.59502 40.5987 5.46436 40.5987C6.85359 40.5987 8.18154 40.1748 9.31029 39.3678C16.5118 34.2297 28.305 23.8768 26.3999 12.2726C26.2876 11.5831 25.7768 11.0213 25.1026 10.8374L19.9441 9.45842C18.9941 9.20815 18.0134 9.76998 17.7632 10.72C17.5078 11.67 18.0747 12.6455 19.0247 12.9009L22.6561 13.8713C22.8758 13.9275 23.029 14.1216 23.0341 14.3463C23.361 23.8973 12.1041 32.9937 7.24687 36.4617C5.98021 37.3657 4.23345 37.1716 3.1762 36.0173C-4.20921 27.922 0.678646 16.2054 2.3539 12.8089C2.44073 12.6353 2.61949 12.5229 2.81357 12.5229H5.51543C6.49607 12.5229 7.29794 11.721 7.29794 10.7404C7.29794 9.75976 6.49096 8.96299 5.51032 8.96299H1.42434Z" fill="#3D2D2D"/>
<path d="M12.0282 67.8063C11.9873 67.8063 11.9465 67.796 11.9107 67.7807C8.407 66.177 6.05756 60.5587 5.96051 60.3187C5.89922 60.1706 5.97073 60.0071 6.11374 59.9458C6.25675 59.8845 6.42529 59.9561 6.48658 60.0991C6.51212 60.1552 8.85135 65.7479 12.1457 67.2546C12.2887 67.321 12.3551 67.4896 12.2887 67.6326C12.2427 67.745 12.1406 67.8063 12.0282 67.8063Z" fill="white"/>
<path d="M33.3828 48.8218C33.2296 48.8218 33.1019 48.6992 33.0968 48.5409C32.9538 42.7235 34.9151 39.1585 34.9968 39.0052C35.0734 38.8673 35.2471 38.8163 35.385 38.8929C35.5229 38.9695 35.5739 39.1431 35.4973 39.281C35.4769 39.3168 33.5309 42.8716 33.6688 48.5205C33.674 48.6788 33.5463 48.8116 33.3879 48.8116C33.3879 48.8218 33.3879 48.8218 33.3828 48.8218Z" fill="white"/>
<path d="M27.7212 70.0995C27.6191 70.0995 27.5169 70.0433 27.4658 69.9463C27.3943 69.8084 27.4454 69.6347 27.5833 69.5581C30.0553 68.2506 31.9604 64.7673 31.9808 64.7316C32.0575 64.5937 32.2311 64.5426 32.369 64.6141C32.5069 64.6907 32.558 64.8643 32.4865 65.0022C32.4048 65.1504 30.4792 68.6796 27.854 70.0638C27.8131 70.0893 27.7672 70.0995 27.7212 70.0995Z" fill="white"/>
</g>
</svg>
