<svg width="47" height="46" viewBox="0 0 47 46" fill="none" xmlns="http://www.w3.org/2000/svg">
<g opacity="0.2" clip-path="url(#clip0_817_1821)">
<path d="M10.0042 45.078C9.9234 45.078 9.84475 45.0522 9.77966 45.0044C9.71456 44.9566 9.6664 44.8893 9.64219 44.8123C9.61797 44.7352 9.61897 44.6525 9.64502 44.576C9.67107 44.4996 9.72082 44.4334 9.78704 44.3872L13.0514 42.1166L8.57241 44.703C8.48679 44.7543 8.38442 44.7698 8.28746 44.7461C8.1905 44.7225 8.10675 44.6616 8.05435 44.5767C8.00195 44.4917 7.98511 44.3896 8.00748 44.2923C8.02985 44.195 8.08962 44.1105 8.17386 44.057L9.39381 43.2576L7.52707 44.3341C7.44252 44.3809 7.34329 44.3937 7.24962 44.3699C7.15595 44.346 7.0749 44.2874 7.023 44.2058C6.9711 44.1243 6.95226 44.026 6.97031 43.9311C6.98837 43.8362 7.04196 43.7517 7.12017 43.6949L13.4347 39.2918L6.04902 43.5597C5.9637 43.6083 5.86291 43.6219 5.76779 43.5977C5.67267 43.5735 5.59061 43.5134 5.53885 43.43C5.48709 43.3466 5.46964 43.2464 5.49017 43.1504C5.51069 43.0545 5.5676 42.9702 5.64895 42.9152L10.7147 39.5515L5.03935 42.8249C4.95404 42.8734 4.85325 42.887 4.75812 42.8628C4.663 42.8386 4.58095 42.7785 4.52919 42.6951C4.47743 42.6118 4.45998 42.5116 4.4805 42.4156C4.50103 42.3196 4.55794 42.2353 4.63928 42.1804L10.9402 37.9831L4.09877 41.9306C4.01397 41.9767 3.91481 41.9887 3.82145 41.9643C3.72809 41.9398 3.64754 41.8808 3.5962 41.799C3.54485 41.7173 3.52655 41.6191 3.54503 41.5244C3.56351 41.4297 3.61737 41.3456 3.69567 41.2891L12.2323 35.4832L3.14149 40.7319C3.05644 40.779 2.95656 40.7917 2.86244 40.7673C2.76832 40.743 2.68714 40.6834 2.63564 40.601C2.58414 40.5185 2.56624 40.4194 2.58564 40.3242C2.60504 40.2289 2.66026 40.1447 2.7399 40.0889L11.672 34.072L2.40436 39.4224C2.36184 39.4484 2.31461 39.4658 2.26538 39.4736C2.21614 39.4814 2.16585 39.4793 2.11738 39.4677C2.01951 39.4441 1.935 39.3826 1.88245 39.2968C1.8299 39.2109 1.81361 39.1077 1.83718 39.0098C1.86074 38.9119 1.92222 38.8274 2.00809 38.7749L7.97193 34.9207L1.98379 38.3809C1.89828 38.4295 1.79723 38.443 1.70194 38.4186C1.60665 38.3941 1.52457 38.3337 1.47299 38.2499C1.42141 38.1661 1.40437 38.0656 1.42545 37.9695C1.44653 37.8735 1.50409 37.7893 1.586 37.7348L9.49629 32.5529L1.64673 37.085C1.56137 37.1308 1.46171 37.1423 1.36818 37.117C1.27465 37.0917 1.19433 37.0316 1.14367 36.949C1.09302 36.8664 1.07586 36.7676 1.09571 36.6728C1.11556 36.5779 1.17093 36.4943 1.25046 36.439L8.34771 31.8408L1.49035 35.7982C1.40491 35.8453 1.30464 35.8577 1.21033 35.8328C1.11603 35.8079 1.03493 35.7476 0.983858 35.6645C0.932788 35.5814 0.915667 35.4818 0.936048 35.3865C0.956428 35.2911 1.01275 35.2072 1.09332 35.1522L8.78953 30.1419L1.47061 34.3673C1.38485 34.4131 1.28477 34.4243 1.19101 34.3985C1.09725 34.3727 1.01697 34.3119 0.966722 34.2286C0.916477 34.1454 0.900101 34.046 0.920973 33.951C0.941844 33.8561 0.998372 33.7727 1.07889 33.7182L3.95833 31.8962L1.46985 33.3348C1.38429 33.3806 1.28443 33.3919 1.1908 33.3664C1.09717 33.3408 1.01688 33.2804 0.966438 33.1975C0.915991 33.1146 0.89922 33.0155 0.919571 32.9206C0.939922 32.8257 0.995849 32.7422 1.07586 32.6873L4.18835 30.6945L1.46985 32.2637C1.3846 32.3131 1.28348 32.3274 1.18786 32.3036C1.09224 32.2798 1.00962 32.2198 0.957473 32.1362C0.905321 32.0526 0.887722 31.952 0.908398 31.8556C0.929074 31.7593 0.986403 31.6748 1.06827 31.6199L6.71782 27.812L1.46834 30.8426C1.38316 30.8903 1.28285 30.9034 1.18828 30.8791C1.0937 30.8548 1.01212 30.795 0.960511 30.7121C0.908898 30.6292 0.891217 30.5296 0.911144 30.434C0.931071 30.3384 0.987072 30.2542 1.06751 30.1988L4.3713 27.9783L1.4653 29.656C1.38068 29.7022 1.28165 29.7145 1.18831 29.6903C1.09497 29.6662 1.01432 29.6074 0.962722 29.526C0.911129 29.4445 0.892464 29.3465 0.910515 29.2518C0.928566 29.1571 0.981981 29.0728 1.05992 29.016L3.97807 26.996L1.46758 28.4467C1.38315 28.4948 1.28347 28.5088 1.18908 28.4856C1.09469 28.4625 1.01277 28.404 0.960214 28.3222C0.907657 28.2405 0.888463 28.1417 0.906589 28.0462C0.924714 27.9507 0.978778 27.8658 1.05764 27.809L3.09366 26.3606L1.46682 27.2989C1.38302 27.3455 1.28466 27.3587 1.19152 27.3358C1.09838 27.3129 1.01736 27.2556 0.96476 27.1754C0.912157 27.0952 0.891867 26.9981 0.907971 26.9035C0.924075 26.809 0.975378 26.724 1.05156 26.6657L2.39753 25.6675L1.46682 26.2042C1.38709 26.25 1.29341 26.2654 1.20321 26.2474C1.113 26.2294 1.03241 26.1792 0.976409 26.1062C0.920017 26.0332 0.892149 25.9422 0.898018 25.8501C0.903886 25.758 0.943087 25.6712 1.00829 25.606L2.80519 23.8151L1.4653 24.5887C1.39441 24.6295 1.31226 24.6463 1.23106 24.6366C1.14987 24.6269 1.07397 24.5912 1.01468 24.5349C0.955384 24.4786 0.915858 24.4047 0.901986 24.3241C0.888114 24.2435 0.900638 24.1606 0.937693 24.0877L1.52451 22.9361C1.45509 22.9396 1.38606 22.9238 1.32517 22.8902C1.26428 22.8567 1.21396 22.8068 1.17986 22.7463C1.15482 22.7031 1.13855 22.6554 1.13198 22.6059C1.12541 22.5564 1.12867 22.5061 1.14158 22.4578C1.15448 22.4096 1.17678 22.3644 1.20718 22.3248C1.23759 22.2852 1.27552 22.2519 1.31878 22.227L2.21761 21.7116C2.28853 21.6692 2.37135 21.6511 2.45348 21.6601C2.53561 21.669 2.61257 21.7046 2.67268 21.7612C2.73279 21.8179 2.77277 21.8926 2.78654 21.9741C2.80032 22.0556 2.78714 22.1393 2.74901 22.2126L2.19863 23.2936L4.93687 21.7116C5.0166 21.6672 5.10963 21.6531 5.19893 21.6718C5.28822 21.6905 5.3678 21.7407 5.42311 21.8132C5.47842 21.8857 5.50575 21.9758 5.5001 22.0668C5.49445 22.1579 5.4562 22.2438 5.39235 22.309L3.59774 24.0968L7.73659 21.7116C7.82043 21.6639 7.91927 21.6499 8.01303 21.6725C8.1068 21.6951 8.18845 21.7525 8.24141 21.8331C8.29437 21.9137 8.31466 22.0114 8.29817 22.1064C8.28167 22.2015 8.22963 22.2866 8.15261 22.3447L6.8074 23.3392L9.63522 21.707C9.71964 21.6588 9.81932 21.6449 9.91371 21.6681C10.0081 21.6912 10.09 21.7497 10.1426 21.8314C10.1951 21.9132 10.2143 22.012 10.1962 22.1075C10.1781 22.203 10.124 22.2879 10.0452 22.3447L8.00989 23.7939L11.6249 21.7062C11.7097 21.6584 11.8097 21.6449 11.9041 21.6687C11.9986 21.6924 12.0803 21.7515 12.1323 21.8338C12.1844 21.9161 12.2028 22.0153 12.1839 22.1108C12.1649 22.2063 12.1099 22.2908 12.0303 22.347L9.11444 24.3686L13.7225 21.7078C13.8074 21.6618 13.9068 21.65 14.0001 21.6747C14.0935 21.6994 14.174 21.7589 14.2251 21.8409C14.2762 21.9228 14.2941 22.0212 14.2752 22.116C14.2563 22.2107 14.202 22.2947 14.1233 22.3508L10.8126 24.5735L15.779 21.707C15.864 21.6599 15.9639 21.6472 16.058 21.6716C16.1521 21.696 16.2333 21.7555 16.2848 21.838C16.3363 21.9204 16.3542 22.0195 16.3348 22.1148C16.3154 22.2101 16.2602 22.2942 16.1806 22.35L10.531 26.1594L18.2447 21.704C18.3303 21.6569 18.4308 21.6446 18.5253 21.6698C18.6197 21.6949 18.7008 21.7555 18.7517 21.839C18.8026 21.9224 18.8193 22.0223 18.7984 22.1178C18.7775 22.2132 18.7205 22.297 18.6394 22.3515L15.5307 24.3397L20.0545 21.7275C20.1405 21.6793 20.2419 21.6665 20.3372 21.6917C20.4325 21.7169 20.5142 21.7782 20.5651 21.8627C20.616 21.9471 20.632 22.048 20.6098 22.1441C20.5877 22.2401 20.529 22.3238 20.4462 22.3773L17.5569 24.2031L20.7149 22.3811C20.8005 22.3333 20.9013 22.3205 20.9961 22.3453C21.091 22.3701 21.1725 22.4306 21.2237 22.5142C21.2749 22.5978 21.2918 22.6979 21.2709 22.7937C21.2499 22.8895 21.1927 22.9734 21.1112 23.0279L13.4165 28.0383L20.7802 23.7871C20.8659 23.7383 20.9673 23.7248 21.0628 23.7494C21.1583 23.774 21.2405 23.8349 21.2919 23.9191C21.3433 24.0033 21.36 24.1042 21.3383 24.2004C21.3166 24.2966 21.2583 24.3806 21.1757 24.4346L14.0884 29.0244L20.784 25.1596C20.8693 25.1132 20.9692 25.1012 21.063 25.1262C21.1569 25.1512 21.2376 25.2111 21.2886 25.2938C21.3395 25.3765 21.3569 25.4755 21.337 25.5706C21.3171 25.6657 21.2616 25.7495 21.1818 25.8049L13.27 30.9875L20.7855 26.6498C20.8713 26.601 20.9726 26.5875 21.0681 26.6121C21.1637 26.6368 21.2458 26.6976 21.2972 26.7818C21.3487 26.866 21.3653 26.9669 21.3436 27.0631C21.3219 27.1594 21.2636 27.2434 21.1811 27.2973L15.221 31.1462L20.784 27.9365C20.8693 27.8871 20.9704 27.8728 21.066 27.8966C21.1616 27.9204 21.2442 27.9804 21.2964 28.064C21.3486 28.1476 21.3661 28.2483 21.3455 28.3446C21.3248 28.4409 21.2675 28.5255 21.1856 28.5803L12.2512 34.5958L20.784 29.6704C20.869 29.6226 20.9691 29.6094 21.0636 29.6334C21.1581 29.6574 21.2397 29.7169 21.2916 29.7995C21.3434 29.8821 21.3615 29.9814 21.342 30.077C21.3226 30.1725 21.2671 30.2569 21.1871 30.3127L12.646 36.1186L20.784 31.4225C20.8691 31.3761 20.9688 31.3639 21.0626 31.3886C21.1563 31.4133 21.2371 31.473 21.2883 31.5553C21.3395 31.6377 21.3572 31.7365 21.3378 31.8315C21.3184 31.9266 21.2634 32.0106 21.1841 32.0663L14.8877 36.2628L20.784 32.8588C20.8693 32.8118 20.9693 32.7993 21.0635 32.8239C21.1577 32.8486 21.2388 32.9085 21.2901 32.9912C21.3414 33.074 21.3589 33.1733 21.339 33.2686C21.3192 33.3639 21.2634 33.448 21.1833 33.5034L16.116 36.8709L20.784 34.1767C20.8686 34.1299 20.9678 34.1171 21.0615 34.1409C21.1551 34.1648 21.2362 34.2234 21.2881 34.3049C21.34 34.3865 21.3588 34.4847 21.3408 34.5797C21.3227 34.6746 21.2691 34.7591 21.1909 34.8159L14.8764 39.219L20.7013 35.8567C20.7866 35.809 20.8872 35.796 20.9819 35.8206C21.0765 35.8451 21.1581 35.9053 21.2095 35.9885C21.2609 36.0717 21.2782 36.1716 21.2578 36.2673C21.2373 36.3629 21.1807 36.447 21.0998 36.502L19.8799 37.3006L20.4963 36.9453C20.581 36.898 20.6805 36.8849 20.7746 36.9087C20.8686 36.9325 20.95 36.9914 21.0019 37.0733C21.0539 37.1552 21.0726 37.2539 21.0541 37.3491C21.0356 37.4443 20.9813 37.5288 20.9024 37.5853L17.6381 39.8559L19.974 38.5076C20.0567 38.4593 20.1546 38.4441 20.248 38.4649C20.3415 38.4857 20.4236 38.5411 20.478 38.62C20.5323 38.6988 20.5549 38.7952 20.5411 38.89C20.5273 38.9848 20.4782 39.0708 20.4037 39.1309L17.0536 41.8441L18.3077 41.1206C18.3509 41.0932 18.3992 41.0747 18.4497 41.0664C18.5002 41.0581 18.5519 41.0601 18.6016 41.0723C18.6513 41.0844 18.6981 41.1066 18.739 41.1373C18.78 41.168 18.8143 41.2067 18.8399 41.251C18.8656 41.2953 18.8819 41.3444 18.8881 41.3952C18.8943 41.446 18.8901 41.4975 18.8759 41.5467C18.8616 41.5959 18.8375 41.6416 18.8051 41.6813C18.7727 41.7209 18.7326 41.7535 18.6873 41.7773L13.2806 44.8989C13.1979 44.9475 13.0997 44.9629 13.0061 44.942C12.9124 44.9212 12.8301 44.8656 12.7757 44.7865C12.7213 44.7074 12.6989 44.6107 12.713 44.5157C12.7271 44.4208 12.7767 44.3347 12.8517 44.2749L16.1995 41.5594L10.1939 45.0272C10.1361 45.0602 10.0707 45.0777 10.0042 45.078Z" fill="#2963BF"/>
<path d="M32.7457 45.1349C32.6645 45.1351 32.5854 45.1093 32.5199 45.0612C32.4545 45.0131 32.4063 44.9453 32.3822 44.8677C32.3582 44.7902 32.3596 44.707 32.3864 44.6303C32.4131 44.5537 32.4638 44.4876 32.5308 44.4418L36.0927 42.0126L31.1052 44.8913C31.0204 44.9399 30.9202 44.954 30.8254 44.9306C30.7305 44.9072 30.6483 44.8481 30.5959 44.7657C30.5435 44.6833 30.5249 44.5838 30.5439 44.488C30.563 44.3922 30.6183 44.3074 30.6983 44.2513L37.5306 39.4953L29.1268 44.3424C29.041 44.3903 28.94 44.4032 28.845 44.3781C28.7499 44.3531 28.6683 44.2922 28.6173 44.2082C28.5662 44.1242 28.5497 44.0237 28.5713 43.9278C28.5928 43.8319 28.6508 43.7481 28.7328 43.6941L30.6079 42.4969L28.1384 43.9226C28.0529 43.9684 27.953 43.9797 27.8594 43.9541C27.7657 43.9286 27.6854 43.8682 27.635 43.7852C27.5846 43.7023 27.5678 43.6033 27.5881 43.5084C27.6085 43.4135 27.6644 43.33 27.7444 43.275L31.1158 41.116L27.1553 43.4026C27.0701 43.4503 26.9698 43.4634 26.8753 43.4391C26.7807 43.4148 26.6991 43.355 26.6475 43.2721C26.5959 43.1892 26.5782 43.0896 26.5981 42.994C26.6181 42.8984 26.6741 42.8142 26.7545 42.7588L35.5029 36.8944L25.8215 42.484C25.7354 42.5314 25.6344 42.5436 25.5395 42.518C25.4446 42.4924 25.3634 42.431 25.3129 42.3468C25.2623 42.2625 25.2464 42.1619 25.2685 42.0662C25.2906 41.9705 25.349 41.887 25.4313 41.8334L26.1715 41.3711L25.1846 41.9412C25.0991 41.9908 24.9977 42.005 24.9019 41.981C24.8061 41.957 24.7234 41.8966 24.6714 41.8126C24.6194 41.7286 24.6023 41.6276 24.6235 41.5312C24.6448 41.4347 24.7028 41.3503 24.7853 41.2959L33.8495 35.3093L24.1651 40.9004C24.0794 40.9502 23.9776 40.9646 23.8815 40.9404C23.7854 40.9162 23.7026 40.8553 23.6507 40.7709C23.5989 40.6864 23.5821 40.585 23.6041 40.4884C23.626 40.3917 23.6848 40.3075 23.768 40.2536L31.9637 34.9206L23.374 39.8794C23.288 39.9276 23.1866 39.9404 23.0913 39.9152C22.996 39.8899 22.9143 39.8286 22.8634 39.7442C22.8125 39.6598 22.7965 39.5589 22.8187 39.4628C22.8408 39.3668 22.8995 39.2831 22.9823 39.2295L25.3501 37.7485L22.9079 39.1582C22.8224 39.2068 22.7213 39.2203 22.626 39.1959C22.5308 39.1715 22.4487 39.111 22.3971 39.0272C22.3455 38.9435 22.3285 38.843 22.3496 38.7469C22.3706 38.6508 22.4282 38.5666 22.5101 38.5122L31.4384 32.6667L22.2831 37.9519C22.1978 37.9983 22.098 38.0103 22.0041 37.9853C21.9103 37.9604 21.8296 37.9004 21.7786 37.8177C21.7276 37.735 21.7103 37.636 21.7302 37.5409C21.75 37.4458 21.8055 37.362 21.8853 37.3066L31.0323 31.2866L21.7775 36.6302C21.7351 36.6566 21.6878 36.6743 21.6385 36.6823C21.5892 36.6904 21.5388 36.6887 21.4902 36.6772C21.4415 36.6658 21.3956 36.6449 21.355 36.6158C21.3145 36.5866 21.28 36.5497 21.2537 36.5073C21.2274 36.4648 21.2097 36.4176 21.2017 36.3682C21.1936 36.3189 21.1953 36.2685 21.2067 36.2199C21.2182 36.1712 21.239 36.1253 21.2682 36.0848C21.2974 36.0442 21.3342 36.0098 21.3767 35.9834L30.9305 29.6173L21.4056 35.118C21.3629 35.1438 21.3156 35.1609 21.2663 35.1684C21.217 35.1759 21.1667 35.1736 21.1183 35.1616C21.0699 35.1497 21.0244 35.1283 20.9842 35.0988C20.9441 35.0692 20.9102 35.032 20.8844 34.9893C20.8586 34.9467 20.8415 34.8994 20.834 34.8501C20.8266 34.8008 20.8289 34.7505 20.8408 34.7021C20.8528 34.6537 20.8741 34.6082 20.9037 34.568C20.9332 34.5279 20.9704 34.494 21.0131 34.4682L23.5076 32.896L21.2765 34.1866C21.1916 34.2331 21.0921 34.2454 20.9984 34.221C20.9046 34.1966 20.8238 34.1373 20.7724 34.0552C20.721 33.9732 20.7029 33.8745 20.7218 33.7796C20.7407 33.6846 20.7952 33.6004 20.8742 33.5443L29.6863 27.5858L21.2249 32.4686C21.1394 32.5172 21.0383 32.5307 20.943 32.5063C20.8477 32.4819 20.7657 32.4214 20.7141 32.3376C20.6625 32.2539 20.6455 32.1534 20.6665 32.0573C20.6876 31.9612 20.7452 31.877 20.8271 31.8226L25.9301 28.4823L21.3547 31.1249C21.2688 31.1753 21.1666 31.1898 21.07 31.1655C20.9735 31.1412 20.8904 31.0799 20.8386 30.9948C20.7868 30.9098 20.7705 30.8078 20.7932 30.7109C20.8159 30.614 20.8758 30.5298 20.9599 30.4766L22.4782 29.5019L21.5718 30.0257C21.4866 30.0751 21.3854 30.0894 21.2898 30.0656C21.1942 30.0418 21.1116 29.9818 21.0594 29.8982C21.0073 29.8146 20.9897 29.714 21.0104 29.6176C21.031 29.5213 21.0884 29.4368 21.1702 29.3819L25.3668 26.5632L22.0789 28.4611C21.994 28.5076 21.8945 28.52 21.8008 28.4956C21.7071 28.4711 21.6262 28.4118 21.5748 28.3298C21.5234 28.2477 21.5053 28.1491 21.5242 28.0541C21.5431 27.9591 21.5976 27.8749 21.6766 27.8188L23.9844 26.2603L22.8183 26.9337C22.7361 26.9808 22.6393 26.9955 22.5468 26.9748C22.4543 26.9541 22.3729 26.8996 22.3186 26.822C22.2643 26.7443 22.2409 26.6492 22.2532 26.5552C22.2655 26.4613 22.3124 26.3753 22.3849 26.3142L25.4822 23.7126C25.3933 23.7422 25.2965 23.7378 25.2106 23.7004C25.1248 23.6629 25.0558 23.595 25.0169 23.5097C24.9781 23.4244 24.9722 23.3278 25.0004 23.2384C25.0285 23.1491 25.0887 23.0732 25.1694 23.0256L28.8216 20.9175C28.9037 20.8713 29.0001 20.8573 29.0919 20.8782C29.1837 20.8991 29.2645 20.9534 29.3186 21.0305C29.3726 21.1076 29.3961 21.2021 29.3843 21.2956C29.3726 21.389 29.3265 21.4748 29.2551 21.5362L26.1882 24.1119L32.9802 20.1932C33.0651 20.1477 33.1641 20.1362 33.2571 20.1609C33.3502 20.1857 33.4304 20.2449 33.4814 20.3265C33.5325 20.4082 33.5506 20.5062 33.5321 20.6007C33.5136 20.6952 33.4599 20.7791 33.3818 20.8355L31.0771 22.3948L34.6709 20.3208C34.7558 20.2748 34.8552 20.263 34.9486 20.2877C35.0419 20.3125 35.1224 20.3719 35.1735 20.4539C35.2246 20.5358 35.2425 20.6342 35.2236 20.729C35.2047 20.8237 35.1504 20.9077 35.0717 20.9638L30.8751 23.7832L36.284 20.6609C36.3696 20.6151 36.4695 20.6038 36.5631 20.6293C36.6567 20.6549 36.737 20.7153 36.7875 20.7982C36.8379 20.8811 36.8547 20.9802 36.8343 21.0751C36.814 21.17 36.758 21.2535 36.678 21.3084L35.1552 22.2809L37.3461 21.0169C37.4314 20.9705 37.5312 20.9585 37.6251 20.9835C37.7189 21.0085 37.7997 21.0685 37.8506 21.1511C37.9016 21.2338 37.9189 21.3329 37.8991 21.4279C37.8792 21.523 37.8237 21.6068 37.7439 21.6622L32.6432 25.0024L38.5736 21.5787C38.6588 21.5282 38.7604 21.513 38.8566 21.5364C38.9528 21.5597 39.0361 21.6197 39.0887 21.7036C39.1413 21.7875 39.159 21.8886 39.1381 21.9854C39.1172 22.0822 39.0593 22.167 38.9767 22.2217L30.1623 28.1772L40.0312 22.479C40.1174 22.427 40.2207 22.4113 40.3184 22.4354C40.4161 22.4596 40.5003 22.5215 40.5523 22.6077C40.6044 22.6939 40.6201 22.7972 40.5959 22.8949C40.5718 22.9927 40.5098 23.0768 40.4237 23.1288L37.9299 24.701L40.7744 23.059C40.8597 23.0105 40.9605 22.9969 41.0556 23.0211C41.1507 23.0453 41.2328 23.1054 41.2845 23.1888C41.3363 23.2721 41.3538 23.3723 41.3332 23.4683C41.3127 23.5643 41.2558 23.6486 41.1744 23.7035L31.6252 30.0621L41.8972 24.1408C41.9825 24.093 42.083 24.0801 42.1777 24.1046C42.2724 24.1292 42.354 24.1894 42.4054 24.2726C42.4568 24.3558 42.4741 24.4557 42.4536 24.5514C42.4332 24.647 42.3766 24.7311 42.2957 24.7861L33.1435 30.8061L42.7907 25.237C42.8761 25.1899 42.9764 25.1776 43.0707 25.2025C43.165 25.2274 43.2461 25.2876 43.2972 25.3707C43.3482 25.4538 43.3654 25.5534 43.345 25.6488C43.3246 25.7442 43.2683 25.8281 43.1877 25.883L34.2617 31.7284L43.5232 26.3818C43.6092 26.3352 43.7097 26.3236 43.8039 26.3493C43.8982 26.3751 43.9789 26.4361 44.0293 26.5199C44.0797 26.6036 44.0958 26.7035 44.0744 26.7988C44.0529 26.8941 43.9956 26.9775 43.9142 27.0316L41.5609 28.5036L43.9142 27.1447C43.9996 27.0977 44.0999 27.0853 44.1942 27.1102C44.2885 27.1351 44.3696 27.1954 44.4207 27.2785C44.4718 27.3616 44.4889 27.4611 44.4685 27.5565C44.4481 27.6519 44.3918 27.7358 44.3112 27.7908L36.1125 33.1268L44.4092 28.3358C44.4945 28.2881 44.5951 28.2751 44.6897 28.2997C44.7844 28.3242 44.866 28.3844 44.9174 28.4676C44.9688 28.5509 44.9861 28.6507 44.9657 28.7464C44.9452 28.8421 44.8886 28.9261 44.8077 28.9811L35.739 34.9708L44.7994 29.7402C44.8853 29.6937 44.9858 29.6821 45.0801 29.7078C45.1743 29.7335 45.255 29.7946 45.3054 29.8783C45.3558 29.962 45.3719 30.0619 45.3505 30.1573C45.3291 30.2526 45.2717 30.336 45.1903 30.3901L44.4509 30.8531L44.9489 30.5654C45.0339 30.5195 45.1332 30.5077 45.2266 30.5324C45.32 30.5571 45.4005 30.6165 45.4516 30.6985C45.5027 30.7805 45.5206 30.8789 45.5017 30.9736C45.4828 31.0684 45.4284 31.1524 45.3497 31.2084L36.6021 37.0728L45.0727 32.1824C45.1582 32.1366 45.2581 32.1253 45.3517 32.1509C45.4453 32.1764 45.5256 32.2368 45.5761 32.3197C45.6265 32.4027 45.6433 32.5017 45.6229 32.5966C45.6026 32.6915 45.5467 32.775 45.4667 32.83L42.1014 34.9875L45.037 33.2923C45.1231 33.24 45.2264 33.2241 45.3242 33.248C45.422 33.272 45.5063 33.3337 45.5585 33.4198C45.6108 33.5059 45.6267 33.6092 45.6028 33.707C45.5788 33.8048 45.517 33.8891 45.431 33.9413L43.5566 35.137L44.9079 34.3574C44.9927 34.3087 45.0929 34.2947 45.1877 34.318C45.2826 34.3414 45.3647 34.4005 45.4172 34.4829C45.4696 34.5653 45.4882 34.6648 45.4691 34.7606C45.4501 34.8564 45.3948 34.9412 45.3148 34.9973L38.4863 39.7526L44.394 36.3418C44.4791 36.2898 44.5813 36.2734 44.6784 36.2961C44.7755 36.3189 44.8598 36.379 44.913 36.4634C44.9661 36.5478 44.9839 36.6497 44.9625 36.7471C44.9411 36.8446 44.8823 36.9297 44.7986 36.984L41.239 39.4133L43.6477 38.0225C43.7322 37.9729 43.8326 37.9579 43.9279 37.9806C44.0231 38.0033 44.1059 38.062 44.159 38.1443C44.212 38.2267 44.2312 38.3263 44.2124 38.4225C44.1937 38.5186 44.1385 38.6038 44.0584 38.6602L41.6876 40.3531L42.3466 39.9735C42.3898 39.946 42.4381 39.9276 42.4886 39.9193C42.5391 39.911 42.5908 39.913 42.6405 39.9252C42.6902 39.9373 42.737 39.9595 42.7779 39.9902C42.8189 40.0209 42.8532 40.0596 42.8788 40.1039C42.9044 40.1482 42.9208 40.1973 42.927 40.2481C42.9332 40.2989 42.929 40.3504 42.9147 40.3996C42.9005 40.4488 42.8764 40.4945 42.844 40.5342C42.8116 40.5738 42.7715 40.6064 42.7261 40.6302L35.2691 44.9345C35.1848 44.9822 35.0854 44.9958 34.9914 44.9726C34.8974 44.9494 34.8158 44.8912 34.7633 44.8098C34.7108 44.7284 34.6914 44.63 34.7091 44.5348C34.7268 44.4396 34.7802 44.3547 34.8584 44.2976L37.2269 42.6055L32.9347 45.0841C32.8772 45.1173 32.812 45.1348 32.7457 45.1349Z" fill="#C0DBF0"/>
<path d="M0.838867 22.8503V35.0095C1.26627 47.2886 19.5138 48.6566 21.2143 36.3471C21.7888 38.1906 22.7904 39.8725 24.1378 41.2557C24.0998 41.4455 24.2615 41.5821 24.4665 41.5882C36.2856 52.6717 53.0703 35.9706 42.1546 24.0095C42.1568 23.9698 42.151 23.93 42.1374 23.8927C42.1238 23.8553 42.1027 23.8211 42.0754 23.7922C42.0481 23.7633 42.0152 23.7402 41.9787 23.7244C41.9422 23.7087 41.9028 23.7005 41.8631 23.7005C35.7573 17.1346 24.153 20.0498 21.4185 28.3966C20.5159 19.9701 24.8909 5.24264 15.1935 1.16528C7.25137 -2.15522 0.838867 4.69682 0.838867 12.2556V22.8503ZM44.9452 32.6531C45.1836 42.6966 32.0746 47.9628 25.1452 41.1267L41.6505 24.6251C43.7576 26.7673 44.9412 29.6499 44.9475 32.6546L44.9452 32.6531ZM21.4117 32.2075C21.3958 22.4099 34.2663 17.2857 41.1495 24.1423L24.6457 40.6507C23.5424 39.551 22.6842 38.2303 22.1276 36.7754C21.5711 35.3205 21.3286 33.7643 21.4163 32.209L21.4117 32.2075ZM20.5721 32.3859C22.0942 46.8855 3.46551 48.8419 1.67393 34.8296V23.1197H20.5766L20.5721 32.3859ZM5.12424 3.28481C6.33691 2.33113 7.76226 1.68493 9.27872 1.40131C10.7952 1.1177 12.3577 1.2051 13.8331 1.65604C15.3085 2.10699 16.6529 2.90811 17.7516 3.99107C18.8504 5.07402 19.6709 6.40668 20.1432 7.87536C21.1301 12.6094 20.339 17.6106 20.5766 22.4289H1.67848C1.96392 16.3618 -0.147262 7.69316 5.12424 3.28481Z" fill="#262626"/>
</g>
<defs>
<clipPath id="clip0_817_1821">
<rect width="45.5487" height="45.5487" fill="white" transform="translate(0.5)"/>
</clipPath>
</defs>
</svg>
