<svg width="70" height="68" viewBox="0 0 70 68" fill="none" xmlns="http://www.w3.org/2000/svg">
<g id="SVG">
<g id="Group">
<path id="Vector" d="M35.2735 60C52.0872 60 65.7174 46.5685 65.7174 30C65.7174 13.4315 52.0872 0 35.2735 0C18.4598 0 4.82959 13.4315 4.82959 30C4.82959 46.5685 18.4598 60 35.2735 60Z" fill="white"/>
</g>
<g id="Clip path group">
<mask id="mask0_800_3265" style="mask-type:luminance" maskUnits="userSpaceOnUse" x="20" y="13" width="31" height="33">
<g id="clip0hc">
<path id="Vector_2" d="M51 13.9253H20V45.9253H51V13.9253Z" fill="white"/>
</g>
</mask>
<g mask="url(#mask0_800_3265)">
<g id="Group_2">
<path id="Vector_3" fill-rule="evenodd" clip-rule="evenodd" d="M46.8667 45.9238H24.1333C21.8507 45.9238 20 44.0447 20 41.7271V22.8413C20 20.5231 21.8507 18.6441 24.1333 18.6441H28.2667V14.4478H42.7333V18.6441H46.8667C49.1493 18.6441 51 20.5231 51 22.8413V41.7271C51 44.0447 49.1493 45.9238 46.8667 45.9238ZM40.6667 16.5467H30.3333V18.6441H40.6667V16.5467ZM48.9333 22.8413C48.9333 21.6819 48.008 20.7439 46.8667 20.7439H42.7333H28.2667H24.1333C22.992 20.7439 22.0667 21.6819 22.0667 22.8413V41.7271C22.0667 42.8854 22.992 43.8249 24.1333 43.8249H46.8667C48.008 43.8249 48.9333 42.8854 48.9333 41.7271V22.8413Z" fill="black"/>
<path id="Vector_4" fill-rule="evenodd" clip-rule="evenodd" d="M36.8 39H34.2V33.7986H29V31.1989H34.2V26H36.8V31.1989H42V33.7986H36.8V39Z" fill="#0070F3"/>
</g>
</g>
</g>
</g>
</svg>
