<svg width="14" height="9" viewBox="0 0 14 9" fill="none" xmlns="http://www.w3.org/2000/svg">
<path d="M7.29486 8.22104L13.0799 2.43587C13.2138 2.30207 13.2876 2.12345 13.2876 1.933C13.2876 1.74254 13.2138 1.56393 13.0799 1.43012L12.654 1.00409C12.3764 0.726862 11.9254 0.726862 11.6482 1.00409L6.79029 5.86203L1.92696 0.998696C1.79305 0.864893 1.61454 0.791015 1.42419 0.791015C1.23363 0.791015 1.05512 0.864893 0.921105 0.998696L0.495279 1.42473C0.36137 1.55864 0.287598 1.73715 0.287598 1.92761C0.287598 2.11806 0.36137 2.29668 0.495279 2.43048L6.28562 8.22104C6.41995 8.35516 6.59931 8.42882 6.78998 8.4284C6.98138 8.42882 7.16063 8.35516 7.29486 8.22104Z" fill="white"/>
</svg>
