<svg width="769" height="597" viewBox="0 0 769 597" fill="none" xmlns="http://www.w3.org/2000/svg">
<g filter="url(#filter0_bd_734_1290)">
<rect x="189.409" y="96" width="287.834" height="221.953" rx="11.9997" fill="white"/>
<path d="M349.045 150.611C348.496 150.06 347.843 149.623 347.124 149.325C346.405 149.028 345.635 148.876 344.856 148.878H343.668V145.311H341.301V148.867H324.701V145.311H322.334V148.867H321.145C319.574 148.87 318.067 149.496 316.957 150.608C315.847 151.721 315.223 153.228 315.223 154.8V173.756C315.223 175.326 315.847 176.833 316.958 177.943C318.068 179.054 319.575 179.678 321.145 179.678H344.856C346.427 179.678 347.933 179.054 349.044 177.943C350.155 176.833 350.779 175.326 350.779 173.756V154.8C350.781 154.022 350.63 153.251 350.332 152.532C350.035 151.813 349.597 151.16 349.045 150.611ZM348.412 173.767C348.412 174.71 348.037 175.614 347.371 176.281C346.704 176.948 345.799 177.322 344.856 177.322H321.145C320.202 177.322 319.298 176.948 318.631 176.281C317.964 175.614 317.59 174.71 317.59 173.767V159.533H346.034V157.167H317.59V154.8C317.59 153.857 317.964 152.953 318.631 152.286C319.298 151.619 320.202 151.244 321.145 151.244H322.334V154.8H324.701V151.244H341.301V154.8H343.668V151.244H344.856C345.799 151.244 346.704 151.619 347.371 152.286C348.037 152.953 348.412 153.857 348.412 154.8V173.767Z" fill="#FF6565"/>
<path d="M334.189 173.756H331.811V169.611H327.667V167.244H331.811V163.089H334.189V167.244H338.333V169.611H334.189V173.756Z" fill="#FF6565"/>
<path d="M228.575 211.688V219.5H226.909V209.588H229.247L232.453 217.386L235.687 209.588H238.025V219.5H236.359V211.674L233.111 219.5H231.823L228.575 211.688ZM243.829 218.422C245.187 218.422 246.167 217.386 246.167 215.944C246.167 214.502 245.187 213.466 243.829 213.466C242.471 213.466 241.477 214.502 241.477 215.944C241.477 217.372 242.471 218.422 243.829 218.422ZM246.181 213.452V212.388H247.707V219.5H246.181V218.436C245.579 219.276 244.641 219.78 243.535 219.78C241.449 219.78 239.965 218.17 239.965 215.944C239.965 213.718 241.449 212.108 243.535 212.108C244.641 212.108 245.579 212.612 246.181 213.452ZM249.721 212.388H251.219V213.298C251.723 212.556 252.605 212.108 253.529 212.108C255.265 212.108 256.399 213.396 256.399 215.16V219.5H254.887V215.272C254.887 214.222 254.257 213.466 253.193 213.466C252.129 213.466 251.247 214.278 251.247 215.412V219.5H249.721V212.388ZM261.808 218.422C263.166 218.422 264.146 217.386 264.146 215.944C264.146 214.502 263.166 213.466 261.808 213.466C260.45 213.466 259.456 214.502 259.456 215.944C259.456 217.372 260.45 218.422 261.808 218.422ZM264.16 213.452V212.388H265.686V219.5H264.16V218.436C263.558 219.276 262.62 219.78 261.514 219.78C259.428 219.78 257.944 218.17 257.944 215.944C257.944 213.718 259.428 212.108 261.514 212.108C262.62 212.108 263.558 212.612 264.16 213.452ZM271.228 218.338C272.586 218.338 273.566 217.33 273.566 215.944C273.566 214.502 272.586 213.466 271.228 213.466C269.87 213.466 268.876 214.502 268.876 215.944C268.876 217.33 269.87 218.338 271.228 218.338ZM271.256 221.712C272.572 221.712 273.51 220.858 273.51 219.36V218.45C272.908 219.206 272.012 219.64 270.948 219.64C268.876 219.64 267.364 218.1 267.364 215.944C267.364 213.732 268.876 212.136 270.948 212.136C272.054 212.136 272.922 212.598 273.524 213.354V212.388H275.036V219.374C275.036 221.67 273.482 223 271.312 223C269.45 223 267.91 221.824 267.658 220.186L269.058 220.018C269.296 220.998 270.22 221.712 271.256 221.712ZM278.297 215.286H282.721C282.553 214.166 281.657 213.382 280.481 213.382C279.333 213.382 278.493 214.152 278.297 215.286ZM276.715 215.86C276.715 213.676 278.311 212.108 280.523 212.108C282.735 212.108 284.303 213.676 284.303 215.874C284.303 216.042 284.289 216.252 284.275 216.42L278.283 216.406C278.465 217.666 279.347 218.506 280.509 218.506C281.461 218.506 282.343 217.946 282.609 217.162L284.037 217.372C283.631 218.772 282.161 219.78 280.537 219.78C278.311 219.78 276.715 218.142 276.715 215.86ZM293.828 218.422C295.186 218.422 296.166 217.386 296.166 215.944C296.166 214.502 295.186 213.466 293.828 213.466C292.47 213.466 291.476 214.502 291.476 215.944C291.476 217.372 292.47 218.422 293.828 218.422ZM296.18 213.452V212.388H297.706V219.5H296.18V218.436C295.578 219.276 294.64 219.78 293.534 219.78C291.448 219.78 289.964 218.17 289.964 215.944C289.964 213.718 291.448 212.108 293.534 212.108C294.64 212.108 295.578 212.612 296.18 213.452ZM299.719 209.168H301.231V219.5H299.719V209.168ZM303.247 209.168H304.759V219.5H303.247V209.168ZM311.094 222.426V221.194C311.402 221.306 311.752 221.39 312.032 221.39C313.012 221.39 313.306 220.41 313.67 219.528L310.464 212.388H312.13L314.356 217.638L316.288 212.388H317.884L315.098 219.668C314.482 221.306 313.852 222.664 312.34 222.664C311.934 222.664 311.458 222.58 311.094 222.426ZM322.415 212.108C324.683 212.108 326.279 213.69 326.279 215.944C326.279 218.198 324.683 219.78 322.415 219.78C320.133 219.78 318.551 218.198 318.551 215.944C318.551 213.69 320.133 212.108 322.415 212.108ZM322.415 218.422C323.773 218.422 324.767 217.386 324.767 215.944C324.767 214.502 323.773 213.466 322.415 213.466C321.043 213.466 320.077 214.502 320.077 215.944C320.077 217.386 321.043 218.422 322.415 218.422ZM334.49 219.5H332.992V218.59C332.502 219.332 331.606 219.78 330.696 219.78C328.946 219.78 327.812 218.492 327.812 216.728V212.388H329.338V216.616C329.338 217.666 329.954 218.422 331.032 218.422C332.082 218.422 332.978 217.61 332.978 216.476V212.388H334.49V219.5ZM336.51 212.388H337.98V213.298C338.414 212.57 339.1 212.136 339.912 212.136C340.192 212.136 340.514 212.206 340.822 212.318V213.676C340.43 213.508 339.996 213.452 339.716 213.452C338.708 213.452 338.036 214.348 338.036 215.608V219.5H336.51V212.388ZM350.074 218.422C351.432 218.422 352.412 217.386 352.412 215.944C352.412 214.502 351.432 213.466 350.074 213.466C348.716 213.466 347.722 214.502 347.722 215.944C347.722 217.372 348.716 218.422 350.074 218.422ZM352.426 213.452V212.388H353.952V219.5H352.426V218.436C351.824 219.276 350.886 219.78 349.78 219.78C347.694 219.78 346.21 218.17 346.21 215.944C346.21 213.718 347.694 212.108 349.78 212.108C350.886 212.108 351.824 212.612 352.426 213.452ZM359.774 218.352C361.132 218.352 362.126 217.33 362.126 215.944C362.126 214.53 361.118 213.536 359.774 213.536C358.416 213.536 357.436 214.558 357.436 215.944C357.436 217.33 358.416 218.352 359.774 218.352ZM363.638 215.944C363.638 218.17 362.14 219.78 360.068 219.78C359.004 219.78 358.094 219.318 357.492 218.534V222.72H355.966V212.388H357.45V213.382C358.066 212.584 358.976 212.108 360.068 212.108C362.126 212.108 363.638 213.718 363.638 215.944ZM369.125 218.352C370.483 218.352 371.477 217.33 371.477 215.944C371.477 214.53 370.469 213.536 369.125 213.536C367.767 213.536 366.787 214.558 366.787 215.944C366.787 217.33 367.767 218.352 369.125 218.352ZM372.989 215.944C372.989 218.17 371.491 219.78 369.419 219.78C368.355 219.78 367.445 219.318 366.843 218.534V222.72H365.317V212.388H366.801V213.382C367.417 212.584 368.327 212.108 369.419 212.108C371.477 212.108 372.989 213.718 372.989 215.944ZM378.183 212.108C380.451 212.108 382.047 213.69 382.047 215.944C382.047 218.198 380.451 219.78 378.183 219.78C375.901 219.78 374.319 218.198 374.319 215.944C374.319 213.69 375.901 212.108 378.183 212.108ZM378.183 218.422C379.541 218.422 380.535 217.386 380.535 215.944C380.535 214.502 379.541 213.466 378.183 213.466C376.811 213.466 375.845 214.502 375.845 215.944C375.845 217.386 376.811 218.422 378.183 218.422ZM383.915 212.388H385.427V219.5H383.915V212.388ZM384.671 211.24C384.111 211.24 383.719 210.848 383.719 210.302C383.719 209.77 384.111 209.392 384.671 209.392C385.217 209.392 385.609 209.77 385.609 210.302C385.609 210.848 385.217 211.24 384.671 211.24ZM387.63 212.388H389.128V213.298C389.632 212.556 390.514 212.108 391.438 212.108C393.174 212.108 394.308 213.396 394.308 215.16V219.5H392.796V215.272C392.796 214.222 392.166 213.466 391.102 213.466C390.038 213.466 389.156 214.278 389.156 215.412V219.5H387.63V212.388ZM396.804 217.498V213.578H395.712V212.388H396.888L397.084 210.666H398.33V212.388H400.066V213.578H398.33V217.4C398.33 218.044 398.722 218.492 399.366 218.492C399.562 218.492 399.898 218.45 400.164 218.366V219.584C399.8 219.71 399.296 219.78 398.904 219.78C397.63 219.78 396.804 218.856 396.804 217.498ZM403.374 219.5H401.848V212.388H403.318V213.2C403.766 212.514 404.508 212.108 405.362 212.108C406.468 212.108 407.392 212.64 407.812 213.452C408.302 212.64 409.198 212.122 410.22 212.122C411.886 212.122 413.062 213.396 413.062 215.202V219.5H411.55V215.328C411.55 214.25 410.864 213.48 409.898 213.466C408.904 213.466 408.19 214.25 408.19 215.328V219.5H406.664V215.328C406.664 214.208 406.034 213.466 405.054 213.466C404.046 213.466 403.374 214.208 403.374 215.328V219.5ZM416.178 215.286H420.602C420.434 214.166 419.538 213.382 418.362 213.382C417.214 213.382 416.374 214.152 416.178 215.286ZM414.596 215.86C414.596 213.676 416.192 212.108 418.404 212.108C420.616 212.108 422.184 213.676 422.184 215.874C422.184 216.042 422.17 216.252 422.156 216.42L416.164 216.406C416.346 217.666 417.228 218.506 418.39 218.506C419.342 218.506 420.224 217.946 420.49 217.162L421.918 217.372C421.512 218.772 420.042 219.78 418.418 219.78C416.192 219.78 414.596 218.142 414.596 215.86ZM423.86 212.388H425.358V213.298C425.862 212.556 426.744 212.108 427.668 212.108C429.404 212.108 430.538 213.396 430.538 215.16V219.5H429.026V215.272C429.026 214.222 428.396 213.466 427.332 213.466C426.268 213.466 425.386 214.278 425.386 215.412V219.5H423.86V212.388ZM433.035 217.498V213.578H431.943V212.388H433.119L433.315 210.666H434.561V212.388H436.297V213.578H434.561V217.4C434.561 218.044 434.953 218.492 435.597 218.492C435.793 218.492 436.129 218.45 436.395 218.366V219.584C436.031 219.71 435.527 219.78 435.135 219.78C433.861 219.78 433.035 218.856 433.035 217.498ZM438.625 219.696C438.107 219.696 437.757 219.318 437.757 218.772C437.757 218.24 438.149 217.862 438.681 217.862C439.283 217.862 439.689 218.366 439.689 219.136C439.689 220.102 439.199 221.096 438.527 221.558L437.771 221.152C438.275 220.788 438.625 220.186 438.625 219.696ZM209.759 232.974H207.827V237.076H209.759C211.271 237.076 212.363 236.222 212.349 235.032C212.349 233.828 211.271 232.974 209.759 232.974ZM210.025 238.476H207.827V241.5H206.203V231.588H210.039C212.363 231.588 214.029 233.03 214.029 235.032C214.029 237.034 212.363 238.476 210.025 238.476ZM218.803 240.422C220.161 240.422 221.141 239.386 221.141 237.944C221.141 236.502 220.161 235.466 218.803 235.466C217.445 235.466 216.451 236.502 216.451 237.944C216.451 239.372 217.445 240.422 218.803 240.422ZM221.155 235.452V234.388H222.681V241.5H221.155V240.436C220.553 241.276 219.615 241.78 218.509 241.78C216.423 241.78 214.939 240.17 214.939 237.944C214.939 235.718 216.423 234.108 218.509 234.108C219.615 234.108 220.553 234.612 221.155 235.452ZM225.311 239.498V235.578H224.219V234.388H225.395L225.591 232.666H226.837V234.388H228.573V235.578H226.837V239.4C226.837 240.044 227.229 240.492 227.873 240.492C228.069 240.492 228.405 240.45 228.671 240.366V241.584C228.307 241.71 227.803 241.78 227.411 241.78C226.137 241.78 225.311 240.856 225.311 239.498ZM230.551 234.388H232.063V241.5H230.551V234.388ZM231.307 233.24C230.747 233.24 230.355 232.848 230.355 232.302C230.355 231.77 230.747 231.392 231.307 231.392C231.853 231.392 232.245 231.77 232.245 232.302C232.245 232.848 231.853 233.24 231.307 233.24ZM235.511 237.286H239.935C239.767 236.166 238.871 235.382 237.695 235.382C236.547 235.382 235.707 236.152 235.511 237.286ZM233.929 237.86C233.929 235.676 235.525 234.108 237.737 234.108C239.949 234.108 241.517 235.676 241.517 237.874C241.517 238.042 241.503 238.252 241.489 238.42L235.497 238.406C235.679 239.666 236.561 240.506 237.723 240.506C238.675 240.506 239.557 239.946 239.823 239.162L241.251 239.372C240.845 240.772 239.375 241.78 237.751 241.78C235.525 241.78 233.929 240.142 233.929 237.86ZM243.193 234.388H244.691V235.298C245.195 234.556 246.077 234.108 247.001 234.108C248.737 234.108 249.871 235.396 249.871 237.16V241.5H248.359V237.272C248.359 236.222 247.729 235.466 246.665 235.466C245.601 235.466 244.719 236.278 244.719 237.412V241.5H243.193V234.388ZM252.368 239.498V235.578H251.276V234.388H252.452L252.648 232.666H253.894V234.388H255.63V235.578H253.894V239.4C253.894 240.044 254.286 240.492 254.93 240.492C255.126 240.492 255.462 240.45 255.728 240.366V241.584C255.364 241.71 254.86 241.78 254.468 241.78C253.194 241.78 252.368 240.856 252.368 239.498ZM263.516 239.358C263.516 240.772 262.228 241.794 260.422 241.794C258.546 241.794 257.188 240.66 257.188 239.092H258.588C258.588 239.932 259.358 240.548 260.422 240.548C261.374 240.548 262.06 240.114 262.046 239.526C262.046 238.784 260.94 238.602 260.226 238.504C258.56 238.252 257.3 238.042 257.3 236.348C257.3 235.046 258.546 234.094 260.156 234.094C261.99 234.094 263.334 235.116 263.334 236.53H261.92C261.906 235.83 261.164 235.34 260.142 235.34C259.372 235.34 258.728 235.76 258.728 236.334C258.728 236.866 259.26 237.034 260.408 237.23C261.766 237.454 263.516 237.748 263.516 239.358ZM271.078 241.5H269.552V234.388H271.022V235.2C271.47 234.514 272.212 234.108 273.066 234.108C274.172 234.108 275.096 234.64 275.516 235.452C276.006 234.64 276.902 234.122 277.924 234.122C279.59 234.122 280.766 235.396 280.766 237.202V241.5H279.254V237.328C279.254 236.25 278.568 235.48 277.602 235.466C276.608 235.466 275.894 236.25 275.894 237.328V241.5H274.368V237.328C274.368 236.208 273.738 235.466 272.758 235.466C271.75 235.466 271.078 236.208 271.078 237.328V241.5ZM283.882 237.286H288.306C288.138 236.166 287.242 235.382 286.066 235.382C284.918 235.382 284.078 236.152 283.882 237.286ZM282.3 237.86C282.3 235.676 283.896 234.108 286.108 234.108C288.32 234.108 289.888 235.676 289.888 237.874C289.888 238.042 289.874 238.252 289.86 238.42L283.868 238.406C284.05 239.666 284.932 240.506 286.094 240.506C287.046 240.506 287.928 239.946 288.194 239.162L289.622 239.372C289.216 240.772 287.746 241.78 286.122 241.78C283.896 241.78 282.3 240.142 282.3 237.86ZM295.092 235.536C293.734 235.536 292.74 236.558 292.74 237.944C292.74 239.358 293.748 240.352 295.092 240.352C296.45 240.352 297.43 239.33 297.43 237.944C297.43 236.558 296.45 235.536 295.092 235.536ZM291.228 237.944C291.228 235.718 292.726 234.108 294.798 234.108C295.862 234.108 296.772 234.57 297.374 235.354V231.168H298.9V241.5H297.416V240.506C296.8 241.304 295.89 241.78 294.798 241.78C292.74 241.78 291.228 240.17 291.228 237.944ZM301.112 234.388H302.624V241.5H301.112V234.388ZM301.868 233.24C301.308 233.24 300.916 232.848 300.916 232.302C300.916 231.77 301.308 231.392 301.868 231.392C302.414 231.392 302.806 231.77 302.806 232.302C302.806 232.848 302.414 233.24 301.868 233.24ZM308.242 234.108C310.048 234.108 311.532 235.242 311.784 236.81L310.328 236.992C310.104 236.068 309.236 235.41 308.256 235.41C306.996 235.41 306.002 236.474 306.002 237.944C306.016 239.414 306.982 240.478 308.256 240.478C309.264 240.478 310.09 239.82 310.342 238.91L311.798 239.092C311.504 240.646 310.006 241.78 308.256 241.78C306.072 241.78 304.49 240.17 304.49 237.944C304.49 235.718 306.072 234.108 308.242 234.108ZM317.008 240.422C318.366 240.422 319.346 239.386 319.346 237.944C319.346 236.502 318.366 235.466 317.008 235.466C315.65 235.466 314.656 236.502 314.656 237.944C314.656 239.372 315.65 240.422 317.008 240.422ZM319.36 235.452V234.388H320.886V241.5H319.36V240.436C318.758 241.276 317.82 241.78 316.714 241.78C314.628 241.78 313.144 240.17 313.144 237.944C313.144 235.718 314.628 234.108 316.714 234.108C317.82 234.108 318.758 234.612 319.36 235.452ZM322.9 231.168H324.412V241.5H322.9V231.168ZM330.748 234.388H332.218V235.298C332.652 234.57 333.338 234.136 334.15 234.136C334.43 234.136 334.752 234.206 335.06 234.318V235.676C334.668 235.508 334.234 235.452 333.954 235.452C332.946 235.452 332.274 236.348 332.274 237.608V241.5H330.748V234.388ZM337.285 237.286H341.709C341.541 236.166 340.645 235.382 339.469 235.382C338.321 235.382 337.481 236.152 337.285 237.286ZM335.703 237.86C335.703 235.676 337.299 234.108 339.511 234.108C341.723 234.108 343.291 235.676 343.291 237.874C343.291 238.042 343.277 238.252 343.263 238.42L337.271 238.406C337.453 239.666 338.335 240.506 339.497 240.506C340.449 240.506 341.331 239.946 341.597 239.162L343.025 239.372C342.619 240.772 341.149 241.78 339.525 241.78C337.299 241.78 335.703 240.142 335.703 237.86ZM348.382 234.108C350.188 234.108 351.672 235.242 351.924 236.81L350.468 236.992C350.244 236.068 349.376 235.41 348.396 235.41C347.136 235.41 346.142 236.474 346.142 237.944C346.156 239.414 347.122 240.478 348.396 240.478C349.404 240.478 350.23 239.82 350.482 238.91L351.938 239.092C351.644 240.646 350.146 241.78 348.396 241.78C346.212 241.78 344.63 240.17 344.63 237.944C344.63 235.718 346.212 234.108 348.382 234.108ZM357.135 234.108C359.403 234.108 360.999 235.69 360.999 237.944C360.999 240.198 359.403 241.78 357.135 241.78C354.853 241.78 353.271 240.198 353.271 237.944C353.271 235.69 354.853 234.108 357.135 234.108ZM357.135 240.422C358.493 240.422 359.487 239.386 359.487 237.944C359.487 236.502 358.493 235.466 357.135 235.466C355.763 235.466 354.797 236.502 354.797 237.944C354.797 239.386 355.763 240.422 357.135 240.422ZM362.672 234.388H364.142V235.298C364.576 234.57 365.262 234.136 366.074 234.136C366.354 234.136 366.676 234.206 366.984 234.318V235.676C366.592 235.508 366.158 235.452 365.878 235.452C364.87 235.452 364.198 236.348 364.198 237.608V241.5H362.672V234.388ZM371.491 235.536C370.133 235.536 369.139 236.558 369.139 237.944C369.139 239.358 370.147 240.352 371.491 240.352C372.849 240.352 373.829 239.33 373.829 237.944C373.829 236.558 372.849 235.536 371.491 235.536ZM367.627 237.944C367.627 235.718 369.125 234.108 371.197 234.108C372.261 234.108 373.171 234.57 373.773 235.354V231.168H375.299V241.5H373.815V240.506C373.199 241.304 372.289 241.78 371.197 241.78C369.139 241.78 367.627 240.17 367.627 237.944ZM383.418 239.358C383.418 240.772 382.13 241.794 380.324 241.794C378.448 241.794 377.09 240.66 377.09 239.092H378.49C378.49 239.932 379.26 240.548 380.324 240.548C381.276 240.548 381.962 240.114 381.948 239.526C381.948 238.784 380.842 238.602 380.128 238.504C378.462 238.252 377.202 238.042 377.202 236.348C377.202 235.046 378.448 234.094 380.058 234.094C381.892 234.094 383.236 235.116 383.236 236.53H381.822C381.808 235.83 381.066 235.34 380.044 235.34C379.274 235.34 378.63 235.76 378.63 236.334C378.63 236.866 379.162 237.034 380.31 237.23C381.668 237.454 383.418 237.748 383.418 239.358ZM389.651 234.388H391.163V241.5H389.651V234.388ZM390.407 233.24C389.847 233.24 389.455 232.848 389.455 232.302C389.455 231.77 389.847 231.392 390.407 231.392C390.953 231.392 391.345 231.77 391.345 232.302C391.345 232.848 390.953 233.24 390.407 233.24ZM393.365 234.388H394.863V235.298C395.367 234.556 396.249 234.108 397.173 234.108C398.909 234.108 400.043 235.396 400.043 237.16V241.5H398.531V237.272C398.531 236.222 397.901 235.466 396.837 235.466C395.773 235.466 394.891 236.278 394.891 237.412V241.5H393.365V234.388ZM409.772 240.422C411.13 240.422 412.11 239.386 412.11 237.944C412.11 236.502 411.13 235.466 409.772 235.466C408.414 235.466 407.42 236.502 407.42 237.944C407.42 239.372 408.414 240.422 409.772 240.422ZM412.124 235.452V234.388H413.65V241.5H412.124V240.436C411.522 241.276 410.584 241.78 409.478 241.78C407.392 241.78 405.908 240.17 405.908 237.944C405.908 235.718 407.392 234.108 409.478 234.108C410.584 234.108 411.522 234.612 412.124 235.452ZM426.088 239.358C426.088 240.772 424.8 241.794 422.994 241.794C421.118 241.794 419.76 240.66 419.76 239.092H421.16C421.16 239.932 421.93 240.548 422.994 240.548C423.946 240.548 424.632 240.114 424.618 239.526C424.618 238.784 423.512 238.602 422.798 238.504C421.132 238.252 419.872 238.042 419.872 236.348C419.872 235.046 421.118 234.094 422.728 234.094C424.562 234.094 425.906 235.116 425.906 236.53H424.492C424.478 235.83 423.736 235.34 422.714 235.34C421.944 235.34 421.3 235.76 421.3 236.334C421.3 236.866 421.832 237.034 422.98 237.23C424.338 237.454 426.088 237.748 426.088 239.358ZM428 234.388H429.512V241.5H428V234.388ZM428.756 233.24C428.196 233.24 427.804 232.848 427.804 232.302C427.804 231.77 428.196 231.392 428.756 231.392C429.302 231.392 429.694 231.77 429.694 232.302C429.694 232.848 429.302 233.24 428.756 233.24ZM431.715 234.388H433.213V235.298C433.717 234.556 434.599 234.108 435.523 234.108C437.259 234.108 438.393 235.396 438.393 237.16V241.5H436.881V237.272C436.881 236.222 436.251 235.466 435.187 235.466C434.123 235.466 433.241 236.278 433.241 237.412V241.5H431.715V234.388ZM443.801 240.338C445.159 240.338 446.139 239.33 446.139 237.944C446.139 236.502 445.159 235.466 443.801 235.466C442.443 235.466 441.449 236.502 441.449 237.944C441.449 239.33 442.443 240.338 443.801 240.338ZM443.829 243.712C445.145 243.712 446.083 242.858 446.083 241.36V240.45C445.481 241.206 444.585 241.64 443.521 241.64C441.449 241.64 439.937 240.1 439.937 237.944C439.937 235.732 441.449 234.136 443.521 234.136C444.627 234.136 445.495 234.598 446.097 235.354V234.388H447.609V241.374C447.609 243.67 446.055 245 443.885 245C442.023 245 440.483 243.824 440.231 242.186L441.631 242.018C441.869 242.998 442.793 243.712 443.829 243.712ZM449.625 231.168H451.137V241.5H449.625V231.168ZM454.398 237.286H458.822C458.654 236.166 457.758 235.382 456.582 235.382C455.434 235.382 454.594 236.152 454.398 237.286ZM452.816 237.86C452.816 235.676 454.412 234.108 456.624 234.108C458.836 234.108 460.404 235.676 460.404 237.874C460.404 238.042 460.39 238.252 460.376 238.42L454.384 238.406C454.566 239.666 455.448 240.506 456.61 240.506C457.562 240.506 458.444 239.946 458.71 239.162L460.138 239.372C459.732 240.772 458.262 241.78 456.638 241.78C454.412 241.78 452.816 240.142 452.816 237.86ZM275.316 262.422C276.674 262.422 277.654 261.386 277.654 259.944C277.654 258.502 276.674 257.466 275.316 257.466C273.958 257.466 272.964 258.502 272.964 259.944C272.964 261.372 273.958 262.422 275.316 262.422ZM277.668 257.452V256.388H279.194V263.5H277.668V262.436C277.066 263.276 276.128 263.78 275.022 263.78C272.936 263.78 271.452 262.17 271.452 259.944C271.452 257.718 272.936 256.108 275.022 256.108C276.128 256.108 277.066 256.612 277.668 257.452ZM284.624 256.108C286.43 256.108 287.914 257.242 288.166 258.81L286.71 258.992C286.486 258.068 285.618 257.41 284.638 257.41C283.378 257.41 282.384 258.474 282.384 259.944C282.398 261.414 283.364 262.478 284.638 262.478C285.646 262.478 286.472 261.82 286.724 260.91L288.18 261.092C287.886 262.646 286.388 263.78 284.638 263.78C282.454 263.78 280.872 262.17 280.872 259.944C280.872 257.718 282.454 256.108 284.624 256.108ZM293.278 256.108C295.084 256.108 296.568 257.242 296.82 258.81L295.364 258.992C295.14 258.068 294.272 257.41 293.292 257.41C292.032 257.41 291.038 258.474 291.038 259.944C291.052 261.414 292.018 262.478 293.292 262.478C294.3 262.478 295.126 261.82 295.378 260.91L296.834 261.092C296.54 262.646 295.042 263.78 293.292 263.78C291.108 263.78 289.526 262.17 289.526 259.944C289.526 257.718 291.108 256.108 293.278 256.108ZM299.762 259.286H304.186C304.018 258.166 303.122 257.382 301.946 257.382C300.798 257.382 299.958 258.152 299.762 259.286ZM298.18 259.86C298.18 257.676 299.776 256.108 301.988 256.108C304.2 256.108 305.768 257.676 305.768 259.874C305.768 260.042 305.754 260.252 305.74 260.42L299.748 260.406C299.93 261.666 300.812 262.506 301.974 262.506C302.926 262.506 303.808 261.946 304.074 261.162L305.502 261.372C305.096 262.772 303.626 263.78 302.002 263.78C299.776 263.78 298.18 262.142 298.18 259.86ZM313.548 261.358C313.548 262.772 312.26 263.794 310.454 263.794C308.578 263.794 307.22 262.66 307.22 261.092H308.62C308.62 261.932 309.39 262.548 310.454 262.548C311.406 262.548 312.092 262.114 312.078 261.526C312.078 260.784 310.972 260.602 310.258 260.504C308.592 260.252 307.332 260.042 307.332 258.348C307.332 257.046 308.578 256.094 310.188 256.094C312.022 256.094 313.366 257.116 313.366 258.53H311.952C311.938 257.83 311.196 257.34 310.174 257.34C309.404 257.34 308.76 257.76 308.76 258.334C308.76 258.866 309.292 259.034 310.44 259.23C311.798 259.454 313.548 259.748 313.548 261.358ZM321.368 261.358C321.368 262.772 320.08 263.794 318.274 263.794C316.398 263.794 315.04 262.66 315.04 261.092H316.44C316.44 261.932 317.21 262.548 318.274 262.548C319.226 262.548 319.912 262.114 319.898 261.526C319.898 260.784 318.792 260.602 318.078 260.504C316.412 260.252 315.152 260.042 315.152 258.348C315.152 257.046 316.398 256.094 318.008 256.094C319.842 256.094 321.186 257.116 321.186 258.53H319.772C319.758 257.83 319.016 257.34 317.994 257.34C317.224 257.34 316.58 257.76 316.58 258.334C316.58 258.866 317.112 259.034 318.26 259.23C319.618 259.454 321.368 259.748 321.368 261.358ZM323.281 256.388H324.793V263.5H323.281V256.388ZM324.037 255.24C323.477 255.24 323.085 254.848 323.085 254.302C323.085 253.77 323.477 253.392 324.037 253.392C324.583 253.392 324.975 253.77 324.975 254.302C324.975 254.848 324.583 255.24 324.037 255.24ZM330.803 257.536C329.445 257.536 328.465 258.558 328.465 259.944C328.465 261.33 329.445 262.352 330.803 262.352C332.147 262.352 333.155 261.358 333.155 259.944C333.155 258.558 332.161 257.536 330.803 257.536ZM334.667 259.944C334.667 262.17 333.155 263.78 331.097 263.78C330.005 263.78 329.095 263.304 328.479 262.506V263.5H326.995V253.168H328.521V257.354C329.123 256.57 330.033 256.108 331.097 256.108C333.169 256.108 334.667 257.718 334.667 259.944ZM336.346 253.168H337.858V263.5H336.346V253.168ZM341.12 259.286H345.544C345.376 258.166 344.48 257.382 343.304 257.382C342.156 257.382 341.316 258.152 341.12 259.286ZM339.538 259.86C339.538 257.676 341.134 256.108 343.346 256.108C345.558 256.108 347.126 257.676 347.126 259.874C347.126 260.042 347.112 260.252 347.098 260.42L341.106 260.406C341.288 261.666 342.17 262.506 343.332 262.506C344.284 262.506 345.166 261.946 345.432 261.162L346.86 261.372C346.454 262.772 344.984 263.78 343.36 263.78C341.134 263.78 339.538 262.142 339.538 259.86ZM356.93 262.352C358.288 262.352 359.282 261.33 359.282 259.944C359.282 258.53 358.274 257.536 356.93 257.536C355.572 257.536 354.592 258.558 354.592 259.944C354.592 261.33 355.572 262.352 356.93 262.352ZM360.794 259.944C360.794 262.17 359.296 263.78 357.224 263.78C356.16 263.78 355.25 263.318 354.648 262.534V266.72H353.122V256.388H354.606V257.382C355.222 256.584 356.132 256.108 357.224 256.108C359.282 256.108 360.794 257.718 360.794 259.944ZM362.473 253.168H363.985V263.5H362.473V253.168ZM369.529 262.422C370.887 262.422 371.867 261.386 371.867 259.944C371.867 258.502 370.887 257.466 369.529 257.466C368.171 257.466 367.177 258.502 367.177 259.944C367.177 261.372 368.171 262.422 369.529 262.422ZM371.881 257.452V256.388H373.407V263.5H371.881V262.436C371.279 263.276 370.341 263.78 369.235 263.78C367.149 263.78 365.665 262.17 365.665 259.944C365.665 257.718 367.149 256.108 369.235 256.108C370.341 256.108 371.279 256.612 371.881 257.452ZM378.837 256.108C380.643 256.108 382.127 257.242 382.379 258.81L380.923 258.992C380.699 258.068 379.831 257.41 378.851 257.41C377.591 257.41 376.597 258.474 376.597 259.944C376.611 261.414 377.577 262.478 378.851 262.478C379.859 262.478 380.685 261.82 380.937 260.91L382.393 261.092C382.099 262.646 380.601 263.78 378.851 263.78C376.667 263.78 375.085 262.17 375.085 259.944C375.085 257.718 376.667 256.108 378.837 256.108ZM385.321 259.286H389.745C389.577 258.166 388.681 257.382 387.505 257.382C386.357 257.382 385.517 258.152 385.321 259.286ZM383.739 259.86C383.739 257.676 385.335 256.108 387.547 256.108C389.759 256.108 391.327 257.676 391.327 259.874C391.327 260.042 391.313 260.252 391.299 260.42L385.307 260.406C385.489 261.666 386.371 262.506 387.533 262.506C388.485 262.506 389.367 261.946 389.633 261.162L391.061 261.372C390.655 262.772 389.185 263.78 387.561 263.78C385.335 263.78 383.739 262.142 383.739 259.86ZM393.605 263.696C393.059 263.696 392.667 263.304 392.667 262.758C392.667 262.226 393.059 261.848 393.605 261.848C394.165 261.848 394.543 262.226 394.543 262.758C394.543 263.304 394.165 263.696 393.605 263.696Z" fill="#515151"/>
</g>
<g filter="url(#filter1_bd_734_1290)">
<rect x="492.928" y="153.253" width="196.072" height="164.7" rx="11.9997" fill="white"/>
<g clip-path="url(#clip0_734_1290)">
<path d="M603.741 194.34H602.647V193.861C602.647 193.589 602.539 193.329 602.347 193.136L595.511 186.3C595.318 186.108 595.058 186 594.786 186H578.379C577.813 186 577.354 186.459 577.354 187.025V192.973H576.26C574.187 192.973 572.5 194.659 572.5 196.732V217.24C572.5 219.313 574.187 221 576.26 221H603.741C605.814 221 607.5 219.313 607.5 217.24V198.1C607.5 196.026 605.814 194.34 603.741 194.34ZM603.741 196.391C604.683 196.391 605.45 197.157 605.45 198.1V198.854C604.937 198.591 604.356 198.441 603.741 198.441H602.647V196.391H603.741ZM595.811 189.501L599.146 192.836H596.153C595.964 192.836 595.811 192.683 595.811 192.494V189.501ZM579.405 188.051H593.76V192.494C593.76 193.813 594.834 194.887 596.153 194.887H600.596V198.441H590.634L588.939 195.051C588.298 193.769 587.009 192.973 585.576 192.973H579.405V188.051ZM605.45 217.24C605.45 218.183 604.683 218.949 603.741 218.949H576.26C575.318 218.949 574.551 218.183 574.551 217.24V196.732C574.551 195.79 575.318 195.023 576.26 195.023H585.576C586.228 195.023 586.813 195.385 587.105 195.968L589.083 199.925C589.257 200.273 589.612 200.492 590 200.492H603.741C604.683 200.492 605.45 201.259 605.45 202.201V217.24Z" fill="#65ACFF"/>
<path d="M595.469 206.645H593.077V204.252C593.077 203.686 592.618 203.227 592.051 203.227H587.95C587.383 203.227 586.924 203.686 586.924 204.252V206.645H584.532C583.965 206.645 583.506 207.104 583.506 207.67V211.771C583.506 212.338 583.965 212.797 584.532 212.797H586.924V215.189C586.924 215.756 587.383 216.215 587.95 216.215H592.051C592.618 216.215 593.077 215.756 593.077 215.189V212.797H595.469C596.036 212.797 596.495 212.338 596.495 211.771V207.67C596.495 207.104 596.036 206.645 595.469 206.645ZM594.444 210.746H592.051C591.485 210.746 591.026 211.205 591.026 211.771V214.164H588.975V211.771C588.975 211.205 588.516 210.746 587.95 210.746H585.557V208.695H587.95C588.516 208.695 588.975 208.236 588.975 207.67V205.277H591.026V207.67C591.026 208.236 591.485 208.695 592.051 208.695H594.444V210.746Z" fill="#65ACFF"/>
</g>
<path d="M512.124 251.544L510.178 256.892H514.084L512.124 251.544ZM509.814 258.152L509.156 260H507.364L510.906 250.088H513.342L516.87 260H515.092L514.434 258.152H509.814ZM521.254 252.608C523.06 252.608 524.544 253.742 524.796 255.31L523.34 255.492C523.116 254.568 522.248 253.91 521.268 253.91C520.008 253.91 519.014 254.974 519.014 256.444C519.028 257.914 519.994 258.978 521.268 258.978C522.276 258.978 523.102 258.32 523.354 257.41L524.81 257.592C524.516 259.146 523.018 260.28 521.268 260.28C519.084 260.28 517.502 258.67 517.502 256.444C517.502 254.218 519.084 252.608 521.254 252.608ZM529.908 252.608C531.714 252.608 533.198 253.742 533.45 255.31L531.994 255.492C531.77 254.568 530.902 253.91 529.922 253.91C528.662 253.91 527.668 254.974 527.668 256.444C527.682 257.914 528.648 258.978 529.922 258.978C530.93 258.978 531.756 258.32 532.008 257.41L533.464 257.592C533.17 259.146 531.672 260.28 529.922 260.28C527.738 260.28 526.156 258.67 526.156 256.444C526.156 254.218 527.738 252.608 529.908 252.608ZM536.392 255.786H540.816C540.648 254.666 539.752 253.882 538.576 253.882C537.428 253.882 536.588 254.652 536.392 255.786ZM534.81 256.36C534.81 254.176 536.406 252.608 538.618 252.608C540.83 252.608 542.398 254.176 542.398 256.374C542.398 256.542 542.384 256.752 542.37 256.92L536.378 256.906C536.56 258.166 537.442 259.006 538.604 259.006C539.556 259.006 540.438 258.446 540.704 257.662L542.132 257.872C541.726 259.272 540.256 260.28 538.632 260.28C536.406 260.28 534.81 258.642 534.81 256.36ZM550.178 257.858C550.178 259.272 548.89 260.294 547.084 260.294C545.208 260.294 543.85 259.16 543.85 257.592H545.25C545.25 258.432 546.02 259.048 547.084 259.048C548.036 259.048 548.722 258.614 548.708 258.026C548.708 257.284 547.602 257.102 546.888 257.004C545.222 256.752 543.962 256.542 543.962 254.848C543.962 253.546 545.208 252.594 546.818 252.594C548.652 252.594 549.996 253.616 549.996 255.03H548.582C548.568 254.33 547.826 253.84 546.804 253.84C546.034 253.84 545.39 254.26 545.39 254.834C545.39 255.366 545.922 255.534 547.07 255.73C548.428 255.954 550.178 256.248 550.178 257.858ZM557.998 257.858C557.998 259.272 556.71 260.294 554.904 260.294C553.028 260.294 551.67 259.16 551.67 257.592H553.07C553.07 258.432 553.84 259.048 554.904 259.048C555.856 259.048 556.542 258.614 556.528 258.026C556.528 257.284 555.422 257.102 554.708 257.004C553.042 256.752 551.782 256.542 551.782 254.848C551.782 253.546 553.028 252.594 554.638 252.594C556.472 252.594 557.816 253.616 557.816 255.03H556.402C556.388 254.33 555.646 253.84 554.624 253.84C553.854 253.84 553.21 254.26 553.21 254.834C553.21 255.366 553.742 255.534 554.89 255.73C556.248 255.954 557.998 256.248 557.998 257.858ZM565.967 252.188V260H564.301V250.088H566.639L569.845 257.886L573.079 250.088H575.417V260H573.751V252.174L570.503 260H569.215L565.967 252.188ZM578.939 255.786H583.363C583.195 254.666 582.299 253.882 581.123 253.882C579.975 253.882 579.135 254.652 578.939 255.786ZM577.357 256.36C577.357 254.176 578.953 252.608 581.165 252.608C583.377 252.608 584.945 254.176 584.945 256.374C584.945 256.542 584.931 256.752 584.917 256.92L578.925 256.906C579.107 258.166 579.989 259.006 581.151 259.006C582.103 259.006 582.985 258.446 583.251 257.662L584.679 257.872C584.273 259.272 582.803 260.28 581.179 260.28C578.953 260.28 577.357 258.642 577.357 256.36ZM590.149 254.036C588.791 254.036 587.797 255.058 587.797 256.444C587.797 257.858 588.805 258.852 590.149 258.852C591.507 258.852 592.487 257.83 592.487 256.444C592.487 255.058 591.507 254.036 590.149 254.036ZM586.285 256.444C586.285 254.218 587.783 252.608 589.855 252.608C590.919 252.608 591.829 253.07 592.431 253.854V249.668H593.957V260H592.473V259.006C591.857 259.804 590.947 260.28 589.855 260.28C587.797 260.28 586.285 258.67 586.285 256.444ZM596.168 252.888H597.68V260H596.168V252.888ZM596.924 251.74C596.364 251.74 595.972 251.348 595.972 250.802C595.972 250.27 596.364 249.892 596.924 249.892C597.47 249.892 597.862 250.27 597.862 250.802C597.862 251.348 597.47 251.74 596.924 251.74ZM603.299 252.608C605.105 252.608 606.589 253.742 606.841 255.31L605.385 255.492C605.161 254.568 604.293 253.91 603.313 253.91C602.053 253.91 601.059 254.974 601.059 256.444C601.073 257.914 602.039 258.978 603.313 258.978C604.321 258.978 605.147 258.32 605.399 257.41L606.855 257.592C606.561 259.146 605.063 260.28 603.313 260.28C601.129 260.28 599.547 258.67 599.547 256.444C599.547 254.218 601.129 252.608 603.299 252.608ZM612.065 258.922C613.423 258.922 614.403 257.886 614.403 256.444C614.403 255.002 613.423 253.966 612.065 253.966C610.707 253.966 609.713 255.002 609.713 256.444C609.713 257.872 610.707 258.922 612.065 258.922ZM614.417 253.952V252.888H615.943V260H614.417V258.936C613.815 259.776 612.877 260.28 611.771 260.28C609.685 260.28 608.201 258.67 608.201 256.444C608.201 254.218 609.685 252.608 611.771 252.608C612.877 252.608 613.815 253.112 614.417 253.952ZM617.957 249.668H619.469V260H617.957V249.668ZM630.438 251.474H627.75V255.072H630.438C631.726 255.072 632.678 254.33 632.678 253.308C632.678 252.146 631.74 251.474 630.438 251.474ZM627.75 256.416V260H626.07V250.088H630.634C632.804 250.088 634.358 251.418 634.358 253.308C634.358 254.638 633.392 255.814 632.048 256.164L634.526 260H632.594L630.41 256.416H627.75ZM637.564 255.786H641.988C641.82 254.666 640.924 253.882 639.748 253.882C638.6 253.882 637.76 254.652 637.564 255.786ZM635.982 256.36C635.982 254.176 637.578 252.608 639.79 252.608C642.002 252.608 643.57 254.176 643.57 256.374C643.57 256.542 643.556 256.752 643.542 256.92L637.55 256.906C637.732 258.166 638.614 259.006 639.776 259.006C640.728 259.006 641.61 258.446 641.876 257.662L643.304 257.872C642.898 259.272 641.428 260.28 639.804 260.28C637.578 260.28 635.982 258.642 635.982 256.36ZM649.054 258.852C650.412 258.852 651.406 257.83 651.406 256.444C651.406 255.03 650.398 254.036 649.054 254.036C647.696 254.036 646.716 255.058 646.716 256.444C646.716 257.83 647.696 258.852 649.054 258.852ZM652.918 256.444C652.918 258.67 651.42 260.28 649.348 260.28C648.284 260.28 647.374 259.818 646.772 259.034V263.22H645.246V252.888H646.73V253.882C647.346 253.084 648.256 252.608 649.348 252.608C651.406 252.608 652.918 254.218 652.918 256.444ZM658.111 252.608C660.379 252.608 661.975 254.19 661.975 256.444C661.975 258.698 660.379 260.28 658.111 260.28C655.829 260.28 654.247 258.698 654.247 256.444C654.247 254.19 655.829 252.608 658.111 252.608ZM658.111 258.922C659.469 258.922 660.463 257.886 660.463 256.444C660.463 255.002 659.469 253.966 658.111 253.966C656.739 253.966 655.773 255.002 655.773 256.444C655.773 257.886 656.739 258.922 658.111 258.922ZM663.648 252.888H665.118V253.798C665.552 253.07 666.238 252.636 667.05 252.636C667.33 252.636 667.652 252.706 667.96 252.818V254.176C667.568 254.008 667.134 253.952 666.854 253.952C665.846 253.952 665.174 254.848 665.174 256.108V260H663.648V252.888ZM669.979 257.998V254.078H668.887V252.888H670.063L670.259 251.166H671.505V252.888H673.241V254.078H671.505V257.9C671.505 258.544 671.897 258.992 672.541 258.992C672.737 258.992 673.073 258.95 673.339 258.866V260.084C672.975 260.21 672.471 260.28 672.079 260.28C670.805 260.28 669.979 259.356 669.979 257.998ZM528.844 280.922C530.202 280.922 531.182 279.886 531.182 278.444C531.182 277.002 530.202 275.966 528.844 275.966C527.486 275.966 526.492 277.002 526.492 278.444C526.492 279.872 527.486 280.922 528.844 280.922ZM531.196 275.952V274.888H532.722V282H531.196V280.936C530.594 281.776 529.656 282.28 528.55 282.28C526.464 282.28 524.98 280.67 524.98 278.444C524.98 276.218 526.464 274.608 528.55 274.608C529.656 274.608 530.594 275.112 531.196 275.952ZM534.736 274.888H536.234V275.798C536.738 275.056 537.62 274.608 538.544 274.608C540.28 274.608 541.414 275.896 541.414 277.66V282H539.902V277.772C539.902 276.722 539.272 275.966 538.208 275.966C537.144 275.966 536.262 276.778 536.262 277.912V282H534.736V274.888ZM543.295 284.926V283.694C543.603 283.806 543.953 283.89 544.233 283.89C545.213 283.89 545.507 282.91 545.871 282.028L542.665 274.888H544.331L546.557 280.138L548.489 274.888H550.085L547.299 282.168C546.683 283.806 546.053 285.164 544.541 285.164C544.135 285.164 543.659 285.08 543.295 284.926ZM552.073 279.998V276.078H550.981V274.888H552.157L552.353 273.166H553.599V274.888H555.335V276.078H553.599V279.9C553.599 280.544 553.991 280.992 554.635 280.992C554.831 280.992 555.167 280.95 555.433 280.866V282.084C555.069 282.21 554.565 282.28 554.173 282.28C552.899 282.28 552.073 281.356 552.073 279.998ZM557.313 274.888H558.825V282H557.313V274.888ZM558.069 273.74C557.509 273.74 557.117 273.348 557.117 272.802C557.117 272.27 557.509 271.892 558.069 271.892C558.615 271.892 559.007 272.27 559.007 272.802C559.007 273.348 558.615 273.74 558.069 273.74ZM562.553 282H561.027V274.888H562.497V275.7C562.945 275.014 563.687 274.608 564.541 274.608C565.647 274.608 566.571 275.14 566.991 275.952C567.481 275.14 568.377 274.622 569.399 274.622C571.065 274.622 572.241 275.896 572.241 277.702V282H570.729V277.828C570.729 276.75 570.043 275.98 569.077 275.966C568.083 275.966 567.369 276.75 567.369 277.828V282H565.843V277.828C565.843 276.708 565.213 275.966 564.233 275.966C563.225 275.966 562.553 276.708 562.553 277.828V282ZM575.357 277.786H579.781C579.613 276.666 578.717 275.882 577.541 275.882C576.393 275.882 575.553 276.652 575.357 277.786ZM573.775 278.36C573.775 276.176 575.371 274.608 577.583 274.608C579.795 274.608 581.363 276.176 581.363 278.374C581.363 278.542 581.349 278.752 581.335 278.92L575.343 278.906C575.525 280.166 576.407 281.006 577.569 281.006C578.521 281.006 579.403 280.446 579.669 279.662L581.097 279.872C580.691 281.272 579.221 282.28 577.597 282.28C575.371 282.28 573.775 280.642 573.775 278.36ZM590.887 280.922C592.245 280.922 593.225 279.886 593.225 278.444C593.225 277.002 592.245 275.966 590.887 275.966C589.529 275.966 588.535 277.002 588.535 278.444C588.535 279.872 589.529 280.922 590.887 280.922ZM593.239 275.952V274.888H594.765V282H593.239V280.936C592.637 281.776 591.699 282.28 590.593 282.28C588.507 282.28 587.023 280.67 587.023 278.444C587.023 276.218 588.507 274.608 590.593 274.608C591.699 274.608 592.637 275.112 593.239 275.952ZM596.779 274.888H598.277V275.798C598.781 275.056 599.663 274.608 600.587 274.608C602.323 274.608 603.457 275.896 603.457 277.66V282H601.945V277.772C601.945 276.722 601.315 275.966 600.251 275.966C599.187 275.966 598.305 276.778 598.305 277.912V282H596.779V274.888ZM605.338 284.926V283.694C605.646 283.806 605.996 283.89 606.276 283.89C607.256 283.89 607.55 282.91 607.914 282.028L604.708 274.888H606.374L608.6 280.138L610.532 274.888H612.128L609.342 282.168C608.726 283.806 608.096 285.164 606.584 285.164C606.178 285.164 605.702 285.08 605.338 284.926ZM617.308 282H615.306L613.01 274.888H614.592L616.37 280.502L617.938 274.888H619.548L621.172 280.53L622.922 274.888H624.49L622.166 282H620.164L618.75 276.652L617.308 282ZM625.996 271.668H627.522V275.742C627.998 275.028 628.894 274.608 629.79 274.608C631.554 274.608 632.674 275.882 632.674 277.646V282H631.162V277.772C631.162 276.722 630.532 275.966 629.468 275.966C628.404 275.966 627.522 276.778 627.522 277.912V282H625.996V271.668ZM635.8 277.786H640.224C640.056 276.666 639.16 275.882 637.984 275.882C636.836 275.882 635.996 276.652 635.8 277.786ZM634.218 278.36C634.218 276.176 635.814 274.608 638.026 274.608C640.238 274.608 641.806 276.176 641.806 278.374C641.806 278.542 641.792 278.752 641.778 278.92L635.786 278.906C635.968 280.166 636.85 281.006 638.012 281.006C638.964 281.006 639.846 280.446 640.112 279.662L641.54 279.872C641.134 281.272 639.664 282.28 638.04 282.28C635.814 282.28 634.218 280.642 634.218 278.36ZM643.482 274.888H644.952V275.798C645.386 275.07 646.072 274.636 646.884 274.636C647.164 274.636 647.486 274.706 647.794 274.818V276.176C647.402 276.008 646.968 275.952 646.688 275.952C645.68 275.952 645.008 276.848 645.008 278.108V282H643.482V274.888ZM650.019 277.786H654.443C654.275 276.666 653.379 275.882 652.203 275.882C651.055 275.882 650.215 276.652 650.019 277.786ZM648.437 278.36C648.437 276.176 650.033 274.608 652.245 274.608C654.457 274.608 656.025 276.176 656.025 278.374C656.025 278.542 656.011 278.752 655.997 278.92L650.005 278.906C650.187 280.166 651.069 281.006 652.231 281.006C653.183 281.006 654.065 280.446 654.331 279.662L655.759 279.872C655.353 281.272 653.883 282.28 652.259 282.28C650.033 282.28 648.437 280.642 648.437 278.36Z" fill="#515151"/>
</g>
<g filter="url(#filter2_bd_734_1290)">
<rect x="100" y="333.639" width="181.17" height="159.21" rx="11.9997" fill="white"/>
<path d="M198.834 385.25H182.167C174.817 385.25 172.584 383.017 172.584 375.667V362.333C172.584 354.983 174.817 352.75 182.167 352.75H198.834C206.184 352.75 208.417 354.983 208.417 362.333V375.667C208.417 383.017 206.184 385.25 198.834 385.25ZM182.167 355.25C176.201 355.25 175.084 356.383 175.084 362.333V375.667C175.084 381.617 176.201 382.75 182.167 382.75H198.834C204.801 382.75 205.917 381.617 205.917 375.667V362.333C205.917 356.383 204.801 355.25 198.834 355.25H182.167Z" fill="#29C28B"/>
<path d="M202.167 363.583H193.834C193.151 363.583 192.584 363.017 192.584 362.333C192.584 361.65 193.151 361.083 193.834 361.083H202.167C202.851 361.083 203.417 361.65 203.417 362.333C203.417 363.017 202.851 363.583 202.167 363.583Z" fill="#29C28B"/>
<path d="M202.167 370.25H195.5C194.817 370.25 194.25 369.683 194.25 369C194.25 368.317 194.817 367.75 195.5 367.75H202.167C202.85 367.75 203.417 368.317 203.417 369C203.417 369.683 202.85 370.25 202.167 370.25Z" fill="#29C28B"/>
<path d="M202.167 376.917H198.834C198.151 376.917 197.584 376.35 197.584 375.667C197.584 374.983 198.151 374.417 198.834 374.417H202.167C202.851 374.417 203.417 374.983 203.417 375.667C203.417 376.35 202.851 376.917 202.167 376.917Z" fill="#29C28B"/>
<path d="M184.669 369.067C182.319 369.067 180.402 367.15 180.402 364.8C180.402 362.45 182.319 360.533 184.669 360.533C187.019 360.533 188.936 362.45 188.936 364.8C188.936 367.15 187.019 369.067 184.669 369.067ZM184.669 363.033C183.702 363.033 182.902 363.833 182.902 364.8C182.902 365.767 183.702 366.567 184.669 366.567C185.636 366.567 186.436 365.767 186.436 364.8C186.436 363.833 185.636 363.033 184.669 363.033Z" fill="#29C28B"/>
<path d="M190.5 377.467C189.866 377.467 189.316 376.983 189.25 376.333C189.066 374.533 187.616 373.083 185.8 372.917C185.033 372.85 184.267 372.85 183.5 372.917C181.683 373.083 180.233 374.517 180.05 376.333C179.983 377.017 179.367 377.533 178.683 377.45C178 377.383 177.5 376.767 177.567 376.083C177.867 373.083 180.25 370.7 183.267 370.433C184.183 370.35 185.117 370.35 186.033 370.433C189.033 370.717 191.433 373.1 191.733 376.083C191.8 376.767 191.3 377.383 190.616 377.45C190.583 377.467 190.533 377.467 190.5 377.467Z" fill="#29C28B"/>
<path d="M111.948 421.534V424.572H117.324V426H110.324V416.088H117.184V417.516H111.948V420.246H116.624V421.534H111.948ZM119.122 418.888H120.62V419.798C121.124 419.056 122.006 418.608 122.93 418.608C124.666 418.608 125.8 419.896 125.8 421.66V426H124.288V421.772C124.288 420.722 123.658 419.966 122.594 419.966C121.53 419.966 120.648 420.778 120.648 421.912V426H119.122V418.888ZM128.297 423.998V420.078H127.205V418.888H128.381L128.577 417.166H129.823V418.888H131.559V420.078H129.823V423.9C129.823 424.544 130.215 424.992 130.859 424.992C131.055 424.992 131.391 424.95 131.657 424.866V426.084C131.293 426.21 130.789 426.28 130.397 426.28C129.123 426.28 128.297 425.356 128.297 423.998ZM134.587 421.786H139.011C138.843 420.666 137.947 419.882 136.771 419.882C135.623 419.882 134.783 420.652 134.587 421.786ZM133.005 422.36C133.005 420.176 134.601 418.608 136.813 418.608C139.025 418.608 140.593 420.176 140.593 422.374C140.593 422.542 140.579 422.752 140.565 422.92L134.573 422.906C134.755 424.166 135.637 425.006 136.799 425.006C137.751 425.006 138.633 424.446 138.899 423.662L140.327 423.872C139.921 425.272 138.451 426.28 136.827 426.28C134.601 426.28 133.005 424.642 133.005 422.36ZM142.269 418.888H143.739V419.798C144.173 419.07 144.859 418.636 145.671 418.636C145.951 418.636 146.273 418.706 146.581 418.818V420.176C146.189 420.008 145.755 419.952 145.475 419.952C144.467 419.952 143.795 420.848 143.795 422.108V426H142.269V418.888ZM152.304 428.926V427.694C152.612 427.806 152.962 427.89 153.242 427.89C154.222 427.89 154.516 426.91 154.88 426.028L151.674 418.888H153.34L155.566 424.138L157.498 418.888H159.094L156.308 426.168C155.692 427.806 155.062 429.164 153.55 429.164C153.144 429.164 152.668 429.08 152.304 428.926ZM163.625 418.608C165.893 418.608 167.489 420.19 167.489 422.444C167.489 424.698 165.893 426.28 163.625 426.28C161.343 426.28 159.761 424.698 159.761 422.444C159.761 420.19 161.343 418.608 163.625 418.608ZM163.625 424.922C164.983 424.922 165.977 423.886 165.977 422.444C165.977 421.002 164.983 419.966 163.625 419.966C162.253 419.966 161.287 421.002 161.287 422.444C161.287 423.886 162.253 424.922 163.625 424.922ZM175.699 426H174.201V425.09C173.711 425.832 172.815 426.28 171.905 426.28C170.155 426.28 169.021 424.992 169.021 423.228V418.888H170.547V423.116C170.547 424.166 171.163 424.922 172.241 424.922C173.291 424.922 174.187 424.11 174.187 422.976V418.888H175.699V426ZM177.72 418.888H179.19V419.798C179.624 419.07 180.31 418.636 181.122 418.636C181.402 418.636 181.724 418.706 182.032 418.818V420.176C181.64 420.008 181.206 419.952 180.926 419.952C179.918 419.952 179.246 420.848 179.246 422.108V426H177.72V418.888ZM191.563 424.852C192.921 424.852 193.915 423.83 193.915 422.444C193.915 421.03 192.907 420.036 191.563 420.036C190.205 420.036 189.225 421.058 189.225 422.444C189.225 423.83 190.205 424.852 191.563 424.852ZM195.427 422.444C195.427 424.67 193.929 426.28 191.857 426.28C190.793 426.28 189.883 425.818 189.281 425.034V429.22H187.755V418.888H189.239V419.882C189.855 419.084 190.765 418.608 191.857 418.608C193.915 418.608 195.427 420.218 195.427 422.444ZM200.635 424.922C201.993 424.922 202.973 423.886 202.973 422.444C202.973 421.002 201.993 419.966 200.635 419.966C199.277 419.966 198.283 421.002 198.283 422.444C198.283 423.872 199.277 424.922 200.635 424.922ZM202.987 419.952V418.888H204.513V426H202.987V424.936C202.385 425.776 201.447 426.28 200.341 426.28C198.255 426.28 196.771 424.67 196.771 422.444C196.771 420.218 198.255 418.608 200.341 418.608C201.447 418.608 202.385 419.112 202.987 419.952ZM207.143 423.998V420.078H206.051V418.888H207.227L207.423 417.166H208.669V418.888H210.405V420.078H208.669V423.9C208.669 424.544 209.061 424.992 209.705 424.992C209.901 424.992 210.237 424.95 210.503 424.866V426.084C210.139 426.21 209.635 426.28 209.243 426.28C207.969 426.28 207.143 425.356 207.143 423.998ZM212.383 418.888H213.895V426H212.383V418.888ZM213.139 417.74C212.579 417.74 212.187 417.348 212.187 416.802C212.187 416.27 212.579 415.892 213.139 415.892C213.685 415.892 214.077 416.27 214.077 416.802C214.077 417.348 213.685 417.74 213.139 417.74ZM217.343 421.786H221.767C221.599 420.666 220.703 419.882 219.527 419.882C218.379 419.882 217.539 420.652 217.343 421.786ZM215.761 422.36C215.761 420.176 217.357 418.608 219.569 418.608C221.781 418.608 223.349 420.176 223.349 422.374C223.349 422.542 223.335 422.752 223.321 422.92L217.329 422.906C217.511 424.166 218.393 425.006 219.555 425.006C220.507 425.006 221.389 424.446 221.655 423.662L223.083 423.872C222.677 425.272 221.207 426.28 219.583 426.28C217.357 426.28 215.761 424.642 215.761 422.36ZM225.025 418.888H226.523V419.798C227.027 419.056 227.909 418.608 228.833 418.608C230.569 418.608 231.703 419.896 231.703 421.66V426H230.191V421.772C230.191 420.722 229.561 419.966 228.497 419.966C227.433 419.966 226.551 420.778 226.551 421.912V426H225.025V418.888ZM234.199 423.998V420.078H233.107V418.888H234.283L234.479 417.166H235.725V418.888H237.461V420.078H235.725V423.9C235.725 424.544 236.117 424.992 236.761 424.992C236.957 424.992 237.293 424.95 237.559 424.866V426.084C237.195 426.21 236.691 426.28 236.299 426.28C235.025 426.28 234.199 425.356 234.199 423.998ZM239.789 417.628C239.271 417.628 238.921 417.25 238.921 416.704C238.921 416.172 239.313 415.794 239.845 415.794C240.447 415.794 240.853 416.298 240.853 417.068C240.853 418.02 240.363 419.028 239.691 419.476L238.935 419.084C239.439 418.72 239.789 418.118 239.789 417.628ZM248.218 423.858C248.218 425.272 246.93 426.294 245.124 426.294C243.248 426.294 241.89 425.16 241.89 423.592H243.29C243.29 424.432 244.06 425.048 245.124 425.048C246.076 425.048 246.762 424.614 246.748 424.026C246.748 423.284 245.642 423.102 244.928 423.004C243.262 422.752 242.002 422.542 242.002 420.848C242.002 419.546 243.248 418.594 244.858 418.594C246.692 418.594 248.036 419.616 248.036 421.03H246.622C246.608 420.33 245.866 419.84 244.844 419.84C244.074 419.84 243.43 420.26 243.43 420.834C243.43 421.366 243.962 421.534 245.11 421.73C246.468 421.954 248.218 422.248 248.218 423.858ZM254.521 416.088H256.201V426H254.521V416.088ZM258.759 426V416.088H262.133C265.577 416.088 267.873 418.062 267.873 421.044C267.873 424.026 265.577 426 262.133 426H258.759ZM266.193 421.044C266.193 418.86 264.555 417.488 262.133 417.488H260.425V424.6H262.133C264.555 424.6 266.193 423.228 266.193 421.044ZM270.209 426.196C269.691 426.196 269.341 425.818 269.341 425.272C269.341 424.74 269.733 424.362 270.265 424.362C270.867 424.362 271.273 424.866 271.273 425.636C271.273 426.602 270.783 427.596 270.111 428.058L269.355 427.652C269.859 427.288 270.209 426.686 270.209 426.196ZM121.598 446.838C122.956 446.838 123.936 445.83 123.936 444.444C123.936 443.002 122.956 441.966 121.598 441.966C120.24 441.966 119.246 443.002 119.246 444.444C119.246 445.83 120.24 446.838 121.598 446.838ZM121.626 450.212C122.942 450.212 123.88 449.358 123.88 447.86V446.95C123.278 447.706 122.382 448.14 121.318 448.14C119.246 448.14 117.734 446.6 117.734 444.444C117.734 442.232 119.246 440.636 121.318 440.636C122.424 440.636 123.292 441.098 123.894 441.854V440.888H125.406V447.874C125.406 450.17 123.852 451.5 121.682 451.5C119.82 451.5 118.28 450.324 118.028 448.686L119.428 448.518C119.666 449.498 120.59 450.212 121.626 450.212ZM128.667 443.786H133.091C132.923 442.666 132.027 441.882 130.851 441.882C129.703 441.882 128.863 442.652 128.667 443.786ZM127.085 444.36C127.085 442.176 128.681 440.608 130.893 440.608C133.105 440.608 134.673 442.176 134.673 444.374C134.673 444.542 134.659 444.752 134.645 444.92L128.653 444.906C128.835 446.166 129.717 447.006 130.879 447.006C131.831 447.006 132.713 446.446 132.979 445.662L134.407 445.872C134.001 447.272 132.531 448.28 130.907 448.28C128.681 448.28 127.085 446.642 127.085 444.36ZM136.965 445.998V442.078H135.873V440.888H137.049L137.245 439.166H138.491V440.888H140.227V442.078H138.491V445.9C138.491 446.544 138.883 446.992 139.527 446.992C139.723 446.992 140.059 446.95 140.325 446.866V448.084C139.961 448.21 139.457 448.28 139.065 448.28C137.791 448.28 136.965 447.356 136.965 445.998ZM149.745 440.608C151.551 440.608 153.035 441.742 153.287 443.31L151.831 443.492C151.607 442.568 150.739 441.91 149.759 441.91C148.499 441.91 147.505 442.974 147.505 444.444C147.519 445.914 148.485 446.978 149.759 446.978C150.767 446.978 151.593 446.32 151.845 445.41L153.301 445.592C153.007 447.146 151.509 448.28 149.759 448.28C147.575 448.28 145.993 446.67 145.993 444.444C145.993 442.218 147.575 440.608 149.745 440.608ZM158.498 440.608C160.766 440.608 162.362 442.19 162.362 444.444C162.362 446.698 160.766 448.28 158.498 448.28C156.216 448.28 154.634 446.698 154.634 444.444C154.634 442.19 156.216 440.608 158.498 440.608ZM158.498 446.922C159.856 446.922 160.85 445.886 160.85 444.444C160.85 443.002 159.856 441.966 158.498 441.966C157.126 441.966 156.16 443.002 156.16 444.444C156.16 445.886 157.126 446.922 158.498 446.922ZM164.034 440.888H165.532V441.798C166.036 441.056 166.918 440.608 167.842 440.608C169.578 440.608 170.712 441.896 170.712 443.66V448H169.2V443.772C169.2 442.722 168.57 441.966 167.506 441.966C166.442 441.966 165.56 442.778 165.56 443.912V448H164.034V440.888ZM178.697 445.858C178.697 447.272 177.409 448.294 175.603 448.294C173.727 448.294 172.369 447.16 172.369 445.592H173.769C173.769 446.432 174.539 447.048 175.603 447.048C176.555 447.048 177.241 446.614 177.227 446.026C177.227 445.284 176.121 445.102 175.407 445.004C173.741 444.752 172.481 444.542 172.481 442.848C172.481 441.546 173.727 440.594 175.337 440.594C177.171 440.594 178.515 441.616 178.515 443.03H177.101C177.087 442.33 176.345 441.84 175.323 441.84C174.553 441.84 173.909 442.26 173.909 442.834C173.909 443.366 174.441 443.534 175.589 443.73C176.947 443.954 178.697 444.248 178.697 445.858ZM181.659 443.786H186.083C185.915 442.666 185.019 441.882 183.843 441.882C182.695 441.882 181.855 442.652 181.659 443.786ZM180.077 444.36C180.077 442.176 181.673 440.608 183.885 440.608C186.097 440.608 187.665 442.176 187.665 444.374C187.665 444.542 187.651 444.752 187.637 444.92L181.645 444.906C181.827 446.166 182.709 447.006 183.871 447.006C184.823 447.006 185.705 446.446 185.971 445.662L187.399 445.872C186.993 447.272 185.523 448.28 183.899 448.28C181.673 448.28 180.077 446.642 180.077 444.36ZM189.341 440.888H190.839V441.798C191.343 441.056 192.225 440.608 193.149 440.608C194.885 440.608 196.019 441.896 196.019 443.66V448H194.507V443.772C194.507 442.722 193.877 441.966 192.813 441.966C191.749 441.966 190.867 442.778 190.867 443.912V448H189.341V440.888ZM198.516 445.998V442.078H197.424V440.888H198.6L198.796 439.166H200.042V440.888H201.778V442.078H200.042V445.9C200.042 446.544 200.434 446.992 201.078 446.992C201.274 446.992 201.61 446.95 201.876 446.866V448.084C201.512 448.21 201.008 448.28 200.616 448.28C199.342 448.28 198.516 447.356 198.516 445.998ZM211.408 446.922C212.766 446.922 213.746 445.886 213.746 444.444C213.746 443.002 212.766 441.966 211.408 441.966C210.05 441.966 209.056 443.002 209.056 444.444C209.056 445.872 210.05 446.922 211.408 446.922ZM213.76 441.952V440.888H215.286V448H213.76V446.936C213.158 447.776 212.22 448.28 211.114 448.28C209.028 448.28 207.544 446.67 207.544 444.444C207.544 442.218 209.028 440.608 211.114 440.608C212.22 440.608 213.158 441.112 213.76 441.952ZM217.3 440.888H218.798V441.798C219.302 441.056 220.184 440.608 221.108 440.608C222.844 440.608 223.978 441.896 223.978 443.66V448H222.466V443.772C222.466 442.722 221.836 441.966 220.772 441.966C219.708 441.966 218.826 442.778 218.826 443.912V448H217.3V440.888ZM229.387 442.036C228.029 442.036 227.035 443.058 227.035 444.444C227.035 445.858 228.043 446.852 229.387 446.852C230.745 446.852 231.725 445.83 231.725 444.444C231.725 443.058 230.745 442.036 229.387 442.036ZM225.523 444.444C225.523 442.218 227.021 440.608 229.093 440.608C230.157 440.608 231.067 441.07 231.669 441.854V437.668H233.195V448H231.711V447.006C231.095 447.804 230.185 448.28 229.093 448.28C227.035 448.28 225.523 446.67 225.523 444.444ZM239.53 450.926V449.694C239.838 449.806 240.188 449.89 240.468 449.89C241.448 449.89 241.742 448.91 242.106 448.028L238.9 440.888H240.566L242.792 446.138L244.724 440.888H246.32L243.534 448.168C242.918 449.806 242.288 451.164 240.776 451.164C240.37 451.164 239.894 451.08 239.53 450.926ZM250.851 440.608C253.119 440.608 254.715 442.19 254.715 444.444C254.715 446.698 253.119 448.28 250.851 448.28C248.569 448.28 246.987 446.698 246.987 444.444C246.987 442.19 248.569 440.608 250.851 440.608ZM250.851 446.922C252.209 446.922 253.203 445.886 253.203 444.444C253.203 443.002 252.209 441.966 250.851 441.966C249.479 441.966 248.513 443.002 248.513 444.444C248.513 445.886 249.479 446.922 250.851 446.922ZM262.926 448H261.428V447.09C260.938 447.832 260.042 448.28 259.132 448.28C257.382 448.28 256.248 446.992 256.248 445.228V440.888H257.774V445.116C257.774 446.166 258.39 446.922 259.468 446.922C260.518 446.922 261.414 446.11 261.414 444.976V440.888H262.926V448ZM159.216 468.922C160.574 468.922 161.554 467.886 161.554 466.444C161.554 465.002 160.574 463.966 159.216 463.966C157.858 463.966 156.864 465.002 156.864 466.444C156.864 467.872 157.858 468.922 159.216 468.922ZM161.568 463.952V462.888H163.094V470H161.568V468.936C160.966 469.776 160.028 470.28 158.922 470.28C156.836 470.28 155.352 468.67 155.352 466.444C155.352 464.218 156.836 462.608 158.922 462.608C160.028 462.608 160.966 463.112 161.568 463.952ZM165.108 462.888H166.578V463.798C167.012 463.07 167.698 462.636 168.51 462.636C168.79 462.636 169.112 462.706 169.42 462.818V464.176C169.028 464.008 168.594 463.952 168.314 463.952C167.306 463.952 166.634 464.848 166.634 466.108V470H165.108V462.888ZM171.645 465.786H176.069C175.901 464.666 175.005 463.882 173.829 463.882C172.681 463.882 171.841 464.652 171.645 465.786ZM170.063 466.36C170.063 464.176 171.659 462.608 173.871 462.608C176.083 462.608 177.651 464.176 177.651 466.374C177.651 466.542 177.637 466.752 177.623 466.92L171.631 466.906C171.813 468.166 172.695 469.006 173.857 469.006C174.809 469.006 175.691 468.446 175.957 467.662L177.385 467.872C176.979 469.272 175.509 470.28 173.885 470.28C171.659 470.28 170.063 468.642 170.063 466.36ZM183.647 462.888H185.117V463.798C185.551 463.07 186.237 462.636 187.049 462.636C187.329 462.636 187.651 462.706 187.959 462.818V464.176C187.567 464.008 187.133 463.952 186.853 463.952C185.845 463.952 185.173 464.848 185.173 466.108V470H183.647V462.888ZM190.184 465.786H194.608C194.44 464.666 193.544 463.882 192.368 463.882C191.22 463.882 190.38 464.652 190.184 465.786ZM188.602 466.36C188.602 464.176 190.198 462.608 192.41 462.608C194.622 462.608 196.19 464.176 196.19 466.374C196.19 466.542 196.176 466.752 196.162 466.92L190.17 466.906C190.352 468.166 191.234 469.006 192.396 469.006C193.348 469.006 194.23 468.446 194.496 467.662L195.924 467.872C195.518 469.272 194.048 470.28 192.424 470.28C190.198 470.28 188.602 468.642 188.602 466.36ZM201.393 468.922C202.751 468.922 203.731 467.886 203.731 466.444C203.731 465.002 202.751 463.966 201.393 463.966C200.035 463.966 199.041 465.002 199.041 466.444C199.041 467.872 200.035 468.922 201.393 468.922ZM203.745 463.952V462.888H205.271V470H203.745V468.936C203.143 469.776 202.205 470.28 201.099 470.28C199.013 470.28 197.529 468.67 197.529 466.444C197.529 464.218 199.013 462.608 201.099 462.608C202.205 462.608 203.143 463.112 203.745 463.952ZM210.813 464.036C209.455 464.036 208.461 465.058 208.461 466.444C208.461 467.858 209.469 468.852 210.813 468.852C212.171 468.852 213.151 467.83 213.151 466.444C213.151 465.058 212.171 464.036 210.813 464.036ZM206.949 466.444C206.949 464.218 208.447 462.608 210.519 462.608C211.583 462.608 212.493 463.07 213.095 463.854V459.668H214.621V470H213.137V469.006C212.521 469.804 211.611 470.28 210.519 470.28C208.461 470.28 206.949 468.67 206.949 466.444ZM216.637 472.926V471.694C216.945 471.806 217.295 471.89 217.575 471.89C218.555 471.89 218.849 470.91 219.213 470.028L216.007 462.888H217.673L219.899 468.138L221.831 462.888H223.427L220.641 470.168C220.025 471.806 219.395 473.164 217.883 473.164C217.477 473.164 217.001 473.08 216.637 472.926ZM224.704 470.196C224.158 470.196 223.766 469.804 223.766 469.258C223.766 468.726 224.158 468.348 224.704 468.348C225.264 468.348 225.642 468.726 225.642 469.258C225.642 469.804 225.264 470.196 224.704 470.196Z" fill="#515151"/>
</g>
<g filter="url(#filter3_bd_734_1290)">
<rect x="296.856" y="333.639" width="359.988" height="101.957" rx="11.9997" fill="white"/>
<path d="M354.368 381.034H345.618C344.934 381.034 344.368 380.467 344.368 379.784C344.368 379.1 344.934 378.534 345.618 378.534H354.368C355.051 378.534 355.618 379.1 355.618 379.784C355.618 380.467 355.068 381.034 354.368 381.034Z" fill="#FF65DD"/>
<path d="M336.867 382.3C336.551 382.3 336.234 382.184 335.984 381.934L334.734 380.683C334.251 380.2 334.251 379.4 334.734 378.917C335.217 378.433 336.017 378.433 336.501 378.917L336.867 379.283L339.734 376.417C340.217 375.933 341.017 375.933 341.501 376.417C341.984 376.9 341.984 377.7 341.501 378.183L337.751 381.934C337.517 382.167 337.201 382.3 336.867 382.3Z" fill="#FF65DD"/>
<path d="M354.368 392.7H345.618C344.934 392.7 344.368 392.134 344.368 391.45C344.368 390.767 344.934 390.2 345.618 390.2H354.368C355.051 390.2 355.618 390.767 355.618 391.45C355.618 392.134 355.068 392.7 354.368 392.7Z" fill="#FF65DD"/>
<path d="M336.867 393.967C336.551 393.967 336.234 393.85 335.984 393.6L334.734 392.35C334.251 391.867 334.251 391.067 334.734 390.584C335.217 390.1 336.017 390.1 336.501 390.584L336.867 390.95L339.734 388.084C340.217 387.6 341.017 387.6 341.501 388.084C341.984 388.567 341.984 389.367 341.501 389.85L337.751 393.6C337.517 393.834 337.201 393.967 336.867 393.967Z" fill="#FF65DD"/>
<path d="M350.001 402.917H340.001C330.951 402.917 327.084 399.05 327.084 390V380C327.084 370.95 330.951 367.083 340.001 367.083H350.001C359.051 367.083 362.918 370.95 362.918 380V390C362.918 399.05 359.051 402.917 350.001 402.917ZM340.001 369.583C332.318 369.583 329.584 372.317 329.584 380V390C329.584 397.683 332.318 400.417 340.001 400.417H350.001C357.684 400.417 360.418 397.683 360.418 390V380C360.418 372.317 357.684 369.583 350.001 369.583H340.001Z" fill="#FF65DD"/>
<path d="M387.378 368.088H389.142L392.068 376.768L394.98 368.088H396.744L393.328 378H390.794L387.378 368.088ZM398.322 370.888H399.834V378H398.322V370.888ZM399.078 369.74C398.518 369.74 398.126 369.348 398.126 368.802C398.126 368.27 398.518 367.892 399.078 367.892C399.624 367.892 400.016 368.27 400.016 368.802C400.016 369.348 399.624 369.74 399.078 369.74ZM403.282 373.786H407.706C407.538 372.666 406.642 371.882 405.466 371.882C404.318 371.882 403.478 372.652 403.282 373.786ZM401.7 374.36C401.7 372.176 403.296 370.608 405.508 370.608C407.72 370.608 409.288 372.176 409.288 374.374C409.288 374.542 409.274 374.752 409.26 374.92L403.268 374.906C403.45 376.166 404.332 377.006 405.494 377.006C406.446 377.006 407.328 376.446 407.594 375.662L409.022 375.872C408.616 377.272 407.146 378.28 405.522 378.28C403.296 378.28 401.7 376.642 401.7 374.36ZM414.772 378H412.77L410.474 370.888H412.056L413.834 376.502L415.402 370.888H417.012L418.636 376.53L420.386 370.888H421.954L419.63 378H417.628L416.214 372.652L414.772 378ZM428.396 375.998V372.078H427.304V370.888H428.48L428.676 369.166H429.922V370.888H431.658V372.078H429.922V375.9C429.922 376.544 430.314 376.992 430.958 376.992C431.154 376.992 431.49 376.95 431.756 376.866V378.084C431.392 378.21 430.888 378.28 430.496 378.28C429.222 378.28 428.396 377.356 428.396 375.998ZM433.44 367.668H434.966V371.742C435.442 371.028 436.338 370.608 437.234 370.608C438.998 370.608 440.118 371.882 440.118 373.646V378H438.606V373.772C438.606 372.722 437.976 371.966 436.912 371.966C435.848 371.966 434.966 372.778 434.966 373.912V378H433.44V367.668ZM443.245 373.786H447.669C447.501 372.666 446.605 371.882 445.429 371.882C444.281 371.882 443.441 372.652 443.245 373.786ZM441.663 374.36C441.663 372.176 443.259 370.608 445.471 370.608C447.683 370.608 449.251 372.176 449.251 374.374C449.251 374.542 449.237 374.752 449.223 374.92L443.231 374.906C443.413 376.166 444.295 377.006 445.457 377.006C446.409 377.006 447.291 376.446 447.557 375.662L448.985 375.872C448.579 377.272 447.109 378.28 445.485 378.28C443.259 378.28 441.663 376.642 441.663 374.36ZM456.493 373.786H460.917C460.749 372.666 459.853 371.882 458.677 371.882C457.529 371.882 456.689 372.652 456.493 373.786ZM454.911 374.36C454.911 372.176 456.507 370.608 458.719 370.608C460.931 370.608 462.499 372.176 462.499 374.374C462.499 374.542 462.485 374.752 462.471 374.92L456.479 374.906C456.661 376.166 457.543 377.006 458.705 377.006C459.657 377.006 460.539 376.446 460.805 375.662L462.233 375.872C461.827 377.272 460.357 378.28 458.733 378.28C456.507 378.28 454.911 376.642 454.911 374.36ZM464.175 370.888H465.673V371.798C466.177 371.056 467.059 370.608 467.983 370.608C469.719 370.608 470.853 371.896 470.853 373.66V378H469.341V373.772C469.341 372.722 468.711 371.966 467.647 371.966C466.583 371.966 465.701 372.778 465.701 373.912V378H464.175V370.888ZM473.349 375.998V372.078H472.257V370.888H473.433L473.629 369.166H474.875V370.888H476.611V372.078H474.875V375.9C474.875 376.544 475.267 376.992 475.911 376.992C476.107 376.992 476.443 376.95 476.709 376.866V378.084C476.345 378.21 475.841 378.28 475.449 378.28C474.175 378.28 473.349 377.356 473.349 375.998ZM478.589 370.888H480.101V378H478.589V370.888ZM479.345 369.74C478.785 369.74 478.393 369.348 478.393 368.802C478.393 368.27 478.785 367.892 479.345 367.892C479.891 367.892 480.283 368.27 480.283 368.802C480.283 369.348 479.891 369.74 479.345 369.74ZM482.303 370.888H483.773V371.798C484.207 371.07 484.893 370.636 485.705 370.636C485.985 370.636 486.307 370.706 486.615 370.818V372.176C486.223 372.008 485.789 371.952 485.509 371.952C484.501 371.952 483.829 372.848 483.829 374.108V378H482.303V370.888ZM488.84 373.786H493.264C493.096 372.666 492.2 371.882 491.024 371.882C489.876 371.882 489.036 372.652 488.84 373.786ZM487.258 374.36C487.258 372.176 488.854 370.608 491.066 370.608C493.278 370.608 494.846 372.176 494.846 374.374C494.846 374.542 494.832 374.752 494.818 374.92L488.826 374.906C489.008 376.166 489.89 377.006 491.052 377.006C492.004 377.006 492.886 376.446 493.152 375.662L494.58 375.872C494.174 377.272 492.704 378.28 491.08 378.28C488.854 378.28 487.258 376.642 487.258 374.36ZM500.842 367.668H502.354V378H500.842V367.668ZM504.566 370.888H506.078V378H504.566V370.888ZM505.322 369.74C504.762 369.74 504.37 369.348 504.37 368.802C504.37 368.27 504.762 367.892 505.322 367.892C505.868 367.892 506.26 368.27 506.26 368.802C506.26 369.348 505.868 369.74 505.322 369.74ZM514.384 375.858C514.384 377.272 513.096 378.294 511.29 378.294C509.414 378.294 508.056 377.16 508.056 375.592H509.456C509.456 376.432 510.226 377.048 511.29 377.048C512.242 377.048 512.928 376.614 512.914 376.026C512.914 375.284 511.808 375.102 511.094 375.004C509.428 374.752 508.168 374.542 508.168 372.848C508.168 371.546 509.414 370.594 511.024 370.594C512.858 370.594 514.202 371.616 514.202 373.03H512.788C512.774 372.33 512.032 371.84 511.01 371.84C510.24 371.84 509.596 372.26 509.596 372.834C509.596 373.366 510.128 373.534 511.276 373.73C512.634 373.954 514.384 374.248 514.384 375.858ZM516.292 375.998V372.078H515.2V370.888H516.376L516.572 369.166H517.818V370.888H519.554V372.078H517.818V375.9C517.818 376.544 518.21 376.992 518.854 376.992C519.05 376.992 519.386 376.95 519.652 376.866V378.084C519.288 378.21 518.784 378.28 518.392 378.28C517.118 378.28 516.292 377.356 516.292 375.998ZM529.171 370.608C531.439 370.608 533.035 372.19 533.035 374.444C533.035 376.698 531.439 378.28 529.171 378.28C526.889 378.28 525.307 376.698 525.307 374.444C525.307 372.19 526.889 370.608 529.171 370.608ZM529.171 376.922C530.529 376.922 531.523 375.886 531.523 374.444C531.523 373.002 530.529 371.966 529.171 371.966C527.799 371.966 526.833 373.002 526.833 374.444C526.833 375.886 527.799 376.922 529.171 376.922ZM536.976 369.796V370.888H538.698V372.078H536.976V378H535.464V372.078H534.372V370.888H535.464V369.67C535.464 368.298 536.29 367.388 537.508 367.388C537.956 367.388 538.334 367.458 538.698 367.584V368.858C538.46 368.788 538.236 368.746 537.97 368.746C537.382 368.746 536.99 369.166 536.976 369.796ZM548.359 376.852C549.717 376.852 550.711 375.83 550.711 374.444C550.711 373.03 549.703 372.036 548.359 372.036C547.001 372.036 546.021 373.058 546.021 374.444C546.021 375.83 547.001 376.852 548.359 376.852ZM552.223 374.444C552.223 376.67 550.725 378.28 548.653 378.28C547.589 378.28 546.679 377.818 546.077 377.034V381.22H544.551V370.888H546.035V371.882C546.651 371.084 547.561 370.608 548.653 370.608C550.711 370.608 552.223 372.218 552.223 374.444ZM557.431 376.922C558.789 376.922 559.769 375.886 559.769 374.444C559.769 373.002 558.789 371.966 557.431 371.966C556.073 371.966 555.079 373.002 555.079 374.444C555.079 375.872 556.073 376.922 557.431 376.922ZM559.783 371.952V370.888H561.309V378H559.783V376.936C559.181 377.776 558.243 378.28 557.137 378.28C555.051 378.28 553.567 376.67 553.567 374.444C553.567 372.218 555.051 370.608 557.137 370.608C558.243 370.608 559.181 371.112 559.783 371.952ZM563.939 375.998V372.078H562.847V370.888H564.023L564.219 369.166H565.465V370.888H567.201V372.078H565.465V375.9C565.465 376.544 565.857 376.992 566.501 376.992C566.697 376.992 567.033 376.95 567.299 376.866V378.084C566.935 378.21 566.431 378.28 566.039 378.28C564.765 378.28 563.939 377.356 563.939 375.998ZM569.179 370.888H570.691V378H569.179V370.888ZM569.935 369.74C569.375 369.74 568.983 369.348 568.983 368.802C568.983 368.27 569.375 367.892 569.935 367.892C570.481 367.892 570.873 368.27 570.873 368.802C570.873 369.348 570.481 369.74 569.935 369.74ZM574.139 373.786H578.563C578.395 372.666 577.499 371.882 576.323 371.882C575.175 371.882 574.335 372.652 574.139 373.786ZM572.557 374.36C572.557 372.176 574.153 370.608 576.365 370.608C578.577 370.608 580.145 372.176 580.145 374.374C580.145 374.542 580.131 374.752 580.117 374.92L574.125 374.906C574.307 376.166 575.189 377.006 576.351 377.006C577.303 377.006 578.185 376.446 578.451 375.662L579.879 375.872C579.473 377.272 578.003 378.28 576.379 378.28C574.153 378.28 572.557 376.642 572.557 374.36ZM581.821 370.888H583.319V371.798C583.823 371.056 584.705 370.608 585.629 370.608C587.365 370.608 588.499 371.896 588.499 373.66V378H586.987V373.772C586.987 372.722 586.357 371.966 585.293 371.966C584.229 371.966 583.347 372.778 583.347 373.912V378H581.821V370.888ZM590.996 375.998V372.078H589.904V370.888H591.08L591.276 369.166H592.522V370.888H594.258V372.078H592.522V375.9C592.522 376.544 592.914 376.992 593.558 376.992C593.754 376.992 594.09 376.95 594.356 376.866V378.084C593.992 378.21 593.488 378.28 593.096 378.28C591.822 378.28 590.996 377.356 590.996 375.998ZM596.586 369.628C596.068 369.628 595.718 369.25 595.718 368.704C595.718 368.172 596.11 367.794 596.642 367.794C597.244 367.794 597.65 368.298 597.65 369.068C597.65 370.02 597.16 371.028 596.488 371.476L595.732 371.084C596.236 370.72 596.586 370.118 596.586 369.628ZM605.015 375.858C605.015 377.272 603.727 378.294 601.921 378.294C600.045 378.294 598.687 377.16 598.687 375.592H600.087C600.087 376.432 600.857 377.048 601.921 377.048C602.873 377.048 603.559 376.614 603.545 376.026C603.545 375.284 602.439 375.102 601.725 375.004C600.059 374.752 598.799 374.542 598.799 372.848C598.799 371.546 600.045 370.594 601.655 370.594C603.489 370.594 604.833 371.616 604.833 373.03H603.419C603.405 372.33 602.663 371.84 601.641 371.84C600.871 371.84 600.227 372.26 600.227 372.834C600.227 373.366 600.759 373.534 601.907 373.73C603.265 373.954 605.015 374.248 605.015 375.858ZM388.008 392.888H389.478V393.798C389.912 393.07 390.598 392.636 391.41 392.636C391.69 392.636 392.012 392.706 392.32 392.818V394.176C391.928 394.008 391.494 393.952 391.214 393.952C390.206 393.952 389.534 394.848 389.534 396.108V400H388.008V392.888ZM394.546 395.786H398.97C398.802 394.666 397.906 393.882 396.73 393.882C395.582 393.882 394.742 394.652 394.546 395.786ZM392.964 396.36C392.964 394.176 394.56 392.608 396.772 392.608C398.984 392.608 400.552 394.176 400.552 396.374C400.552 396.542 400.538 396.752 400.524 396.92L394.532 396.906C394.714 398.166 395.596 399.006 396.758 399.006C397.71 399.006 398.592 398.446 398.858 397.662L400.286 397.872C399.88 399.272 398.41 400.28 396.786 400.28C394.56 400.28 392.964 398.642 392.964 396.36ZM405.643 392.608C407.449 392.608 408.933 393.742 409.185 395.31L407.729 395.492C407.505 394.568 406.637 393.91 405.657 393.91C404.397 393.91 403.403 394.974 403.403 396.444C403.417 397.914 404.383 398.978 405.657 398.978C406.665 398.978 407.491 398.32 407.743 397.41L409.199 397.592C408.905 399.146 407.407 400.28 405.657 400.28C403.473 400.28 401.891 398.67 401.891 396.444C401.891 394.218 403.473 392.608 405.643 392.608ZM414.396 392.608C416.664 392.608 418.26 394.19 418.26 396.444C418.26 398.698 416.664 400.28 414.396 400.28C412.114 400.28 410.532 398.698 410.532 396.444C410.532 394.19 412.114 392.608 414.396 392.608ZM414.396 398.922C415.754 398.922 416.748 397.886 416.748 396.444C416.748 395.002 415.754 393.966 414.396 393.966C413.024 393.966 412.058 395.002 412.058 396.444C412.058 397.886 413.024 398.922 414.396 398.922ZM419.932 392.888H421.402V393.798C421.836 393.07 422.522 392.636 423.334 392.636C423.614 392.636 423.936 392.706 424.244 392.818V394.176C423.852 394.008 423.418 393.952 423.138 393.952C422.13 393.952 421.458 394.848 421.458 396.108V400H419.932V392.888ZM428.751 394.036C427.393 394.036 426.399 395.058 426.399 396.444C426.399 397.858 427.407 398.852 428.751 398.852C430.109 398.852 431.089 397.83 431.089 396.444C431.089 395.058 430.109 394.036 428.751 394.036ZM424.887 396.444C424.887 394.218 426.385 392.608 428.457 392.608C429.521 392.608 430.431 393.07 431.033 393.854V389.668H432.559V400H431.075V399.006C430.459 399.804 429.549 400.28 428.457 400.28C426.399 400.28 424.887 398.67 424.887 396.444ZM440.679 397.858C440.679 399.272 439.391 400.294 437.585 400.294C435.709 400.294 434.351 399.16 434.351 397.592H435.751C435.751 398.432 436.521 399.048 437.585 399.048C438.537 399.048 439.223 398.614 439.209 398.026C439.209 397.284 438.103 397.102 437.389 397.004C435.723 396.752 434.463 396.542 434.463 394.848C434.463 393.546 435.709 392.594 437.319 392.594C439.153 392.594 440.497 393.616 440.497 395.03H439.083C439.069 394.33 438.327 393.84 437.305 393.84C436.535 393.84 435.891 394.26 435.891 394.834C435.891 395.366 436.423 395.534 437.571 395.73C438.929 395.954 440.679 396.248 440.679 397.858ZM446.716 402.926V401.694C447.024 401.806 447.374 401.89 447.654 401.89C448.634 401.89 448.928 400.91 449.292 400.028L446.086 392.888H447.752L449.978 398.138L451.91 392.888H453.506L450.72 400.168C450.104 401.806 449.474 403.164 447.962 403.164C447.556 403.164 447.08 403.08 446.716 402.926ZM458.036 392.608C460.304 392.608 461.9 394.19 461.9 396.444C461.9 398.698 460.304 400.28 458.036 400.28C455.754 400.28 454.172 398.698 454.172 396.444C454.172 394.19 455.754 392.608 458.036 392.608ZM458.036 398.922C459.394 398.922 460.388 397.886 460.388 396.444C460.388 395.002 459.394 393.966 458.036 393.966C456.664 393.966 455.698 395.002 455.698 396.444C455.698 397.886 456.664 398.922 458.036 398.922ZM470.111 400H468.613V399.09C468.123 399.832 467.227 400.28 466.317 400.28C464.567 400.28 463.433 398.992 463.433 397.228V392.888H464.959V397.116C464.959 398.166 465.575 398.922 466.653 398.922C467.703 398.922 468.599 398.11 468.599 396.976V392.888H470.111V400ZM476.452 389.668H477.978V393.742C478.454 393.028 479.35 392.608 480.246 392.608C482.01 392.608 483.13 393.882 483.13 395.646V400H481.618V395.772C481.618 394.722 480.988 393.966 479.924 393.966C478.86 393.966 477.978 394.778 477.978 395.912V400H476.452V389.668ZM488.538 398.922C489.896 398.922 490.876 397.886 490.876 396.444C490.876 395.002 489.896 393.966 488.538 393.966C487.18 393.966 486.186 395.002 486.186 396.444C486.186 397.872 487.18 398.922 488.538 398.922ZM490.89 393.952V392.888H492.416V400H490.89V398.936C490.288 399.776 489.35 400.28 488.244 400.28C486.158 400.28 484.674 398.67 484.674 396.444C484.674 394.218 486.158 392.608 488.244 392.608C489.35 392.608 490.288 393.112 490.89 393.952ZM498.546 400H496.404L493.8 392.888H495.424L497.468 398.824L499.526 392.888H501.164L498.546 400ZM503.442 395.786H507.866C507.698 394.666 506.802 393.882 505.626 393.882C504.478 393.882 503.638 394.652 503.442 395.786ZM501.86 396.36C501.86 394.176 503.456 392.608 505.668 392.608C507.88 392.608 509.448 394.176 509.448 396.374C509.448 396.542 509.434 396.752 509.42 396.92L503.428 396.906C503.61 398.166 504.492 399.006 505.654 399.006C506.606 399.006 507.488 398.446 507.754 397.662L509.182 397.872C508.776 399.272 507.306 400.28 505.682 400.28C503.456 400.28 501.86 398.642 501.86 396.36ZM518.972 398.922C520.33 398.922 521.31 397.886 521.31 396.444C521.31 395.002 520.33 393.966 518.972 393.966C517.614 393.966 516.62 395.002 516.62 396.444C516.62 397.872 517.614 398.922 518.972 398.922ZM521.324 393.952V392.888H522.85V400H521.324V398.936C520.722 399.776 519.784 400.28 518.678 400.28C516.592 400.28 515.108 398.67 515.108 396.444C515.108 394.218 516.592 392.608 518.678 392.608C519.784 392.608 520.722 393.112 521.324 393.952ZM528.28 392.608C530.086 392.608 531.57 393.742 531.822 395.31L530.366 395.492C530.142 394.568 529.274 393.91 528.294 393.91C527.034 393.91 526.04 394.974 526.04 396.444C526.054 397.914 527.02 398.978 528.294 398.978C529.302 398.978 530.128 398.32 530.38 397.41L531.836 397.592C531.542 399.146 530.044 400.28 528.294 400.28C526.11 400.28 524.528 398.67 524.528 396.444C524.528 394.218 526.11 392.608 528.28 392.608ZM536.934 392.608C538.74 392.608 540.224 393.742 540.476 395.31L539.02 395.492C538.796 394.568 537.928 393.91 536.948 393.91C535.688 393.91 534.694 394.974 534.694 396.444C534.708 397.914 535.674 398.978 536.948 398.978C537.956 398.978 538.782 398.32 539.034 397.41L540.49 397.592C540.196 399.146 538.698 400.28 536.948 400.28C534.764 400.28 533.182 398.67 533.182 396.444C533.182 394.218 534.764 392.608 536.934 392.608ZM543.419 395.786H547.843C547.675 394.666 546.779 393.882 545.603 393.882C544.455 393.882 543.615 394.652 543.419 395.786ZM541.837 396.36C541.837 394.176 543.433 392.608 545.645 392.608C547.857 392.608 549.425 394.176 549.425 396.374C549.425 396.542 549.411 396.752 549.397 396.92L543.405 396.906C543.587 398.166 544.469 399.006 545.631 399.006C546.583 399.006 547.465 398.446 547.731 397.662L549.159 397.872C548.753 399.272 547.283 400.28 545.659 400.28C543.433 400.28 541.837 398.642 541.837 396.36ZM557.204 397.858C557.204 399.272 555.916 400.294 554.11 400.294C552.234 400.294 550.876 399.16 550.876 397.592H552.276C552.276 398.432 553.046 399.048 554.11 399.048C555.062 399.048 555.748 398.614 555.734 398.026C555.734 397.284 554.628 397.102 553.914 397.004C552.248 396.752 550.988 396.542 550.988 394.848C550.988 393.546 552.234 392.594 553.844 392.594C555.678 392.594 557.022 393.616 557.022 395.03H555.608C555.594 394.33 554.852 393.84 553.83 393.84C553.06 393.84 552.416 394.26 552.416 394.834C552.416 395.366 552.948 395.534 554.096 395.73C555.454 395.954 557.204 396.248 557.204 397.858ZM565.025 397.858C565.025 399.272 563.737 400.294 561.931 400.294C560.055 400.294 558.697 399.16 558.697 397.592H560.097C560.097 398.432 560.867 399.048 561.931 399.048C562.883 399.048 563.569 398.614 563.555 398.026C563.555 397.284 562.449 397.102 561.735 397.004C560.069 396.752 558.809 396.542 558.809 394.848C558.809 393.546 560.055 392.594 561.665 392.594C563.499 392.594 564.843 393.616 564.843 395.03H563.429C563.415 394.33 562.673 393.84 561.651 393.84C560.881 393.84 560.237 394.26 560.237 394.834C560.237 395.366 560.769 395.534 561.917 395.73C563.275 395.954 565.025 396.248 565.025 397.858ZM567.987 395.786H572.411C572.243 394.666 571.347 393.882 570.171 393.882C569.023 393.882 568.183 394.652 567.987 395.786ZM566.405 396.36C566.405 394.176 568.001 392.608 570.213 392.608C572.425 392.608 573.993 394.176 573.993 396.374C573.993 396.542 573.979 396.752 573.965 396.92L567.973 396.906C568.155 398.166 569.037 399.006 570.199 399.006C571.151 399.006 572.033 398.446 572.299 397.662L573.727 397.872C573.321 399.272 571.851 400.28 570.227 400.28C568.001 400.28 566.405 398.642 566.405 396.36ZM579.197 394.036C577.839 394.036 576.845 395.058 576.845 396.444C576.845 397.858 577.853 398.852 579.197 398.852C580.555 398.852 581.535 397.83 581.535 396.444C581.535 395.058 580.555 394.036 579.197 394.036ZM575.333 396.444C575.333 394.218 576.831 392.608 578.903 392.608C579.967 392.608 580.877 393.07 581.479 393.854V389.668H583.005V400H581.521V399.006C580.905 399.804 579.995 400.28 578.903 400.28C576.845 400.28 575.333 398.67 575.333 396.444ZM585.622 400.196C585.076 400.196 584.684 399.804 584.684 399.258C584.684 398.726 585.076 398.348 585.622 398.348C586.182 398.348 586.56 398.726 586.56 399.258C586.56 399.804 586.182 400.196 585.622 400.196Z" fill="#515151"/>
</g>
<defs>
<filter id="filter0_bd_734_1290" x="89.4087" y="0" width="487.833" height="421.953" filterUnits="userSpaceOnUse" color-interpolation-filters="sRGB">
<feFlood flood-opacity="0" result="BackgroundImageFix"/>
<feGaussianBlur in="BackgroundImageFix" stdDeviation="10"/>
<feComposite in2="SourceAlpha" operator="in" result="effect1_backgroundBlur_734_1290"/>
<feColorMatrix in="SourceAlpha" type="matrix" values="0 0 0 0 0 0 0 0 0 0 0 0 0 0 0 0 0 0 127 0" result="hardAlpha"/>
<feOffset dy="4"/>
<feGaussianBlur stdDeviation="50"/>
<feComposite in2="hardAlpha" operator="out"/>
<feColorMatrix type="matrix" values="0 0 0 0 0 0 0 0 0 0 0 0 0 0 0 0 0 0 0.05 0"/>
<feBlend mode="normal" in2="effect1_backgroundBlur_734_1290" result="effect2_dropShadow_734_1290"/>
<feBlend mode="normal" in="SourceGraphic" in2="effect2_dropShadow_734_1290" result="shape"/>
</filter>
<filter id="filter1_bd_734_1290" x="392.928" y="57.2531" width="396.072" height="364.7" filterUnits="userSpaceOnUse" color-interpolation-filters="sRGB">
<feFlood flood-opacity="0" result="BackgroundImageFix"/>
<feGaussianBlur in="BackgroundImageFix" stdDeviation="10"/>
<feComposite in2="SourceAlpha" operator="in" result="effect1_backgroundBlur_734_1290"/>
<feColorMatrix in="SourceAlpha" type="matrix" values="0 0 0 0 0 0 0 0 0 0 0 0 0 0 0 0 0 0 127 0" result="hardAlpha"/>
<feOffset dy="4"/>
<feGaussianBlur stdDeviation="50"/>
<feComposite in2="hardAlpha" operator="out"/>
<feColorMatrix type="matrix" values="0 0 0 0 0 0 0 0 0 0 0 0 0 0 0 0 0 0 0.05 0"/>
<feBlend mode="normal" in2="effect1_backgroundBlur_734_1290" result="effect2_dropShadow_734_1290"/>
<feBlend mode="normal" in="SourceGraphic" in2="effect2_dropShadow_734_1290" result="shape"/>
</filter>
<filter id="filter2_bd_734_1290" x="0" y="237.639" width="381.17" height="359.21" filterUnits="userSpaceOnUse" color-interpolation-filters="sRGB">
<feFlood flood-opacity="0" result="BackgroundImageFix"/>
<feGaussianBlur in="BackgroundImageFix" stdDeviation="10"/>
<feComposite in2="SourceAlpha" operator="in" result="effect1_backgroundBlur_734_1290"/>
<feColorMatrix in="SourceAlpha" type="matrix" values="0 0 0 0 0 0 0 0 0 0 0 0 0 0 0 0 0 0 127 0" result="hardAlpha"/>
<feOffset dy="4"/>
<feGaussianBlur stdDeviation="50"/>
<feComposite in2="hardAlpha" operator="out"/>
<feColorMatrix type="matrix" values="0 0 0 0 0 0 0 0 0 0 0 0 0 0 0 0 0 0 0.05 0"/>
<feBlend mode="normal" in2="effect1_backgroundBlur_734_1290" result="effect2_dropShadow_734_1290"/>
<feBlend mode="normal" in="SourceGraphic" in2="effect2_dropShadow_734_1290" result="shape"/>
</filter>
<filter id="filter3_bd_734_1290" x="196.856" y="237.639" width="559.988" height="301.957" filterUnits="userSpaceOnUse" color-interpolation-filters="sRGB">
<feFlood flood-opacity="0" result="BackgroundImageFix"/>
<feGaussianBlur in="BackgroundImageFix" stdDeviation="10"/>
<feComposite in2="SourceAlpha" operator="in" result="effect1_backgroundBlur_734_1290"/>
<feColorMatrix in="SourceAlpha" type="matrix" values="0 0 0 0 0 0 0 0 0 0 0 0 0 0 0 0 0 0 127 0" result="hardAlpha"/>
<feOffset dy="4"/>
<feGaussianBlur stdDeviation="50"/>
<feComposite in2="hardAlpha" operator="out"/>
<feColorMatrix type="matrix" values="0 0 0 0 0 0 0 0 0 0 0 0 0 0 0 0 0 0 0.05 0"/>
<feBlend mode="normal" in2="effect1_backgroundBlur_734_1290" result="effect2_dropShadow_734_1290"/>
<feBlend mode="normal" in="SourceGraphic" in2="effect2_dropShadow_734_1290" result="shape"/>
</filter>
<clipPath id="clip0_734_1290">
<rect width="35" height="35" fill="white" transform="translate(572.5 186)"/>
</clipPath>
</defs>
</svg>
