<svg width="88" height="30" viewBox="0 0 88 30" fill="none" xmlns="http://www.w3.org/2000/svg">
<path d="M4.40341 9.57955L7.65625 20.233H7.77699L11.0298 9.57955H14.9645L10.0568 24.125H5.37642L0.46875 9.57955H4.40341ZM23.3168 15.517V18.1875H16.5838V15.517H23.3168ZM33.631 13.9403C33.5837 13.4195 33.373 13.0147 32.9989 12.7259C32.6296 12.4323 32.1017 12.2855 31.4151 12.2855C30.9606 12.2855 30.5818 12.3447 30.2788 12.4631C29.9757 12.5814 29.7485 12.7448 29.5969 12.9531C29.4454 13.1567 29.3673 13.3911 29.3626 13.6562C29.3531 13.8741 29.3957 14.0658 29.4904 14.2315C29.5898 14.3973 29.7319 14.544 29.9165 14.6719C30.1059 14.795 30.3332 14.9039 30.5984 14.9986C30.8635 15.0933 31.1618 15.1761 31.4933 15.2472L32.7433 15.5312C33.463 15.6875 34.0974 15.8958 34.6467 16.1562C35.2006 16.4167 35.6647 16.7268 36.0387 17.0866C36.4175 17.4465 36.704 17.8608 36.8981 18.3295C37.0922 18.7983 37.1916 19.3239 37.1964 19.9062C37.1916 20.8248 36.9596 21.6132 36.5004 22.2713C36.0411 22.9295 35.3806 23.4337 34.5188 23.7841C33.6618 24.1345 32.6272 24.3097 31.4151 24.3097C30.1983 24.3097 29.1377 24.1274 28.2333 23.7628C27.329 23.3982 26.6258 22.8442 26.1239 22.1009C25.622 21.3575 25.364 20.4176 25.3498 19.2812H28.7163C28.7447 19.75 28.8701 20.1406 29.0927 20.4531C29.3152 20.7656 29.6206 21.0024 30.0089 21.1634C30.4019 21.3243 30.8564 21.4048 31.3725 21.4048C31.846 21.4048 32.2485 21.3409 32.5799 21.2131C32.9161 21.0852 33.1741 20.9077 33.354 20.6804C33.534 20.4531 33.6263 20.1927 33.631 19.8991C33.6263 19.6245 33.5411 19.3902 33.3754 19.196C33.2096 18.9972 32.954 18.8267 32.6083 18.6847C32.2674 18.5379 31.8318 18.4029 31.3015 18.2798L29.7816 17.9247C28.5221 17.6359 27.5302 17.1695 26.8058 16.5256C26.0813 15.8769 25.7215 15.0009 25.7262 13.8977C25.7215 12.9981 25.9629 12.2098 26.4506 11.5327C26.9383 10.8556 27.613 10.3277 28.4748 9.94886C29.3365 9.57008 30.319 9.38068 31.4222 9.38068C32.5491 9.38068 33.5269 9.57244 34.3555 9.95597C35.1888 10.3348 35.8351 10.8674 36.2944 11.554C36.7537 12.2405 36.988 13.036 36.9975 13.9403H33.631ZM42.4876 9.57955V24.125H38.9719V9.57955H42.4876ZM47.8409 24.125H44.0625L48.9702 9.57955H53.6506L58.5582 24.125H54.7798L51.3636 13.2443H51.25L47.8409 24.125ZM47.3366 18.4006H55.2344V21.071H47.3366V18.4006ZM60.1243 24.125V9.57955H63.6399V15.4176H69.3714V9.57955H72.88V24.125H69.3714V18.2798H63.6399V24.125H60.1243Z" fill="white"/>
<rect x="77" width="10.832" height="10.6719" rx="2" fill="white"/>
<path d="M79.6133 5.32031C79.6133 5.72656 79.6823 6.10417 79.8203 6.45312C79.9583 6.79948 80.1497 7.09505 80.3945 7.33984C80.6393 7.58464 80.9349 7.77604 81.2812 7.91406C81.6302 8.05208 82.0078 8.12109 82.4141 8.12109C82.8203 8.12109 83.1966 8.05208 83.543 7.91406C83.8919 7.77604 84.1888 7.58464 84.4336 7.33984C84.6784 7.09505 84.8698 6.79948 85.0078 6.45312C85.1458 6.10417 85.2148 5.72656 85.2148 5.32031C85.2148 4.79167 85.0964 4.31771 84.8594 3.89844C84.625 3.47656 84.2943 3.14714 83.8672 2.91016C83.4401 2.67057 82.9557 2.55078 82.4141 2.55078C81.8724 2.55078 81.388 2.67057 80.9609 2.91016C80.5339 3.14714 80.2018 3.47656 79.9648 3.89844C79.7305 4.31771 79.6133 4.79167 79.6133 5.32031ZM82.6719 3.78125H81.6641V5.26172H82.7109C82.9453 5.26172 83.1354 5.19271 83.2812 5.05469C83.4297 4.91406 83.5039 4.73047 83.5039 4.50391C83.5039 4.27734 83.4284 4.10026 83.2773 3.97266C83.1289 3.84505 82.9271 3.78125 82.6719 3.78125ZM82.4062 8.67188C81.9115 8.67188 81.4518 8.58854 81.0273 8.42188C80.6055 8.25781 80.2461 8.02995 79.9492 7.73828C79.6523 7.44661 79.4193 7.09245 79.25 6.67578C79.0833 6.25911 79 5.80729 79 5.32031C79 4.84375 79.0833 4.39974 79.25 3.98828C79.4193 3.57682 79.6523 3.22526 79.9492 2.93359C80.2461 2.64193 80.6055 2.41406 81.0273 2.25C81.4518 2.08333 81.9115 2 82.4062 2C82.9036 2 83.3646 2.08203 83.7891 2.24609C84.2161 2.41016 84.5781 2.63672 84.875 2.92578C85.1745 3.21484 85.4089 3.56641 85.5781 3.98047C85.7474 4.39193 85.832 4.83854 85.832 5.32031C85.832 5.97135 85.6875 6.55208 85.3984 7.0625C85.1094 7.57031 84.7044 7.96484 84.1836 8.24609C83.6628 8.52995 83.0703 8.67188 82.4062 8.67188ZM83.1992 5.65625L84.1094 7.28906H83.3828L82.5508 5.71875H81.6641V7.28906H81.0156V3.30469H82.8008C83.1992 3.30469 83.5247 3.41927 83.7773 3.64844C84.0326 3.875 84.1602 4.16276 84.1602 4.51172C84.1602 4.80078 84.0729 5.04818 83.8984 5.25391C83.724 5.45703 83.4909 5.59115 83.1992 5.65625Z" fill="#122A54"/>
</svg>
