<svg width="20" height="21" viewBox="0 0 20 21" fill="none" xmlns="http://www.w3.org/2000/svg">
<g id="apple-logo 1" clip-path="url(#clip0_722_984)">
<g id="Group">
<g id="Group_2">
<path id="Vector" d="M13.849 0.5C13.8956 0.5 13.9421 0.5 13.9913 0.5C14.1055 1.91044 13.5671 2.96432 12.9128 3.72751C12.2708 4.48542 11.3917 5.2205 9.96985 5.10897C9.875 3.71872 10.4142 2.74301 11.0676 1.98158C11.6736 1.27197 12.7846 0.640517 13.849 0.5Z" fill="url(#paint0_linear_722_984)"/>
<path id="Vector_2" d="M18.1529 15.1805C18.1529 15.1945 18.1529 15.2068 18.1529 15.22C17.7533 16.4302 17.1834 17.4674 16.4878 18.4299C15.8528 19.3038 15.0747 20.4797 13.6854 20.4797C12.4848 20.4797 11.6874 19.7078 10.457 19.6867C9.15543 19.6656 8.43967 20.3322 7.24967 20.4999C7.11354 20.4999 6.97742 20.4999 6.84392 20.4999C5.97008 20.3735 5.26486 19.6814 4.75109 19.0579C3.23614 17.2153 2.06546 14.8353 1.84766 11.7896C1.84766 11.491 1.84766 11.1933 1.84766 10.8947C1.93987 8.71493 2.99902 6.94266 4.40683 6.08374C5.14981 5.62706 6.1712 5.23801 7.30851 5.4119C7.79593 5.48742 8.29389 5.65429 8.73037 5.8194C9.14402 5.97836 9.66129 6.26027 10.1513 6.24534C10.4833 6.23568 10.8135 6.06267 11.1481 5.94059C12.1283 5.58667 13.089 5.18092 14.3555 5.3715C15.8774 5.60159 16.9577 6.27783 17.6251 7.32118C16.3376 8.14057 15.3197 9.37536 15.4936 11.484C15.6482 13.3994 16.7618 14.5201 18.1529 15.1805Z" fill="url(#paint1_linear_722_984)"/>
</g>
</g>
</g>
<defs>
<linearGradient id="paint0_linear_722_984" x1="9.95898" y1="0.5" x2="14.0882" y2="0.585286" gradientUnits="userSpaceOnUse">
<stop stop-color="#4582BD"/>
<stop offset="1" stop-color="#091F42"/>
</linearGradient>
<linearGradient id="paint1_linear_722_984" x1="1.84766" y1="5.32275" x2="18.4778" y2="5.74397" gradientUnits="userSpaceOnUse">
<stop stop-color="#4582BD"/>
<stop offset="1" stop-color="#091F42"/>
</linearGradient>
<clipPath id="clip0_722_984">
<rect width="20" height="20" fill="white" transform="translate(0 0.5)"/>
</clipPath>
</defs>
</svg>
