<svg width="121" height="32" viewBox="0 0 121 32" fill="none" xmlns="http://www.w3.org/2000/svg">
<g id="Item &#226;&#143;&#181; Link" clip-path="url(#clip0_722_914)">
<path id="Vector" d="M18.7643 14.7717C18.7643 13.7828 19.0216 12.8393 19.5363 11.9412C20.0509 11.0431 20.7321 10.3215 21.5797 9.77661C21.0348 8.96932 20.3335 8.34871 19.4757 7.91479C18.618 7.48088 17.7148 7.23364 16.7662 7.1731C15.7773 7.07218 14.8237 7.24878 13.9054 7.70288C12.9871 8.15698 12.2757 8.38403 11.7711 8.38403C11.2666 8.38403 10.6359 8.18726 9.87904 7.7937C9.1222 7.40015 8.31996 7.23364 7.4723 7.29419C6.32191 7.33455 5.27243 7.65243 4.32386 8.2478C3.3753 8.84318 2.62855 9.62524 2.08363 10.594C1.49834 11.5829 1.15524 12.6728 1.05433 13.8635C0.933239 15.0543 0.978649 16.245 1.19056 17.4358C1.40248 18.6265 1.73044 19.7668 2.17445 20.8567C2.61846 21.9465 3.12302 22.885 3.68812 23.6721C4.23304 24.4794 4.83851 25.2312 5.50453 25.9275C6.17054 26.6238 6.92738 26.9719 7.77504 26.9719C8.62269 26.9316 9.30384 26.7398 9.81849 26.3967C10.3331 26.0536 11.0849 25.8821 12.0739 25.8821C13.083 25.8821 13.8398 26.0587 14.3444 26.4119C14.8489 26.7651 15.525 26.9215 16.3727 26.8811C17.2809 26.8811 18.0377 26.5481 18.6432 25.8821C19.2487 25.2161 19.8239 24.4794 20.3688 23.6721C20.7724 23.1272 21.1256 22.5369 21.4284 21.9011C21.7311 21.2654 21.9834 20.6246 22.1852 19.9788C21.1357 19.5751 20.3032 18.894 19.6876 17.9353C19.0721 16.9766 18.7643 15.9221 18.7643 14.7717ZM15.4645 5.17505C15.969 4.56958 16.3374 3.90861 16.5695 3.19214C16.8016 2.47567 16.8672 1.73397 16.7662 0.967041C16.0195 1.06795 15.3131 1.28996 14.6471 1.63306C13.9811 1.97616 13.4261 2.42017 12.9821 2.96509C12.4775 3.53019 12.1041 4.1508 11.8619 4.8269C11.6198 5.50301 11.5289 6.22453 11.5895 6.99146C12.3362 6.99146 13.0477 6.84009 13.7238 6.53735C14.3999 6.23462 14.9801 5.78052 15.4645 5.17505ZM34.6881 21.1897H39.1686L36.9889 14.6809H36.8678L34.6881 21.1897ZM39.7741 22.9758H34.0826L32.6901 26.9719H30.2682L35.6871 12.1682H38.1696L43.5885 26.9719H41.1666L39.7741 22.9758ZM52.8825 21.5833C52.8825 20.4732 52.6251 19.5953 52.1105 18.9495C51.5958 18.3036 50.8844 17.9807 49.9762 17.9807C49.1285 17.9807 48.4524 18.3188 47.9479 18.9949C47.4433 19.671 47.191 20.5338 47.191 21.5833C47.191 22.6731 47.4433 23.546 47.9479 24.2019C48.4524 24.8578 49.1285 25.1858 49.9762 25.1858C50.8844 25.1858 51.5958 24.8578 52.1105 24.2019C52.6251 23.546 52.8825 22.6731 52.8825 21.5833ZM55.1832 21.5833C55.1832 23.2786 54.7695 24.6207 53.942 25.6096C53.1146 26.5986 52.0247 27.093 50.6725 27.093C49.9863 27.1334 49.3354 26.977 48.7199 26.6238C48.1043 26.2706 47.625 25.7913 47.2819 25.1858H47.191V30.4836H44.9811V16.1946H47.191V17.9807C47.5341 17.3752 48.0135 16.8959 48.629 16.5427C49.2446 16.1895 49.9257 16.0331 50.6725 16.0735C52.0247 16.0735 53.1146 16.578 53.942 17.5872C54.7695 18.5963 55.1832 19.9283 55.1832 21.5833ZM64.8707 21.5833C64.8707 20.4732 64.6134 19.5953 64.0988 18.9495C63.5841 18.3036 62.8727 17.9807 61.9645 17.9807C61.1168 17.9807 60.4256 18.3188 59.8908 18.9949C59.3559 19.671 59.0885 20.5338 59.0885 21.5833C59.0885 22.6731 59.3458 23.546 59.8605 24.2019C60.3751 24.8578 61.0765 25.1858 61.9645 25.1858C62.8727 25.1858 63.5841 24.8578 64.0988 24.2019C64.6134 23.546 64.8707 22.6731 64.8707 21.5833ZM67.1715 21.5833C67.1715 23.2786 66.7578 24.6207 65.9303 25.6096C65.1028 26.5986 64.0231 27.093 62.691 27.093C61.9847 27.1334 61.3287 26.977 60.7233 26.6238C60.1178 26.2706 59.6334 25.7913 59.2701 25.1858H59.1793V30.4836H56.9694V16.1946H59.1793V17.9807C59.5224 17.3752 60.0018 16.8959 60.6173 16.5427C61.2329 16.1895 61.9241 16.0331 62.691 16.0735C64.0231 16.0735 65.1028 16.578 65.9303 17.5872C66.7578 18.5963 67.1715 19.9283 67.1715 21.5833ZM75.0729 22.885C75.1738 23.6318 75.5522 24.217 76.2081 24.6409C76.8641 25.0647 77.6865 25.2766 78.6754 25.2766C79.624 25.2766 80.396 25.0546 80.9913 24.6106C81.5867 24.1666 81.8844 23.6217 81.8844 22.9758C81.8844 22.4309 81.6725 21.9768 81.2487 21.6135C80.8248 21.2502 80.1386 20.9374 79.1901 20.675L77.2829 20.1907C75.9306 19.8274 74.9266 19.3329 74.2706 18.7073C73.6147 18.0816 73.2868 17.2441 73.2868 16.1946C73.2868 14.8827 73.7863 13.8333 74.7853 13.0461C75.7843 12.259 77.081 11.8655 78.6754 11.8655C80.2295 11.8655 81.506 12.2742 82.505 13.0916C83.504 13.9089 84.0237 14.9433 84.0641 16.1946H81.7936C81.733 15.4277 81.4051 14.8323 80.8097 14.4084C80.2143 13.9846 79.4726 13.7727 78.5846 13.7727C77.6764 13.7727 76.9498 13.9796 76.4049 14.3933C75.86 14.807 75.5875 15.3368 75.5875 15.9827C75.5875 16.4872 75.7995 16.9111 76.2233 17.2542C76.6471 17.5972 77.3333 17.8697 78.2819 18.0715L79.8864 18.4651C81.4404 18.8284 82.5454 19.3279 83.2013 19.9636C83.8572 20.5994 84.1852 21.4722 84.1852 22.5823C84.1852 23.9749 83.6655 25.0748 82.6261 25.8821C81.5867 26.6894 80.1689 27.093 78.3727 27.093C76.7178 27.093 75.3807 26.6944 74.3615 25.8972C73.3423 25.1 72.7822 24.0253 72.6813 22.6731H75.0729V22.885ZM88.9684 13.6819V16.2854H91.0875V18.0715H88.9684V24.0657C88.9684 24.5299 89.0744 24.8831 89.2863 25.1252C89.4982 25.3674 89.8261 25.4885 90.2702 25.4885C90.3711 25.4885 90.4871 25.4835 90.6183 25.4734C90.7495 25.4633 90.8655 25.428 90.9664 25.3674V27.093C90.7848 27.1334 90.5931 27.1586 90.3913 27.1687C90.1894 27.1788 89.9876 27.1838 89.7858 27.1838C88.6758 27.1838 87.8786 26.9618 87.3942 26.5178C86.9098 26.0738 86.6676 25.3271 86.6676 24.2776V18.0715H85.0934V16.2854H86.6676V13.6819H88.9684ZM100.291 21.5833C100.291 20.4329 100.028 19.5297 99.5036 18.8738C98.9788 18.2179 98.2724 17.8899 97.3844 17.8899C96.4762 17.8899 95.7648 18.2179 95.2501 18.8738C94.7355 19.5297 94.4782 20.4329 94.4782 21.5833C94.4782 22.7336 94.7355 23.6368 95.2501 24.2927C95.7648 24.9486 96.4762 25.2766 97.3844 25.2766C98.333 25.2766 99.0545 24.9486 99.549 24.2927C100.043 23.6368 100.291 22.7336 100.291 21.5833ZM92.2682 21.5833C92.2682 19.8879 92.7374 18.5458 93.6759 17.5569C94.6144 16.568 95.8808 16.0735 97.4752 16.0735C99.0696 16.0735 100.336 16.568 101.275 17.5569C102.213 18.5458 102.682 19.8879 102.682 21.5833C102.682 23.2786 102.213 24.6207 101.275 25.6096C100.336 26.5986 99.0696 27.093 97.4752 27.093C95.8808 27.093 94.6144 26.5986 93.6759 25.6096C92.7374 24.6207 92.2682 23.2786 92.2682 21.5833ZM104.468 16.1946H106.588V17.9807H106.678C106.82 17.3752 107.138 16.8909 107.632 16.5276C108.126 16.1643 108.676 15.9827 109.282 15.9827C109.423 15.9827 109.554 15.9877 109.675 15.9978C109.797 16.0079 109.928 16.0331 110.069 16.0735V18.1926C109.928 18.1321 109.766 18.0968 109.585 18.0867C109.403 18.0766 109.231 18.0715 109.07 18.0715C108.485 18.0312 107.955 18.2229 107.481 18.6467C107.006 19.0706 106.769 19.5852 106.769 20.1907C106.769 20.231 106.769 20.2764 106.769 20.3269C106.769 20.3774 106.769 20.4329 106.769 20.4934V26.8811H104.589V16.1946H104.468ZM112.794 20.5842H118.182C118.223 19.8778 118.001 19.2522 117.516 18.7073C117.032 18.1624 116.416 17.8899 115.67 17.8899C115.629 17.8899 115.599 17.8899 115.579 17.8899C115.559 17.8899 115.528 17.8899 115.488 17.8899C114.741 17.8899 114.105 18.1523 113.581 18.677C113.056 19.2017 112.794 19.8375 112.794 20.5842ZM120.271 23.7932C120.13 24.7821 119.625 25.5793 118.757 26.1848C117.89 26.7903 116.83 27.093 115.579 27.093C113.984 27.093 112.738 26.5986 111.84 25.6096C110.942 24.6207 110.493 23.2786 110.493 21.5833C110.493 19.8879 110.947 18.5307 111.855 17.5115C112.763 16.4923 113.974 15.9827 115.488 15.9827C116.981 15.9827 118.172 16.467 119.06 17.4358C119.948 18.4045 120.392 19.6861 120.392 21.2805V22.0676H112.673V22.1887C112.632 22.9355 112.854 23.6065 113.339 24.2019C113.823 24.7973 114.469 25.1252 115.276 25.1858C115.337 25.1858 115.392 25.1858 115.443 25.1858C115.493 25.1858 115.569 25.1858 115.67 25.1858C116.235 25.2262 116.744 25.1101 117.198 24.8376C117.652 24.5652 117.98 24.1767 118.182 23.6721H120.271V23.7932ZM32.9928 7.1731H34.3854C34.9909 7.23364 35.5307 7.052 36.005 6.62817C36.4793 6.20435 36.7366 5.6897 36.777 5.08423C36.777 4.98332 36.777 4.89754 36.777 4.8269C36.777 4.75627 36.777 4.67049 36.777 4.56958C36.8779 3.98429 36.7366 3.43433 36.3532 2.91968C35.9697 2.40503 35.4752 2.12752 34.8698 2.08716C34.8294 2.08716 34.7688 2.08716 34.6881 2.08716C34.6074 2.08716 34.5368 2.08716 34.4762 2.08716H32.9928V7.1731ZM34.3854 1.08813C35.233 1.02759 36 1.27987 36.6862 1.84497C37.3724 2.41007 37.7356 3.12655 37.776 3.99438C37.776 4.07511 37.776 4.16593 37.776 4.26685C37.776 4.36776 37.776 4.46867 37.776 4.56958C37.776 5.71997 37.4834 6.60799 36.8981 7.23364C36.3128 7.85929 35.4752 8.17212 34.3854 8.17212H31.7819V1.08813H34.3854ZM43.0739 5.47778C43.0739 4.87231 42.9528 4.42326 42.7106 4.13062C42.4684 3.83797 42.1253 3.69165 41.6813 3.69165C41.2373 3.69165 40.8942 3.85311 40.652 4.17603C40.4098 4.49894 40.2887 4.93286 40.2887 5.47778C40.2887 6.08325 40.4098 6.53735 40.652 6.84009C40.8942 7.14282 41.2373 7.29419 41.6813 7.29419C42.0849 7.29419 42.4179 7.12769 42.6803 6.79468C42.9427 6.46167 43.0739 6.02271 43.0739 5.47778ZM39.0778 5.47778C39.0374 4.7714 39.2342 4.15584 39.6681 3.6311C40.102 3.10636 40.6722 2.79354 41.3785 2.69263C42.0849 2.63208 42.7156 2.82381 43.2706 3.26782C43.8256 3.71183 44.1334 4.28703 44.194 4.99341C44.194 5.09432 44.194 5.17505 44.194 5.2356C44.194 5.29614 44.194 5.37687 44.194 5.47778C44.2343 6.18416 44.0325 6.80477 43.5885 7.3396C43.1445 7.87443 42.5794 8.1923 41.8932 8.29321C41.1868 8.33358 40.5561 8.13175 40.0011 7.68774C39.4461 7.24373 39.1383 6.67863 39.0778 5.99243C39.0374 5.89152 39.0172 5.79565 39.0172 5.70483C39.0172 5.61401 39.0374 5.53833 39.0778 5.47778ZM50.8844 8.17212H49.7643L48.6744 4.17603H48.5836L47.4938 8.17212H46.3737L44.8903 2.78345H45.9801L46.9791 6.87036L48.1901 2.78345H49.1891L50.2789 6.87036H50.3698L51.278 2.78345H52.3678L50.8844 8.17212ZM53.6696 2.78345H54.6686V3.69165H54.7897C54.931 3.38892 55.1429 3.14673 55.4254 2.96509C55.708 2.78345 56.0309 2.69263 56.3942 2.69263C56.8785 2.63208 57.3024 2.75822 57.6657 3.07104C58.0289 3.38387 58.2308 3.78247 58.2711 4.26685C58.2711 4.32739 58.2711 4.39803 58.2711 4.47876C58.2711 4.55949 58.2711 4.63013 58.2711 4.69067V8.17212H57.1813V4.99341C57.1813 4.52921 57.0804 4.19621 56.8785 3.99438C56.6767 3.79256 56.374 3.69165 55.9703 3.69165C55.6272 3.69165 55.3245 3.80265 55.0621 4.02466C54.7998 4.24666 54.6686 4.52921 54.6686 4.87231C54.6686 4.93286 54.6686 4.96818 54.6686 4.97827C54.6686 4.98836 54.6686 5.02368 54.6686 5.08423V8.17212H53.5787V2.78345H53.6696ZM59.8756 8.17212H60.9655V0.69458H59.8756V8.17212ZM66.4752 5.47778C66.4752 4.87231 66.3541 4.42326 66.112 4.13062C65.8698 3.83797 65.5267 3.69165 65.0827 3.69165C64.6386 3.69165 64.2955 3.85311 64.0534 4.17603C63.8112 4.49894 63.6901 4.93286 63.6901 5.47778C63.6901 6.08325 63.8112 6.53735 64.0534 6.84009C64.2955 7.14282 64.6386 7.29419 65.0827 7.29419C65.5267 7.29419 65.8698 7.12769 66.112 6.79468C66.3541 6.46167 66.4752 6.02271 66.4752 5.47778ZM62.4791 5.47778C62.4388 4.7714 62.6356 4.15584 63.0695 3.6311C63.5034 3.10636 64.0735 2.79354 64.7799 2.69263C65.4863 2.59171 66.117 2.77336 66.672 3.23755C67.227 3.70174 67.5247 4.28703 67.5651 4.99341C67.5651 5.09432 67.5651 5.17505 67.5651 5.2356C67.5651 5.29614 67.5651 5.37687 67.5651 5.47778C67.6256 6.18416 67.4339 6.80477 66.9899 7.3396C66.5459 7.87443 65.9707 8.1923 65.2643 8.29321C64.5781 8.33358 63.9524 8.13175 63.3873 7.68774C62.8222 7.24373 62.5195 6.67863 62.4791 5.99243C62.4791 5.89152 62.4791 5.79565 62.4791 5.70483C62.4791 5.61401 62.4791 5.53833 62.4791 5.47778ZM72.1666 6.17407V5.6897L70.8649 5.78052C70.5218 5.78052 70.2544 5.85116 70.0626 5.99243C69.8709 6.13371 69.775 6.32544 69.775 6.56763C69.775 6.83 69.8659 7.03182 70.0475 7.1731C70.2291 7.31437 70.4713 7.38501 70.7741 7.38501C71.1373 7.38501 71.4502 7.27401 71.7125 7.052C71.9749 6.83 72.1263 6.53735 72.1666 6.17407ZM68.6852 6.56763C68.6852 6.08325 68.8567 5.70988 69.1998 5.44751C69.5429 5.18514 70.0374 5.03377 70.6832 4.99341L72.1666 4.87231V4.47876C72.1666 4.17603 72.0708 3.94897 71.879 3.79761C71.6873 3.64624 71.4199 3.57056 71.0768 3.57056C70.7741 3.57056 70.5268 3.62101 70.3351 3.72192C70.1434 3.82284 70.0273 3.9742 69.987 4.17603H68.9879C68.9879 3.73202 69.1847 3.37378 69.5783 3.10132C69.9718 2.82886 70.4713 2.69263 71.0768 2.69263C71.7832 2.69263 72.3079 2.85409 72.651 3.177C72.9941 3.49992 73.1657 3.93384 73.1657 4.47876V8.17212H72.1666V7.38501H72.0758C71.9345 7.68774 71.7075 7.90975 71.3947 8.05103C71.0818 8.1923 70.7741 8.23267 70.4713 8.17212C70.0273 8.23267 69.6287 8.11662 69.2755 7.82397C68.9223 7.53133 68.7256 7.18319 68.6852 6.77954C68.6852 6.77954 68.6852 6.75936 68.6852 6.71899C68.6852 6.67863 68.6852 6.62817 68.6852 6.56763ZM75.7692 5.47778C75.7692 6.02271 75.8903 6.46167 76.1325 6.79468C76.3746 7.12769 76.7278 7.29419 77.192 7.29419C77.636 7.29419 77.9943 7.12769 78.2667 6.79468C78.5392 6.46167 78.6754 6.02271 78.6754 5.47778C78.6754 4.93286 78.5392 4.49894 78.2667 4.17603C77.9943 3.85311 77.636 3.69165 77.192 3.69165C76.7278 3.69165 76.3746 3.83797 76.1325 4.13062C75.8903 4.42326 75.7692 4.87231 75.7692 5.47778ZM74.6793 5.47778C74.6793 4.63013 74.8812 3.95402 75.2848 3.44946C75.6885 2.94491 76.2233 2.69263 76.8893 2.69263C77.2324 2.69263 77.5503 2.76327 77.8429 2.90454C78.1356 3.04582 78.3828 3.26782 78.5846 3.57056H78.6754V0.69458H79.7653V8.17212H78.7663V7.29419H78.6754C78.5342 7.57674 78.3021 7.80884 77.9791 7.99048C77.6562 8.17212 77.3232 8.23267 76.9801 8.17212C76.2334 8.23267 75.6632 8.01066 75.2697 7.5061C74.8761 7.00155 74.6793 6.32544 74.6793 5.47778ZM88.0905 5.47778C88.0905 4.87231 87.9694 4.42326 87.7272 4.13062C87.485 3.83797 87.1318 3.69165 86.6676 3.69165C86.2236 3.69165 85.8805 3.85311 85.6383 4.17603C85.3961 4.49894 85.275 4.93286 85.275 5.47778C85.275 6.08325 85.3961 6.53735 85.6383 6.84009C85.8805 7.14282 86.2236 7.29419 86.6676 7.29419C87.1318 7.29419 87.485 7.12769 87.7272 6.79468C87.9694 6.46167 88.0905 6.02271 88.0905 5.47778ZM84.0641 5.47778C84.0237 4.7714 84.2256 4.14071 84.6696 3.58569C85.1136 3.03068 85.6787 2.73299 86.3649 2.69263C87.0713 2.63208 87.702 2.82381 88.257 3.26782C88.812 3.71183 89.1198 4.28703 89.1803 4.99341C89.1803 5.09432 89.1803 5.17505 89.1803 5.2356C89.1803 5.29614 89.1803 5.37687 89.1803 5.47778C89.2207 6.18416 89.0239 6.80477 88.59 7.3396C88.1561 7.87443 87.5859 8.1923 86.8795 8.29321C86.1731 8.33358 85.5425 8.13175 84.9874 7.68774C84.4324 7.24373 84.1246 6.67863 84.0641 5.99243C84.0641 5.89152 84.0641 5.79565 84.0641 5.70483C84.0641 5.61401 84.0641 5.53833 84.0641 5.47778ZM90.5729 2.78345H91.5719V3.69165H91.693C91.8343 3.38892 92.0462 3.14673 92.3288 2.96509C92.6113 2.78345 92.9241 2.69263 93.2672 2.69263C93.7718 2.63208 94.2057 2.75822 94.569 3.07104C94.9323 3.38387 95.1341 3.78247 95.1745 4.26685C95.1745 4.32739 95.1745 4.39803 95.1745 4.47876C95.1745 4.55949 95.1745 4.63013 95.1745 4.69067V8.17212H94.0846V4.99341C94.125 4.52921 94.0493 4.19621 93.8576 3.99438C93.6658 3.79256 93.3681 3.69165 92.9645 3.69165C92.6214 3.69165 92.3237 3.80265 92.0714 4.02466C91.8191 4.24666 91.693 4.52921 91.693 4.87231C91.693 4.93286 91.693 4.96818 91.693 4.97827C91.693 4.98836 91.693 5.02368 91.693 5.08423V8.17212H90.5729V2.78345ZM101.29 1.48169V2.87427H102.47V3.69165H101.29V6.47681C101.29 6.77954 101.345 6.99146 101.456 7.11255C101.567 7.23364 101.774 7.29419 102.077 7.29419C102.137 7.29419 102.208 7.29419 102.289 7.29419C102.369 7.29419 102.43 7.29419 102.47 7.29419V8.17212C102.369 8.17212 102.269 8.1923 102.168 8.23267C102.067 8.27303 101.966 8.29321 101.865 8.29321C101.28 8.29321 100.851 8.18221 100.578 7.96021C100.306 7.7382 100.17 7.37492 100.17 6.87036V3.69165H99.2916V2.78345H100.17V1.48169H101.29ZM103.893 0.69458H104.983V3.69165H105.074C105.235 3.38892 105.457 3.14673 105.74 2.96509C106.022 2.78345 106.335 2.69263 106.678 2.69263C107.183 2.63208 107.612 2.77336 107.965 3.11646C108.318 3.45955 108.525 3.88338 108.586 4.38794C108.586 4.4283 108.586 4.47371 108.586 4.52417C108.586 4.57463 108.586 4.63013 108.586 4.69067V8.17212H107.465V4.99341C107.465 4.52921 107.37 4.19621 107.178 3.99438C106.986 3.79256 106.688 3.69165 106.285 3.69165C105.922 3.6311 105.609 3.72192 105.346 3.96411C105.084 4.2063 104.933 4.47876 104.892 4.78149C104.892 4.82186 104.892 4.85213 104.892 4.87231C104.892 4.8925 104.892 4.93286 104.892 4.99341V8.0813H103.772V0.69458H103.893ZM110.977 4.99341H113.672C113.732 4.63013 113.636 4.3173 113.384 4.05493C113.132 3.79256 112.834 3.6311 112.491 3.57056C112.491 3.57056 112.471 3.57056 112.43 3.57056C112.39 3.57056 112.37 3.57056 112.37 3.57056C111.966 3.57056 111.633 3.70679 111.371 3.97925C111.108 4.25171 110.977 4.58976 110.977 4.99341ZM114.671 6.68872C114.529 7.1731 114.237 7.5717 113.793 7.88452C113.349 8.19735 112.874 8.33358 112.37 8.29321C111.684 8.29321 111.098 8.06616 110.614 7.61206C110.13 7.15796 109.887 6.57772 109.887 5.87134C109.887 5.83097 109.887 5.77043 109.887 5.6897C109.887 5.60897 109.887 5.53833 109.887 5.47778C109.786 4.7714 109.948 4.15584 110.372 3.6311C110.796 3.10636 111.33 2.79354 111.976 2.69263C112.037 2.69263 112.092 2.69263 112.143 2.69263C112.193 2.69263 112.269 2.69263 112.37 2.69263C113.117 2.69263 113.707 2.92977 114.141 3.40405C114.575 3.87834 114.792 4.53931 114.792 5.38696V5.78052H110.977V5.87134C110.937 6.27498 111.043 6.62817 111.295 6.93091C111.547 7.23364 111.875 7.38501 112.279 7.38501C112.279 7.38501 112.294 7.38501 112.324 7.38501C112.355 7.38501 112.37 7.38501 112.37 7.38501C112.632 7.42537 112.879 7.37996 113.111 7.24878C113.344 7.11759 113.53 6.93091 113.672 6.68872H114.671Z" fill="white"/>
</g>
<defs>
<clipPath id="clip0_722_914">
<rect width="120.02" height="31" fill="white" transform="matrix(1 0 0 -1 0.980469 31.1799)"/>
</clipPath>
</defs>
</svg>
