<svg width="19" height="21" viewBox="0 0 19 21" fill="none" xmlns="http://www.w3.org/2000/svg">
<g id="Icon" clip-path="url(#clip0_722_935)">
<path id="Vector" d="M11.5891 12.3503C11.5891 12.3503 11.7286 12.2108 12.0076 11.9317C12.2866 11.6527 12.4261 11.1189 12.4261 10.3302C12.4261 9.54149 12.1471 8.86813 11.5891 8.31009C11.031 7.75206 10.3577 7.47304 9.56899 7.47304C8.7803 7.47304 8.10693 7.75206 7.5489 8.31009C6.99086 8.86813 6.71184 9.54149 6.71184 10.3302C6.71184 11.1189 6.99086 11.7922 7.5489 12.3503C8.10693 12.9083 8.7803 13.1873 9.56899 13.1873C10.3577 13.1873 11.031 12.9083 11.5891 12.3503ZM12.6828 7.21634C12.6828 7.21634 12.8967 7.43026 13.3246 7.85809C13.7524 8.28591 13.9663 9.10995 13.9663 10.3302C13.9663 11.5504 13.5385 12.5884 12.6828 13.444C11.8272 14.2997 10.7892 14.7275 9.56899 14.7275C8.34875 14.7275 7.3108 14.2997 6.45515 13.444C5.59949 12.5884 5.17167 11.5504 5.17167 10.3302C5.17167 9.10995 5.59949 8.072 6.45515 7.21634C7.3108 6.36069 8.34875 5.93286 9.56899 5.93286C10.7892 5.93286 11.8272 6.36069 12.6828 7.21634ZM14.8703 5.02884C14.8703 5.02884 14.9205 5.07907 15.021 5.17951C15.1214 5.27996 15.1717 5.47155 15.1717 5.75429C15.1717 6.03703 15.0712 6.27884 14.8703 6.47974C14.6694 6.68063 14.4276 6.78108 14.1449 6.78108C13.8621 6.78108 13.6203 6.68063 13.4194 6.47974C13.2185 6.27884 13.1181 6.03703 13.1181 5.75429C13.1181 5.47155 13.2185 5.22974 13.4194 5.02884C13.6203 4.82795 13.8621 4.7275 14.1449 4.7275C14.4276 4.7275 14.6694 4.82795 14.8703 5.02884ZM10.4228 3.29335C10.4228 3.29335 10.2935 3.29428 10.0349 3.29614C9.77639 3.298 9.62107 3.29893 9.56899 3.29893C9.5169 3.29893 9.23231 3.29707 8.71519 3.29335C8.19808 3.28963 7.80559 3.28963 7.53774 3.29335C7.26988 3.29707 6.91088 3.30823 6.46073 3.32684C6.01058 3.34544 5.62739 3.38264 5.31117 3.43844C4.99495 3.49425 4.72896 3.56307 4.51318 3.64492C4.14116 3.79373 3.81378 4.0095 3.53104 4.29224C3.2483 4.57498 3.03253 4.90236 2.88372 5.27438C2.80187 5.49015 2.73305 5.75615 2.67725 6.07237C2.62144 6.38859 2.58424 6.77178 2.56564 7.22192C2.54704 7.67207 2.53588 8.03108 2.53216 8.29893C2.52844 8.56679 2.52844 8.95928 2.53216 9.47639C2.53588 9.9935 2.53774 10.2781 2.53774 10.3302C2.53774 10.3823 2.53588 10.6669 2.53216 11.184C2.52844 11.7011 2.52844 12.0936 2.53216 12.3614C2.53588 12.6293 2.54704 12.9883 2.56564 13.4384C2.58424 13.8886 2.62144 14.2718 2.67725 14.588C2.73305 14.9042 2.80187 15.1702 2.88372 15.386C3.03253 15.758 3.2483 16.0854 3.53104 16.3681C3.81378 16.6509 4.14116 16.8666 4.51318 17.0155C4.72896 17.0973 4.99495 17.1661 5.31117 17.2219C5.62739 17.2777 6.01058 17.3149 6.46073 17.3335C6.91088 17.3521 7.26988 17.3633 7.53774 17.367C7.80559 17.3707 8.19808 17.3707 8.71519 17.367C9.23231 17.3633 9.5169 17.3614 9.56899 17.3614C9.62107 17.3614 9.90567 17.3633 10.4228 17.367C10.9399 17.3707 11.3324 17.3707 11.6002 17.367C11.8681 17.3633 12.2271 17.3521 12.6772 17.3335C13.1274 17.3149 13.5106 17.2777 13.8268 17.2219C14.143 17.1661 14.409 17.0973 14.6248 17.0155C14.9968 16.8666 15.3242 16.6509 15.6069 16.3681C15.8897 16.0854 16.1054 15.758 16.2543 15.386C16.3361 15.1702 16.4049 14.9042 16.4607 14.588C16.5165 14.2718 16.5537 13.8886 16.5723 13.4384C16.5909 12.9883 16.6021 12.6293 16.6058 12.3614C16.6095 12.0936 16.6095 11.7011 16.6058 11.184C16.6021 10.6669 16.6002 10.3823 16.6002 10.3302C16.6002 10.2781 16.6021 9.9935 16.6058 9.47639C16.6095 8.95928 16.6095 8.56679 16.6058 8.29893C16.6021 8.03108 16.5909 7.67207 16.5723 7.22192C16.5537 6.77178 16.5165 6.38859 16.4607 6.07237C16.4049 5.75615 16.3361 5.49015 16.2543 5.27438C16.1054 4.90236 15.8897 4.57498 15.6069 4.29224C15.3242 4.0095 14.9968 3.79373 14.6248 3.64492C14.409 3.56307 14.143 3.49425 13.8268 3.43844C13.5106 3.38264 13.1274 3.34544 12.6772 3.32684C12.2271 3.30823 11.8681 3.29707 11.6002 3.29335C11.3324 3.28963 10.9399 3.28963 10.4228 3.29335ZM18.0846 6.79224C18.1218 7.447 18.1404 8.62631 18.1404 10.3302C18.1404 12.0341 18.1218 13.2134 18.0846 13.8681C18.0102 15.4157 17.5489 16.6137 16.7007 17.4619C15.8525 18.3101 14.6546 18.7714 13.1069 18.8458C12.4522 18.883 11.2729 18.9016 9.56899 18.9016C7.86512 18.9016 6.6858 18.883 6.03104 18.8458C4.48342 18.7714 3.2855 18.3101 2.43729 17.4619C1.58908 16.6137 1.12777 15.4157 1.05336 13.8681C1.01616 13.2134 0.997559 12.0341 0.997559 10.3302C0.997559 8.62631 1.01616 7.447 1.05336 6.79224C1.12777 5.24462 1.58908 4.0467 2.43729 3.19849C3.2855 2.35027 4.48342 1.88896 6.03104 1.81456C6.6858 1.77736 7.86512 1.75875 9.56899 1.75875C11.2729 1.75875 12.4522 1.77736 13.1069 1.81456C14.6546 1.88896 15.8525 2.35027 16.7007 3.19849C17.5489 4.0467 18.0102 5.24462 18.0846 6.79224Z" fill="white"/>
</g>
<defs>
<clipPath id="clip0_722_935">
<rect width="17.16" height="20" fill="white" transform="matrix(1 0 0 -1 0.989746 20.3301)"/>
</clipPath>
</defs>
</svg>
