<svg width="18" height="21" viewBox="0 0 18 21" fill="none" xmlns="http://www.w3.org/2000/svg">
<g id="Icon" clip-path="url(#clip0_722_931)">
<path id="Vector" d="M4.20271 7.30545V18.3657H0.519671V7.30545H4.20271ZM4.43708 3.89028C4.44452 4.43343 4.25665 4.8873 3.87347 5.25188C3.49028 5.61647 2.98619 5.79876 2.36119 5.79876H2.33887C1.72875 5.79876 1.23768 5.61647 0.865653 5.25188C0.493629 4.8873 0.307617 4.43343 0.307617 3.89028C0.307617 3.33968 0.499209 2.88395 0.882394 2.52309C1.26558 2.16223 1.76595 1.98179 2.38351 1.98179C3.00107 1.98179 3.49586 2.16223 3.86788 2.52309C4.23991 2.88395 4.42964 3.33968 4.43708 3.89028ZM17.4505 12.0264V18.3657H13.7786V12.4505C13.7786 11.6693 13.6279 11.0573 13.3266 10.6146C13.0253 10.1719 12.5546 9.95054 11.9148 9.95054C11.446 9.95054 11.0535 10.0789 10.7373 10.3356C10.4211 10.5923 10.1848 10.9104 10.0286 11.2898C9.94675 11.513 9.90583 11.8144 9.90583 12.1938V18.3657H6.23396C6.24884 15.397 6.25628 12.99 6.25628 11.1447C6.25628 9.2995 6.25256 8.19831 6.24512 7.84117L6.23396 7.30545H9.90583V8.9126H9.88351C10.0323 8.6745 10.1848 8.46617 10.3411 8.2876C10.4973 8.10903 10.7075 7.91557 10.9717 7.70724C11.2358 7.49891 11.5595 7.33708 11.9427 7.22175C12.3258 7.10642 12.7518 7.04876 13.2206 7.04876C14.4929 7.04876 15.5159 7.47101 16.2898 8.3155C17.0636 9.15999 17.4505 10.397 17.4505 12.0264Z" fill="white"/>
</g>
<defs>
<clipPath id="clip0_722_931">
<rect width="17.16" height="20" fill="white" transform="matrix(1 0 0 -1 0.299805 20.3301)"/>
</clipPath>
</defs>
</svg>
