<svg width="18" height="21" viewBox="0 0 18 21" fill="none" xmlns="http://www.w3.org/2000/svg">
<g id="Icon" clip-path="url(#clip0_722_939)">
<path id="Vector" d="M16.6808 6.02773C16.6808 6.02773 16.8724 6.35604 17.2556 7.01266C17.6388 7.66928 17.8304 8.77512 17.8304 10.3302C17.8304 11.8852 17.4472 13.3194 16.6808 14.6326C15.9144 15.9459 14.8746 16.9857 13.5614 17.7521C12.2481 18.5184 10.814 18.9016 9.25893 18.9016C8.43304 18.9016 7.62202 18.7826 6.82589 18.5445C7.26488 17.8525 7.55506 17.2424 7.69643 16.7141C7.76339 16.4611 7.96429 15.6762 8.29911 14.3592C8.44792 14.6494 8.71949 14.9005 9.11384 15.1125C9.50818 15.3246 9.93229 15.4306 10.3862 15.4306C11.2865 15.4306 12.09 15.1758 12.7969 14.6661C13.5037 14.1564 14.0506 13.4552 14.4375 12.5623C14.8244 11.6695 15.0179 10.665 15.0179 9.54893C15.0179 8.70072 14.7965 7.90459 14.3538 7.16054C13.9111 6.41649 13.2693 5.81009 12.4286 5.34134C11.5878 4.87259 10.6391 4.63822 9.58259 4.63822C8.80134 4.63822 8.07217 4.74611 7.39509 4.96188C6.71801 5.17765 6.14323 5.46411 5.67076 5.82125C5.19829 6.1784 4.79278 6.58948 4.45424 7.05451C4.1157 7.51954 3.86644 8.00131 3.70647 8.49983C3.5465 8.99834 3.46652 9.49685 3.46652 9.99536C3.46652 10.7692 3.61533 11.45 3.91295 12.0378C4.21057 12.6256 4.64583 13.0385 5.21875 13.2766C5.44196 13.3659 5.58333 13.2915 5.64286 13.0534C5.65774 13.0013 5.6875 12.886 5.73214 12.7074C5.77679 12.5288 5.80655 12.4172 5.82143 12.3726C5.86607 12.2015 5.82515 12.0415 5.69866 11.8927C5.3192 11.4388 5.12946 10.8771 5.12946 10.2074C5.12946 9.0839 5.51823 8.1185 6.29576 7.31121C7.07329 6.50392 8.09077 6.10027 9.34821 6.10027C10.4717 6.10027 11.3478 6.40533 11.9766 7.01545C12.6053 7.62557 12.9196 8.41798 12.9196 9.39268C12.9196 10.6576 12.6648 11.7327 12.1551 12.6181C11.6455 13.5035 10.9926 13.9463 10.1964 13.9463C9.74256 13.9463 9.37798 13.7844 9.10268 13.4608C8.82738 13.1371 8.74181 12.7483 8.84598 12.2945C8.90551 12.0341 9.00409 11.6862 9.14174 11.2509C9.27939 10.8157 9.391 10.4325 9.47656 10.1014C9.56213 9.77029 9.60491 9.48941 9.60491 9.25875C9.60491 8.88673 9.50446 8.57795 9.30357 8.33242C9.10268 8.08688 8.81622 7.96411 8.4442 7.96411C7.98289 7.96411 7.59226 8.17617 7.27232 8.60027C6.95238 9.02438 6.79241 9.55265 6.79241 10.1851C6.79241 10.7282 6.88542 11.1821 7.07143 11.5467L5.96652 16.2119C5.84003 16.7327 5.79167 17.3912 5.82143 18.1873C4.28869 17.5102 3.04985 16.4649 2.10491 15.0512C1.15997 13.6375 0.6875 12.0638 0.6875 10.3302C0.6875 8.77512 1.07068 7.34097 1.83705 6.02773C2.60342 4.71448 3.64323 3.67468 4.95647 2.90831C6.26972 2.14194 7.70387 1.75875 9.25893 1.75875C10.814 1.75875 12.2481 2.14194 13.5614 2.90831C14.8746 3.67468 15.9144 4.71448 16.6808 6.02773Z" fill="white"/>
</g>
<defs>
<clipPath id="clip0_722_939">
<rect width="17.16" height="20" fill="white" transform="matrix(1 0 0 -1 0.679688 20.3301)"/>
</clipPath>
</defs>
</svg>
