<svg width="121" height="30" viewBox="0 0 121 30" fill="none" xmlns="http://www.w3.org/2000/svg">
<g id="Item &#226;&#143;&#181; Link" clip-path="url(#clip0_722_916)">
<path id="Vector" d="M40.1836 4.1731C40.1836 4.62622 40.1128 5.02743 39.9712 5.37671C39.8296 5.72599 39.6361 6.02336 39.3906 6.2688C39.0885 6.57088 38.7534 6.79745 38.3853 6.94849C38.0171 7.09953 37.5876 7.17505 37.0967 7.17505C36.6436 7.17505 36.2188 7.09953 35.8223 6.94849C35.4258 6.79745 35.0765 6.57088 34.7744 6.2688C34.4912 5.9856 34.2552 5.64575 34.0664 5.24927C33.8776 4.85278 33.7832 4.42798 33.7832 3.97485C33.7832 3.52173 33.8634 3.10164 34.0239 2.7146C34.1844 2.32755 34.4346 1.98299 34.7744 1.68091C35.0765 1.37882 35.4258 1.15226 35.8223 1.00122C36.2188 0.85018 36.6436 0.774658 37.0967 0.774658C37.3421 0.774658 37.5687 0.798258 37.7764 0.845459C37.9841 0.89266 38.1917 0.9729 38.3994 1.08618C38.5882 1.18058 38.7629 1.28442 38.9233 1.39771C39.0838 1.51099 39.2396 1.63371 39.3906 1.76587L38.7959 2.19067C38.5882 1.92635 38.3381 1.74227 38.0454 1.63843C37.7528 1.53459 37.4365 1.48267 37.0967 1.48267C36.738 1.48267 36.4264 1.53459 36.1621 1.63843C35.8978 1.74227 35.6429 1.92635 35.3975 2.19067C35.1331 2.43612 34.9491 2.70988 34.8452 3.01196C34.7414 3.31405 34.6895 3.63501 34.6895 3.97485C34.6895 4.33358 34.7414 4.65926 34.8452 4.9519C34.9491 5.24455 35.1331 5.52303 35.3975 5.78735C35.6429 6.0328 35.9119 6.20744 36.2046 6.31128C36.4972 6.41512 36.7946 6.46704 37.0967 6.46704C37.4365 6.46704 37.7575 6.41512 38.0596 6.31128C38.3617 6.20744 38.6354 6.0328 38.8809 5.78735C39.0319 5.63631 39.1546 5.45695 39.249 5.24927C39.3434 5.04159 39.3906 4.7867 39.3906 4.48462H37.0967V3.69165H40.0986C40.1364 3.78605 40.16 3.86629 40.1694 3.93237C40.1789 3.99845 40.1836 4.0787 40.1836 4.1731ZM44.998 1.56763H42.1943V3.57837H44.6865V4.28638H42.1943V6.2688H44.998V6.97681H41.4014V0.774658H44.998V1.56763ZM48.3965 6.97681H47.5752V1.56763H45.876V0.774658H50.1807V1.56763H48.3965V6.97681ZM53.2959 6.97681H54.0889V0.774658H53.2959V6.97681ZM57.6855 6.97681H56.8926V1.56763H55.0801V0.774658H59.3848V1.56763H57.6855V6.97681ZM63.5762 5.67407C63.8405 5.91952 64.1048 6.09888 64.3691 6.21216C64.6335 6.32544 64.9355 6.38208 65.2754 6.38208C65.6341 6.38208 65.9456 6.32544 66.21 6.21216C66.4743 6.09888 66.7292 5.91952 66.9746 5.67407C67.2389 5.42863 67.423 5.15487 67.5269 4.85278C67.6307 4.5507 67.6826 4.22974 67.6826 3.88989C67.6826 3.53117 67.6307 3.20548 67.5269 2.91284C67.423 2.6202 67.2389 2.37948 66.9746 2.19067C66.7292 1.92635 66.4743 1.74227 66.21 1.63843C65.9456 1.53459 65.6341 1.48267 65.2754 1.48267C64.9355 1.48267 64.6335 1.53459 64.3691 1.63843C64.1048 1.74227 63.8405 1.92635 63.5762 2.19067C63.3307 2.43612 63.1561 2.70988 63.0522 3.01196C62.9484 3.31405 62.8965 3.63501 62.8965 3.97485C62.8965 4.33358 62.9484 4.65926 63.0522 4.9519C63.1561 5.24455 63.3307 5.48527 63.5762 5.67407ZM67.5977 6.18384C67.2956 6.52368 66.9463 6.77384 66.5498 6.93433C66.1533 7.09481 65.7285 7.17505 65.2754 7.17505C64.8411 7.17505 64.4258 7.09481 64.0293 6.93433C63.6328 6.77384 63.2835 6.52368 62.9814 6.18384C62.6794 5.88175 62.4528 5.53247 62.3018 5.13599C62.1507 4.7395 62.0752 4.32414 62.0752 3.88989C62.0752 3.43677 62.1507 3.01196 62.3018 2.61548C62.4528 2.21899 62.6794 1.86971 62.9814 1.56763C63.2835 1.28442 63.6328 1.0673 64.0293 0.91626C64.4258 0.765219 64.8411 0.689697 65.2754 0.689697C65.7285 0.689697 66.1533 0.765219 66.5498 0.91626C66.9463 1.0673 67.2956 1.28442 67.5977 1.56763C67.8997 1.86971 68.1216 2.21899 68.2632 2.61548C68.4048 3.01196 68.4756 3.43677 68.4756 3.88989C68.4756 4.32414 68.4048 4.7395 68.2632 5.13599C68.1216 5.53247 67.8997 5.88175 67.5977 6.18384ZM69.6934 6.97681V0.774658H70.5996L73.6865 5.67407V0.774658H74.4795V6.97681H73.6865L70.4863 1.99243H70.4014L70.4863 3.18188V6.97681H69.6934ZM102.488 24.592H104.499V11.678H102.488V24.592ZM120.075 16.2659L117.895 21.8733H117.781L115.487 16.2659H113.392L116.875 24.0823L114.893 28.4719H116.875L122.284 16.2659H120.075ZM109.002 23.0911C108.7 23.0911 108.374 23.0061 108.025 22.8362C107.676 22.6663 107.501 22.3831 107.501 21.9866C107.501 21.4768 107.723 21.1134 108.167 20.8962C108.61 20.6791 109.087 20.5706 109.597 20.5706C110.05 20.5706 110.399 20.613 110.645 20.698C110.89 20.783 111.135 20.8726 111.381 20.967C111.286 21.6278 111.003 22.1471 110.531 22.5247C110.059 22.9023 109.549 23.0911 109.002 23.0911ZM109.2 16.0676C108.502 16.0676 107.817 16.2281 107.147 16.5491C106.477 16.87 105.991 17.3798 105.688 18.0784L107.388 18.7864C107.595 18.4277 107.86 18.1869 108.181 18.0642C108.502 17.9415 108.841 17.8801 109.2 17.8801C109.691 17.8801 110.149 18.0264 110.574 18.3191C110.999 18.6117 111.239 19.0318 111.296 19.5793V19.6926C111.088 19.5793 110.814 19.4661 110.475 19.3528C110.135 19.2395 109.738 19.1829 109.285 19.1829C108.341 19.1829 107.473 19.4283 106.68 19.9192C105.887 20.4101 105.49 21.1275 105.49 22.0715C105.49 22.9211 105.811 23.6008 106.453 24.1106C107.095 24.6204 107.841 24.8752 108.69 24.8752C109.332 24.8752 109.847 24.7478 110.234 24.4929C110.621 24.238 110.937 23.9312 111.183 23.5725H111.296V24.592H113.193V19.5793C113.193 18.4277 112.811 17.5544 112.046 16.9597C111.282 16.365 110.333 16.0676 109.2 16.0676ZM97.1924 17.8801H94.3887V13.4905H97.1924C97.9476 13.4905 98.5187 13.7312 98.9058 14.2126C99.2928 14.6941 99.4863 15.1803 99.4863 15.6711C99.4863 16.1809 99.2786 16.6765 98.8633 17.158C98.4479 17.6394 97.891 17.8801 97.1924 17.8801ZM97.0791 11.678H92.3779V24.592H94.3887V19.6926H97.0791C98.193 19.6926 99.189 19.3386 100.067 18.6306C100.945 17.9226 101.384 16.9361 101.384 15.6711C101.384 14.425 100.945 13.448 100.067 12.74C99.189 12.032 98.193 11.678 97.0791 11.678ZM71.5908 23.0911C70.93 23.0911 70.3494 22.8456 69.8491 22.3547C69.3488 21.8639 69.0986 21.2408 69.0986 20.4856C69.0986 19.7304 69.3394 19.0885 69.8208 18.5598C70.3022 18.0312 70.8923 17.7668 71.5908 17.7668C72.2327 17.7668 72.7944 18.017 73.2759 18.5173C73.7573 19.0177 73.998 19.6737 73.998 20.4856C73.998 21.2408 73.7573 21.8639 73.2759 22.3547C72.7944 22.8456 72.2327 23.0911 71.5908 23.0911ZM73.7998 17.0872C73.5355 16.8417 73.2051 16.6104 72.8086 16.3933C72.4121 16.1762 71.9401 16.0676 71.3926 16.0676C70.2975 16.0676 69.3063 16.4924 68.4189 17.342C67.5316 18.1917 67.0879 19.2395 67.0879 20.4856C67.0879 21.7317 67.5174 22.7748 68.3765 23.615C69.2355 24.4552 70.2409 24.8752 71.3926 24.8752C71.9401 24.8752 72.4074 24.7714 72.7944 24.5637C73.1815 24.356 73.4788 24.1295 73.6865 23.884H73.7998V24.4788C73.7998 25.3284 73.5874 25.975 73.1626 26.4187C72.7378 26.8624 72.1478 27.0842 71.3926 27.0842C70.7884 27.0842 70.307 26.919 69.9482 26.5886C69.5895 26.2582 69.3346 25.8853 69.1836 25.47L67.4844 26.178C67.7298 26.7821 68.1782 27.3674 68.8296 27.9338C69.481 28.5002 70.3353 28.7834 71.3926 28.7834C72.5443 28.7834 73.5308 28.4294 74.3521 27.7214C75.1733 27.0134 75.584 25.8287 75.584 24.1672V16.2659H73.6865V17.0872H73.7998ZM77 24.592H78.9824V11.678H77V24.592ZM81.8994 20.2874C81.8428 19.4377 82.0835 18.7911 82.6216 18.3474C83.1597 17.9037 83.6836 17.6819 84.1934 17.6819C84.5898 17.6819 84.9344 17.7668 85.2271 17.9368C85.5197 18.1067 85.7415 18.3238 85.8926 18.5881L81.8994 20.2874ZM87.9883 18.8713C87.7806 18.3805 87.3841 17.7904 86.7988 17.1013C86.2135 16.4122 85.3451 16.0676 84.1934 16.0676C83.0417 16.0676 82.0552 16.4783 81.2339 17.2996C80.4126 18.1208 80.002 19.1829 80.002 20.4856C80.002 21.7317 80.422 22.7748 81.2622 23.615C82.1024 24.4552 83.1455 24.8752 84.3916 24.8752C85.3923 24.8752 86.1947 24.6487 86.7988 24.1956C87.403 23.7424 87.8372 23.3365 88.1016 22.9778L86.6006 21.9866C86.3363 22.3264 86.0247 22.6096 85.666 22.8362C85.3073 23.0627 84.8825 23.176 84.3916 23.176C83.8818 23.176 83.4476 23.0722 83.0889 22.8645C82.7301 22.6568 82.4281 22.3264 82.1826 21.8733L88.1865 19.4661L87.9883 18.8713ZM40.4951 17.3704V19.2678H44.998C44.9414 19.7776 44.8234 20.226 44.644 20.613C44.4647 21.0001 44.2428 21.3258 43.9785 21.5901C43.6387 21.9299 43.195 22.2462 42.6475 22.5388C42.0999 22.8315 41.3825 22.9778 40.4951 22.9778C39.098 22.9778 37.9132 22.4963 36.9409 21.5334C35.9686 20.5706 35.4824 19.3905 35.4824 17.9934C35.4824 16.5774 35.9686 15.3879 36.9409 14.425C37.9132 13.4622 39.098 12.9807 40.4951 12.9807C41.2314 12.9807 41.8828 13.1082 42.4492 13.363C43.0156 13.6179 43.4971 13.9247 43.8936 14.2834L45.1963 12.9807C44.6488 12.4332 43.988 11.9801 43.2139 11.6213C42.4398 11.2626 41.5335 11.0833 40.4951 11.0833C39.5322 11.0833 38.6354 11.2626 37.8047 11.6213C36.9551 11.9801 36.2093 12.4709 35.5674 13.094C34.9255 13.717 34.4157 14.4345 34.0381 15.2463C33.6794 16.0771 33.5 16.955 33.5 17.8801C33.5 18.8241 33.6794 19.7115 34.0381 20.5422C34.4157 21.373 34.9255 22.0951 35.5674 22.7087C36.2093 23.3223 36.9551 23.7991 37.8047 24.1389C38.6354 24.4976 39.5322 24.677 40.4951 24.677C41.5335 24.677 42.4398 24.5118 43.2139 24.1814C43.988 23.851 44.6771 23.3837 45.2812 22.7795C45.8854 22.1754 46.3055 21.4674 46.5415 20.6555C46.7775 19.8437 46.8955 19.0885 46.8955 18.3899C46.8955 18.1822 46.8908 17.9792 46.8813 17.781C46.8719 17.5828 46.8389 17.3798 46.7822 17.1721H40.4951V17.3704ZM52.0781 23.0911C51.4362 23.0911 50.8604 22.8409 50.3506 22.3406C49.8408 21.8403 49.5859 21.1842 49.5859 20.3723C49.5859 19.5793 49.8408 18.9327 50.3506 18.4324C50.8604 17.932 51.4362 17.6819 52.0781 17.6819C52.7389 17.6819 53.3242 17.932 53.834 18.4324C54.3438 18.9327 54.5986 19.5793 54.5986 20.3723C54.5986 21.1842 54.3532 21.8403 53.8623 22.3406C53.3714 22.8409 52.7767 23.0911 52.0781 23.0911ZM52.0781 16.0676C50.832 16.0676 49.77 16.4783 48.8921 17.2996C48.0142 18.1208 47.5752 19.1829 47.5752 20.4856C47.5752 21.7317 48.0142 22.7748 48.8921 23.615C49.77 24.4552 50.832 24.8752 52.0781 24.8752C53.3431 24.8752 54.4098 24.4552 55.2783 23.615C56.1468 22.7748 56.5811 21.7317 56.5811 20.4856C56.5811 19.1829 56.1468 18.1208 55.2783 17.2996C54.4098 16.4783 53.3431 16.0676 52.0781 16.0676ZM61.877 23.0911C61.235 23.0911 60.6592 22.8409 60.1494 22.3406C59.6396 21.8403 59.3848 21.1842 59.3848 20.3723C59.3848 19.5793 59.6396 18.9327 60.1494 18.4324C60.6592 17.932 61.235 17.6819 61.877 17.6819C62.5378 17.6819 63.123 17.932 63.6328 18.4324C64.1426 18.9327 64.3975 19.5793 64.3975 20.3723C64.3975 21.1842 64.1426 21.8403 63.6328 22.3406C63.123 22.8409 62.5378 23.0911 61.877 23.0911ZM61.877 16.0676C60.6309 16.0676 59.5736 16.4783 58.7051 17.2996C57.8366 18.1208 57.4023 19.1829 57.4023 20.4856C57.4023 21.7317 57.8366 22.7748 58.7051 23.615C59.5736 24.4552 60.6309 24.8752 61.877 24.8752C63.1419 24.8752 64.2087 24.4552 65.0771 23.615C65.9456 22.7748 66.3799 21.7317 66.3799 20.4856C66.3421 19.1829 65.8843 18.1208 65.0063 17.2996C64.1284 16.4783 63.0853 16.0676 61.877 16.0676ZM24.0977 12.7825L19 9.8938L3.67871 1.28442C3.28223 1.03898 2.89518 0.925699 2.51758 0.94458C2.13997 0.963461 1.82845 1.07674 1.58301 1.28442L1.49805 1.36938C1.34701 1.52043 1.22428 1.71867 1.12988 1.96411C1.03548 2.20955 0.988281 2.48332 0.988281 2.7854V25.6682C0.988281 25.9703 1.03548 26.2488 1.12988 26.5037C1.22428 26.7585 1.34701 26.9804 1.49805 27.1692H1.58301C1.82845 27.3769 2.13053 27.4949 2.48926 27.5232C2.84798 27.5515 3.24447 27.4335 3.67871 27.1692L18.8867 18.6731L19 18.5881L24.0977 15.6711C24.7962 15.2747 25.1455 14.7932 25.1455 14.2268C25.1455 13.6604 24.7962 13.179 24.0977 12.7825ZM18.8867 18.4749L3.67871 27.0842C3.28223 27.3297 2.89518 27.4382 2.51758 27.4099C2.13997 27.3816 1.82845 27.273 1.58301 27.0842L1.49805 27.1692H1.58301C1.82845 27.3769 2.13053 27.4949 2.48926 27.5232C2.84798 27.5515 3.24447 27.4335 3.67871 27.1692L18.8867 18.4749ZM1.49805 26.9709C1.34701 26.8199 1.22428 26.6264 1.12988 26.3904C1.03548 26.1544 0.988281 25.8853 0.988281 25.5833V25.7815C0.988281 26.0836 1.03548 26.3573 1.12988 26.6028C1.22428 26.8482 1.34701 27.0748 1.49805 27.2825V26.9709ZM24.0977 15.5862L18.8867 18.4749L19 18.5881L24.0977 15.6711C24.4375 15.4823 24.7065 15.2511 24.9048 14.9773C25.103 14.7035 25.2021 14.4345 25.2021 14.1702C25.1455 14.4722 25.0228 14.7319 24.834 14.949C24.6452 15.1661 24.3997 15.3785 24.0977 15.5862ZM3.67871 1.48267L24.0977 12.9807C24.4375 13.1884 24.6924 13.4055 24.8623 13.6321C25.0322 13.8586 25.1455 14.0758 25.2021 14.2834C25.2021 14.038 25.103 13.7784 24.9048 13.5046C24.7065 13.2309 24.4375 12.9902 24.0977 12.7825L3.67871 1.28442C2.94238 0.887939 2.3099 0.83602 1.78125 1.12866C1.2526 1.4213 0.988281 1.97355 0.988281 2.7854V2.98364C0.988281 2.13403 1.2526 1.57235 1.78125 1.29858C2.3099 1.02482 2.94238 1.08618 3.67871 1.48267Z" fill="white"/>
</g>
<defs>
<clipPath id="clip0_722_916">
<rect width="122.02" height="29" fill="white" transform="matrix(1 0 0 -1 0.980469 29.1799)"/>
</clipPath>
</defs>
</svg>
