<svg width="20" height="21" viewBox="0 0 20 21" fill="none" xmlns="http://www.w3.org/2000/svg">
<g id="playstore 1" clip-path="url(#clip0_722_979)">
<path id="Vector" d="M1.48461 1.21851C1.24733 1.53208 1.11523 1.91781 1.11523 2.3306V18.6693C1.11523 19.0527 1.22959 19.4129 1.43614 19.7138L10.3262 10.4409L1.48461 1.21851Z" fill="url(#paint0_linear_722_979)"/>
<path id="Vector_2" d="M11.1403 9.59175L14.0243 6.58356L3.88658 0.730603C3.44658 0.476506 2.94175 0.416268 2.4707 0.548668L11.1403 9.59175Z" fill="url(#paint1_linear_722_979)"/>
<path id="Vector_3" d="M11.14 11.2898L2.38281 20.4242C2.57163 20.4876 2.76702 20.5196 2.96256 20.5196C3.2798 20.5196 3.59719 20.4361 3.8863 20.2691L14.097 14.374L11.14 11.2898Z" fill="url(#paint2_linear_722_979)"/>
<path id="Vector_4" d="M18.0369 8.89998L15.073 7.18872L11.9551 10.4408L15.1458 13.7691L18.0369 12.0999C18.6154 11.766 18.9608 11.1677 18.9608 10.4999C18.9608 9.83198 18.6154 9.23388 18.0369 8.89998Z" fill="url(#paint3_linear_722_979)"/>
</g>
<defs>
<linearGradient id="paint0_linear_722_979" x1="1.11523" y1="1.21851" x2="10.5144" y2="1.32886" gradientUnits="userSpaceOnUse">
<stop stop-color="#4582BD"/>
<stop offset="1" stop-color="#091F42"/>
</linearGradient>
<linearGradient id="paint1_linear_722_979" x1="2.4707" y1="0.480469" x2="14.2516" y2="0.832667" gradientUnits="userSpaceOnUse">
<stop stop-color="#4582BD"/>
<stop offset="1" stop-color="#091F42"/>
</linearGradient>
<linearGradient id="paint2_linear_722_979" x1="2.38281" y1="11.2898" x2="14.3273" y2="11.6472" gradientUnits="userSpaceOnUse">
<stop stop-color="#4582BD"/>
<stop offset="1" stop-color="#091F42"/>
</linearGradient>
<linearGradient id="paint3_linear_722_979" x1="11.9551" y1="7.18872" x2="19.1005" y2="7.36807" gradientUnits="userSpaceOnUse">
<stop stop-color="#4582BD"/>
<stop offset="1" stop-color="#091F42"/>
</linearGradient>
<clipPath id="clip0_722_979">
<rect width="20" height="20.0391" fill="white" transform="translate(0 0.480469)"/>
</clipPath>
</defs>
</svg>
