<svg width="21" height="21" viewBox="0 0 21 21" fill="none" xmlns="http://www.w3.org/2000/svg">
<g id="Icon" clip-path="url(#clip0_722_943)">
<path id="Vector" d="M8.88602 12.9194L14.2878 10.1292L8.88602 7.30552V12.9194ZM10.9508 3.29883C12.2008 3.29883 13.408 3.31557 14.5724 3.34905C15.7368 3.38253 16.5906 3.41788 17.1338 3.45508L17.9485 3.49972C17.956 3.49972 18.0192 3.5053 18.1383 3.51646C18.2573 3.52762 18.3429 3.53878 18.395 3.54994C18.447 3.5611 18.5345 3.57785 18.6572 3.60017C18.78 3.62249 18.886 3.65225 18.9753 3.68945C19.0646 3.72666 19.1688 3.77502 19.2878 3.83454C19.4069 3.89407 19.5222 3.96661 19.6338 4.05218C19.7454 4.13774 19.8533 4.23633 19.9575 4.34793C20.0021 4.39258 20.0598 4.4614 20.1304 4.55441C20.2011 4.64741 20.309 4.86505 20.4541 5.20731C20.5992 5.54957 20.6978 5.92532 20.7499 6.33454C20.8094 6.81073 20.8559 7.31855 20.8894 7.85798C20.9229 8.39741 20.9433 8.81966 20.9508 9.12472V9.57115V11.089C20.9582 12.1679 20.8912 13.2467 20.7499 14.3256C20.6978 14.7348 20.6048 15.105 20.4708 15.4361C20.3369 15.7672 20.2179 15.996 20.1137 16.1225L19.9575 16.3122C19.8533 16.4238 19.7454 16.5224 19.6338 16.608C19.5222 16.6935 19.4069 16.7642 19.2878 16.82C19.1688 16.8758 19.0646 16.9223 18.9753 16.9595C18.886 16.9967 18.78 17.0265 18.6572 17.0488C18.5345 17.0711 18.4452 17.0879 18.3894 17.0991C18.3336 17.1102 18.248 17.1214 18.1327 17.1325C18.0173 17.1437 17.956 17.1493 17.9485 17.1493C16.081 17.2906 13.7484 17.3613 10.9508 17.3613C9.41057 17.3464 8.07315 17.3223 6.93848 17.2888C5.8038 17.2553 5.0579 17.2274 4.70075 17.2051L4.15388 17.1604L3.75209 17.1158C3.48424 17.0786 3.28148 17.0414 3.14383 17.0042C3.00619 16.967 2.81645 16.8889 2.57464 16.7698C2.33282 16.6508 2.12263 16.4982 1.94406 16.3122C1.89941 16.2676 1.84175 16.1988 1.77107 16.1057C1.70038 16.0127 1.59249 15.7951 1.44741 15.4528C1.30232 15.1106 1.20373 14.7348 1.15165 14.3256C1.09212 13.8494 1.04562 13.3416 1.01214 12.8022C0.978655 12.2627 0.958194 11.8405 0.950753 11.5354V11.089V9.57115C0.943313 8.49228 1.01028 7.41341 1.15165 6.33454C1.20373 5.92532 1.29674 5.55515 1.43066 5.22405C1.56459 4.89295 1.68364 4.66416 1.78781 4.53767L1.94406 4.34793C2.04822 4.23633 2.15611 4.13774 2.26772 4.05218C2.37932 3.96661 2.49465 3.89407 2.6137 3.83454C2.73275 3.77502 2.83691 3.72666 2.9262 3.68945C3.01549 3.65225 3.12151 3.62249 3.24428 3.60017C3.36705 3.57785 3.45447 3.5611 3.50656 3.54994C3.55864 3.53878 3.64421 3.52762 3.76325 3.51646C3.8823 3.5053 3.94554 3.49972 3.95299 3.49972C5.82054 3.36579 8.15313 3.29883 10.9508 3.29883Z" fill="white"/>
</g>
<defs>
<clipPath id="clip0_722_943">
<rect width="20" height="20" fill="white" transform="matrix(1 0 0 -1 0.950195 20.3301)"/>
</clipPath>
</defs>
</svg>
