<svg width="40" height="40" viewBox="0 0 40 40" fill="none" xmlns="http://www.w3.org/2000/svg">
<g id="fi_9741134">
<g id="Group">
<path id="Vector" d="M29.3679 16.0336H20.6179C19.9346 16.0336 19.3679 15.4669 19.3679 14.7836C19.3679 14.1002 19.9346 13.5336 20.6179 13.5336H29.3679C30.0513 13.5336 30.6179 14.1002 30.6179 14.7836C30.6179 15.4669 30.0679 16.0336 29.3679 16.0336Z" fill="#FF65DD"/>
<path id="Vector_2" d="M11.8677 17.3002C11.551 17.3002 11.2343 17.1835 10.9843 16.9335L9.73433 15.6835C9.25099 15.2002 9.25099 14.4002 9.73433 13.9168C10.2177 13.4335 11.0177 13.4335 11.501 13.9168L11.8677 14.2835L14.7343 11.4168C15.2177 10.9335 16.0177 10.9335 16.501 11.4168C16.9844 11.9002 16.9844 12.7002 16.501 13.1835L12.751 16.9335C12.5177 17.1669 12.201 17.3002 11.8677 17.3002Z" fill="#FF65DD"/>
<path id="Vector_3" d="M29.3679 27.7002H20.6179C19.9346 27.7002 19.3679 27.1335 19.3679 26.4502C19.3679 25.7669 19.9346 25.2002 20.6179 25.2002H29.3679C30.0513 25.2002 30.6179 25.7669 30.6179 26.4502C30.6179 27.1335 30.0679 27.7002 29.3679 27.7002Z" fill="#FF65DD"/>
<path id="Vector_4" d="M11.8677 28.9669C11.551 28.9669 11.2343 28.8502 10.9843 28.6002L9.73433 27.3502C9.25099 26.8669 9.25099 26.0669 9.73433 25.5836C10.2177 25.1002 11.0177 25.1002 11.501 25.5836L11.8677 25.9502L14.7343 23.0836C15.2177 22.6002 16.0177 22.6002 16.501 23.0836C16.9844 23.5669 16.9844 24.3669 16.501 24.8502L12.751 28.6002C12.5177 28.8336 12.201 28.9669 11.8677 28.9669Z" fill="#FF65DD"/>
<path id="Vector_5" d="M25.0014 37.9167H15.0014C5.95138 37.9167 2.08472 34.05 2.08472 25V15C2.08472 5.95004 5.95138 2.08337 15.0014 2.08337H25.0014C34.0514 2.08337 37.9181 5.95004 37.9181 15V25C37.9181 34.05 34.0514 37.9167 25.0014 37.9167ZM15.0014 4.58337C7.31805 4.58337 4.58472 7.31671 4.58472 15V25C4.58472 32.6834 7.31805 35.4167 15.0014 35.4167H25.0014C32.6847 35.4167 35.4181 32.6834 35.4181 25V15C35.4181 7.31671 32.6847 4.58337 25.0014 4.58337H15.0014Z" fill="#FF65DD"/>
</g>
</g>
</svg>
