<svg width="40" height="41" viewBox="0 0 40 41" fill="none" xmlns="http://www.w3.org/2000/svg">
<g id="fi_5791690">
<path id="Vector" d="M36.0454 8.61116C35.4963 8.05982 34.8434 7.62277 34.1244 7.32526C33.4054 7.02775 32.6346 6.87567 31.8565 6.87782H30.6676V3.31116H28.3009V6.86671H11.7009V3.31116H9.33426V6.86671H8.14537C6.57368 6.86966 5.06736 7.49607 3.95705 8.60847C2.84673 9.72087 2.22314 11.2284 2.22314 12.8V31.7556C2.22314 33.3263 2.84709 34.8326 3.95772 35.9432C5.06836 37.0539 6.5747 37.6778 8.14537 37.6778H31.8565C33.4272 37.6778 34.9335 37.0539 36.0441 35.9432C37.1548 34.8326 37.7787 33.3263 37.7787 31.7556V12.8C37.7815 12.0218 37.6297 11.2508 37.3321 10.5318C37.0346 9.8127 36.5972 9.15987 36.0454 8.61116ZM35.412 31.7667C35.412 32.7097 35.0374 33.6141 34.3706 34.2809C33.7038 34.9477 32.7995 35.3223 31.8565 35.3223H8.14537C7.20237 35.3223 6.29801 34.9477 5.63121 34.2809C4.96441 33.6141 4.58981 32.7097 4.58981 31.7667V17.5334H33.0343V15.1667H4.58981V12.8C4.58981 11.8571 4.96441 10.9527 5.63121 10.2859C6.29801 9.61909 7.20237 9.24449 8.14537 9.24449H9.33426V12.8H11.7009V9.24449H28.3009V12.8H30.6676V9.24449H31.8565C32.7995 9.24449 33.7038 9.61909 34.3706 10.2859C35.0374 10.9527 35.412 11.8571 35.412 12.8V31.7667Z" fill="#FF6565"/>
<path id="Vector_2" d="M21.1887 31.7555H18.8109V27.6111H14.6665V25.2444H18.8109V21.0889H21.1887V25.2444H25.3332V27.6111H21.1887V31.7555Z" fill="#FF6565"/>
</g>
</svg>
