<svg width="36" height="35" viewBox="0 0 36 35" fill="none" xmlns="http://www.w3.org/2000/svg">
<g id="fi_4039062" clip-path="url(#clip0_815_264)">
<g id="Group">
<path id="Vector" d="M31.7406 8.33978H30.6469V7.86127C30.6469 7.58927 30.5388 7.32847 30.3465 7.13625L23.5105 0.30031C23.3182 0.107947 23.0575 -6.10352e-05 22.7855 -6.10352e-05H6.37927C5.81298 -6.10352e-05 5.35388 0.45904 5.35388 1.02533V6.9726H4.26013C2.187 6.9726 0.500366 8.65923 0.500366 10.7324V31.2402C0.500366 33.3133 2.187 34.9999 4.26013 34.9999H31.7406C33.8137 34.9999 35.5004 33.3133 35.5004 31.2402V12.0995C35.5004 10.0264 33.8137 8.33978 31.7406 8.33978ZM31.7406 10.3906C32.6829 10.3906 33.4496 11.1572 33.4496 12.0995V12.8539C32.9364 12.5908 32.3558 12.4413 31.7406 12.4413H30.6469V10.3906H31.7406ZM23.8109 3.50083L27.146 6.83588H24.1527C23.9642 6.83588 23.8109 6.68255 23.8109 6.49408V3.50083ZM7.40466 2.05072H21.7601V6.49408C21.7601 7.81335 22.8334 8.88666 24.1527 8.88666H28.5961V12.4413H18.6341L16.939 9.05093C16.2979 7.76891 15.0094 6.9726 13.5761 6.9726H7.40466V2.05072ZM33.4496 31.2402C33.4496 32.1825 32.6829 32.9492 31.7406 32.9492H4.26013C3.3178 32.9492 2.55115 32.1825 2.55115 31.2402V10.7324C2.55115 9.79003 3.3178 9.02338 4.26013 9.02338H13.5761C14.2275 9.02338 14.8133 9.38534 15.1046 9.96803L17.0832 13.9253C17.257 14.2727 17.6119 14.4921 18.0004 14.4921H31.7406C32.6829 14.4921 33.4496 15.2588 33.4496 16.2011V31.2402Z" fill="#65ACFF"/>
<path id="Vector_2" d="M23.4691 20.6445H21.0765V18.2519C21.0765 17.6856 20.6174 17.2265 20.0511 17.2265H15.9496C15.3833 17.2265 14.9242 17.6856 14.9242 18.2519V20.6445H12.5316C11.9653 20.6445 11.5062 21.1036 11.5062 21.6699V25.7714C11.5062 26.3377 11.9653 26.7968 12.5316 26.7968H14.9242V29.1894C14.9242 29.7557 15.3833 30.2148 15.9496 30.2148H20.0511C20.6174 30.2148 21.0765 29.7557 21.0765 29.1894V26.7968H23.4691C24.0354 26.7968 24.4945 26.3377 24.4945 25.7714V21.6699C24.4945 21.1036 24.0354 20.6445 23.4691 20.6445ZM22.4437 24.746H20.0511C19.4849 24.746 19.0258 25.2051 19.0258 25.7714V28.164H16.975V25.7714C16.975 25.2051 16.5159 24.746 15.9496 24.746H13.557V22.6953H15.9496C16.5159 22.6953 16.975 22.2361 16.975 21.6699V19.2773H19.0258V21.6699C19.0258 22.2361 19.4849 22.6953 20.0511 22.6953H22.4437V24.746Z" fill="#65ACFF"/>
</g>
</g>
<defs>
<clipPath id="clip0_815_264">
<rect width="35" height="35" fill="white" transform="translate(0.500366 -6.10352e-05)"/>
</clipPath>
</defs>
</svg>
