<svg width="41" height="40" viewBox="0 0 41 40" fill="none" xmlns="http://www.w3.org/2000/svg">
<g id="fi_10035041">
<g id="Group">
<path id="Vector" d="M28.834 36.25H12.1673C4.81732 36.25 2.58398 34.0167 2.58398 26.6667V13.3333C2.58398 5.98333 4.81732 3.75 12.1673 3.75H28.834C36.184 3.75 38.4173 5.98333 38.4173 13.3333V26.6667C38.4173 34.0167 36.184 36.25 28.834 36.25ZM12.1673 6.25C6.20065 6.25 5.08398 7.38333 5.08398 13.3333V26.6667C5.08398 32.6167 6.20065 33.75 12.1673 33.75H28.834C34.8007 33.75 35.9173 32.6167 35.9173 26.6667V13.3333C35.9173 7.38333 34.8007 6.25 28.834 6.25H12.1673Z" fill="#29C28B"/>
<path id="Vector_2" d="M32.1673 14.5833H23.834C23.1507 14.5833 22.584 14.0167 22.584 13.3333C22.584 12.65 23.1507 12.0833 23.834 12.0833H32.1673C32.8507 12.0833 33.4173 12.65 33.4173 13.3333C33.4173 14.0167 32.8507 14.5833 32.1673 14.5833Z" fill="#29C28B"/>
<path id="Vector_3" d="M32.1667 21.25H25.5C24.8167 21.25 24.25 20.6833 24.25 20C24.25 19.3167 24.8167 18.75 25.5 18.75H32.1667C32.85 18.75 33.4167 19.3167 33.4167 20C33.4167 20.6833 32.85 21.25 32.1667 21.25Z" fill="#29C28B"/>
<path id="Vector_4" d="M32.1673 27.9167H28.834C28.1507 27.9167 27.584 27.35 27.584 26.6667C27.584 25.9833 28.1507 25.4167 28.834 25.4167H32.1673C32.8507 25.4167 33.4173 25.9833 33.4173 26.6667C33.4173 27.35 32.8507 27.9167 32.1673 27.9167Z" fill="#29C28B"/>
<path id="Vector_5" d="M14.669 20.0665C12.319 20.0665 10.4023 18.1498 10.4023 15.7999C10.4023 13.4499 12.319 11.5332 14.669 11.5332C17.019 11.5332 18.9356 13.4499 18.9356 15.7999C18.9356 18.1498 17.019 20.0665 14.669 20.0665ZM14.669 14.0332C13.7023 14.0332 12.9023 14.8332 12.9023 15.7999C12.9023 16.7665 13.7023 17.5665 14.669 17.5665C15.6357 17.5665 16.4357 16.7665 16.4357 15.7999C16.4357 14.8332 15.6357 14.0332 14.669 14.0332Z" fill="#29C28B"/>
<path id="Vector_6" d="M20.4998 28.4667C19.8665 28.4667 19.3165 27.9833 19.2498 27.3333C19.0665 25.5333 17.6165 24.0834 15.7998 23.9167C15.0332 23.85 14.2665 23.85 13.4998 23.9167C11.6832 24.0834 10.2332 25.5167 10.0498 27.3333C9.98318 28.0167 9.36651 28.5333 8.68318 28.45C7.99984 28.3833 7.49984 27.7667 7.56651 27.0834C7.86651 24.0834 10.2498 21.7 13.2665 21.4333C14.1832 21.35 15.1165 21.35 16.0332 21.4333C19.0332 21.7167 21.4332 24.1 21.7332 27.0834C21.7998 27.7667 21.2998 28.3833 20.6165 28.45C20.5832 28.4667 20.5332 28.4667 20.4998 28.4667Z" fill="#29C28B"/>
</g>
</g>
</svg>
