<svg width="40" height="36" viewBox="0 0 40 36" fill="none" xmlns="http://www.w3.org/2000/svg">
<path d="M5.3842 32.1522C5.15038 33.3609 5.94061 34.5302 7.14922 34.764C8.35786 34.9978 9.52718 34.2076 9.761 32.999L5.3842 32.1522ZM37.3606 4.74616C38.5806 4.58122 39.4358 3.45855 39.271 2.23862C39.106 1.0187 37.9834 0.163428 36.7634 0.328336L37.3606 4.74616ZM4.13961 24.2723C3.50529 23.2172 2.1358 22.8762 1.08077 23.5105C0.0257465 24.1448 -0.315298 25.5143 0.319031 26.5693L4.13961 24.2723ZM6.29722 32.1866L4.38692 33.3351L4.388 33.337L6.29722 32.1866ZM8.98428 32.9673L8.07344 30.9329L8.07158 30.9337L8.98428 32.9673ZM17.5525 31.5735C18.6761 31.0704 19.1791 29.7518 18.6761 28.6282C18.1731 27.5047 16.8545 27.0016 15.7309 27.5047L17.5525 31.5735ZM7.57258 32.5756C9.761 32.999 9.76093 32.9996 9.76086 33C9.76078 33.0002 9.76071 33.0006 9.76071 33.0007C9.76071 33.0008 9.76071 33.0005 9.761 32.999C9.7616 32.9958 9.76286 32.9899 9.76472 32.9808C9.76843 32.9624 9.7746 32.9321 9.78352 32.8903C9.8012 32.8068 9.82951 32.6775 9.86918 32.507C9.94869 32.1657 10.0738 31.6601 10.2519 31.0258C10.6086 29.7553 11.1749 27.9791 12.0075 25.9786C13.6868 21.9436 16.3801 17.1645 20.4695 13.7132L17.5943 10.3064C12.7434 14.4003 9.70699 19.9042 7.89177 24.2657C6.97707 26.4634 6.35485 28.414 5.95989 29.8207C5.76213 30.525 5.62061 31.0956 5.5274 31.4959C5.48078 31.6961 5.4462 31.8539 5.42266 31.9648C5.4109 32.0202 5.40189 32.0639 5.39552 32.0953C5.39234 32.1111 5.38981 32.1237 5.38793 32.1332C5.38699 32.138 5.38621 32.1419 5.38558 32.1451C5.38528 32.1467 5.385 32.1481 5.38477 32.1493C5.38466 32.1499 5.38451 32.1506 5.38445 32.1509C5.38432 32.1517 5.3842 32.1522 7.57258 32.5756ZM20.4695 13.7132C29.0825 6.44435 35.8601 4.949 37.3606 4.74616L36.7634 0.328336C34.4318 0.643523 26.862 2.485 17.5943 10.3064L20.4695 13.7132ZM0.319031 26.5693L4.38692 33.3351L8.20755 31.038L4.13961 24.2723L0.319031 26.5693ZM4.388 33.337C5.54788 35.262 7.94297 35.8779 9.8969 35.0009L8.07158 30.9337C8.05865 30.9395 8.06593 30.9322 8.09097 30.9395C8.10345 30.9431 8.12262 30.951 8.14484 30.9678C8.16809 30.9854 8.19009 31.0091 8.20643 31.0363L4.388 33.337ZM9.89511 35.0017L17.5525 31.5735L15.7309 27.5047L8.07344 30.9329L9.89511 35.0017Z" fill="white"/>
</svg>
